G04 #@! TF.GenerationSoftware,KiCad,Pcbnew,5.0.0+dfsg1-2~bpo9+1*
G04 #@! TF.CreationDate,2018-10-31T22:12:09+01:00*
G04 #@! TF.ProjectId,minipid,6D696E697069642E6B696361645F7063,rev?*
G04 #@! TF.SameCoordinates,Original*
G04 #@! TF.FileFunction,Soldermask,Bot*
G04 #@! TF.FilePolarity,Negative*
%FSLAX46Y46*%
G04 Gerber Fmt 4.6, Leading zero omitted, Abs format (unit mm)*
G04 Created by KiCad (PCBNEW 5.0.0+dfsg1-2~bpo9+1) date Wed Oct 31 22:12:09 2018*
%MOMM*%
%LPD*%
G01*
G04 APERTURE LIST*
%ADD10C,2.000000*%
%ADD11C,2.400000*%
%ADD12R,2.400000X2.400000*%
%ADD13C,3.400000*%
%ADD14O,2.000000X2.000000*%
%ADD15R,2.000000X2.000000*%
%ADD16R,2.400000X2.305000*%
%ADD17O,2.400000X2.305000*%
%ADD18O,1.900000X1.450000*%
%ADD19R,1.900000X1.450000*%
%ADD20C,2.000000*%
%ADD21C,3.600000*%
%ADD22R,2.900000X2.900000*%
%ADD23C,2.900000*%
%ADD24R,2.100000X2.100000*%
%ADD25O,2.100000X2.100000*%
G04 APERTURE END LIST*
D10*
X62788900Y-98007460D02*
X65196820Y-98007460D01*
X61465560Y-99330800D02*
X62788900Y-98007460D01*
X61465560Y-104390480D02*
X61465560Y-99330800D01*
X62727940Y-105652860D02*
X61465560Y-104390480D01*
X59339580Y-105652860D02*
X62727940Y-105652860D01*
X54572000Y-110420440D02*
X59339580Y-105652860D01*
X61496040Y-95431900D02*
X65288260Y-95431900D01*
X54602480Y-102325460D02*
X61496040Y-95431900D01*
X54602480Y-105124540D02*
X54602480Y-102325460D01*
D11*
G04 #@! TO.C,TR1*
X81510000Y-128410000D03*
X81510000Y-133410000D03*
X66510000Y-138410000D03*
D12*
X66510000Y-123410000D03*
G04 #@! TD*
D13*
G04 #@! TO.C,HS1*
X84036000Y-98010000D03*
G04 #@! TD*
D14*
G04 #@! TO.C,D1*
X89370000Y-141190000D03*
X96990000Y-136110000D03*
X89370000Y-136110000D03*
D15*
X96990000Y-141190000D03*
G04 #@! TD*
D16*
G04 #@! TO.C,D2*
X65240000Y-95470000D03*
D17*
X65240000Y-98010000D03*
X65240000Y-100550000D03*
G04 #@! TD*
D18*
G04 #@! TO.C,U2*
X103340000Y-122140000D03*
X103340000Y-123410000D03*
D19*
X103340000Y-120870000D03*
G04 #@! TD*
D15*
G04 #@! TO.C,U3*
X75400000Y-114520000D03*
D14*
X67780000Y-109440000D03*
X75400000Y-111980000D03*
X67780000Y-111980000D03*
X75400000Y-109440000D03*
X67780000Y-114520000D03*
G04 #@! TD*
D15*
G04 #@! TO.C,U1*
X96990000Y-125950000D03*
D14*
X89370000Y-118330000D03*
X96990000Y-123410000D03*
X89370000Y-120870000D03*
X96990000Y-120870000D03*
X89370000Y-123410000D03*
X96990000Y-118330000D03*
X89370000Y-125950000D03*
G04 #@! TD*
D15*
G04 #@! TO.C,C3*
X95720000Y-109440000D03*
D20*
X95720000Y-111940000D03*
G04 #@! TD*
D15*
G04 #@! TO.C,C2*
X103340000Y-129760000D03*
D20*
X103340000Y-133260000D03*
G04 #@! TD*
G04 #@! TO.C,C1*
X90720000Y-129760000D03*
X95720000Y-129760000D03*
G04 #@! TD*
D14*
G04 #@! TO.C,R1*
X89370000Y-113250000D03*
D20*
X79210000Y-113250000D03*
G04 #@! TD*
G04 #@! TO.C,R3*
X89370000Y-109440000D03*
D14*
X79210000Y-109440000D03*
G04 #@! TD*
D21*
G04 #@! TO.C,MH3*
X105000000Y-140000000D03*
G04 #@! TD*
G04 #@! TO.C,MH2*
X55000000Y-95000000D03*
G04 #@! TD*
G04 #@! TO.C,MH1*
X55000000Y-140000000D03*
G04 #@! TD*
D22*
G04 #@! TO.C,J1*
X54610000Y-115570000D03*
D23*
X54610000Y-120570000D03*
G04 #@! TD*
G04 #@! TO.C,J2*
X54610000Y-110410000D03*
D22*
X54610000Y-105410000D03*
G04 #@! TD*
G04 #@! TO.C,J3*
X105880000Y-113170000D03*
D23*
X105880000Y-108170000D03*
G04 #@! TD*
D24*
G04 #@! TO.C,J4*
X91910000Y-101820000D03*
D25*
X94450000Y-101820000D03*
X96990000Y-101820000D03*
X99530000Y-101820000D03*
X102070000Y-101820000D03*
G04 #@! TD*
D24*
G04 #@! TO.C,J5*
X91910000Y-98010000D03*
D25*
X94450000Y-98010000D03*
X96990000Y-98010000D03*
X99530000Y-98010000D03*
G04 #@! TD*
D24*
G04 #@! TO.C,J6*
X91910000Y-94200000D03*
D25*
X94450000Y-94200000D03*
X96990000Y-94200000D03*
G04 #@! TD*
D11*
G04 #@! TO.C,F1*
X53810000Y-129760000D03*
X58890000Y-129770000D03*
G04 #@! TD*
D20*
G04 #@! TO.C,R2*
X62700000Y-105630000D03*
D14*
X62700000Y-115790000D03*
G04 #@! TD*
D21*
G04 #@! TO.C,MH4*
X105000000Y-95000000D03*
G04 #@! TD*
M02*
