G04 #@! TF.GenerationSoftware,KiCad,Pcbnew,5.0.0+dfsg1-2~bpo9+1*
G04 #@! TF.CreationDate,2018-10-31T22:12:08+01:00*
G04 #@! TF.ProjectId,minipid,6D696E697069642E6B696361645F7063,rev?*
G04 #@! TF.SameCoordinates,Original*
G04 #@! TF.FileFunction,Copper,L1,Top,Signal*
G04 #@! TF.FilePolarity,Positive*
%FSLAX46Y46*%
G04 Gerber Fmt 4.6, Leading zero omitted, Abs format (unit mm)*
G04 Created by KiCad (PCBNEW 5.0.0+dfsg1-2~bpo9+1) date Wed Oct 31 22:12:08 2018*
%MOMM*%
%LPD*%
G01*
G04 APERTURE LIST*
G04 #@! TA.AperFunction,ComponentPad*
%ADD10C,2.000000*%
G04 #@! TD*
G04 #@! TA.AperFunction,ComponentPad*
%ADD11R,2.000000X2.000000*%
G04 #@! TD*
G04 #@! TA.AperFunction,ComponentPad*
%ADD12C,3.000000*%
G04 #@! TD*
G04 #@! TA.AperFunction,ComponentPad*
%ADD13O,1.600000X1.600000*%
G04 #@! TD*
G04 #@! TA.AperFunction,ComponentPad*
%ADD14R,1.600000X1.600000*%
G04 #@! TD*
G04 #@! TA.AperFunction,ComponentPad*
%ADD15R,2.000000X1.905000*%
G04 #@! TD*
G04 #@! TA.AperFunction,ComponentPad*
%ADD16O,2.000000X1.905000*%
G04 #@! TD*
G04 #@! TA.AperFunction,ComponentPad*
%ADD17O,1.500000X1.050000*%
G04 #@! TD*
G04 #@! TA.AperFunction,ComponentPad*
%ADD18R,1.500000X1.050000*%
G04 #@! TD*
G04 #@! TA.AperFunction,ComponentPad*
%ADD19C,1.600000*%
G04 #@! TD*
G04 #@! TA.AperFunction,ComponentPad*
%ADD20R,2.500000X2.500000*%
G04 #@! TD*
G04 #@! TA.AperFunction,ComponentPad*
%ADD21C,2.500000*%
G04 #@! TD*
G04 #@! TA.AperFunction,ComponentPad*
%ADD22R,1.700000X1.700000*%
G04 #@! TD*
G04 #@! TA.AperFunction,ComponentPad*
%ADD23O,1.700000X1.700000*%
G04 #@! TD*
G04 #@! TA.AperFunction,ViaPad*
%ADD24C,0.800000*%
G04 #@! TD*
G04 #@! TA.AperFunction,Conductor*
%ADD25C,0.500000*%
G04 #@! TD*
G04 #@! TA.AperFunction,Conductor*
%ADD26C,0.200000*%
G04 #@! TD*
G04 APERTURE END LIST*
D10*
G04 #@! TO.P,TR1,7*
G04 #@! TO.N,Net-(D1-Pad3)*
X81510000Y-128410000D03*
G04 #@! TO.P,TR1,6*
G04 #@! TO.N,Net-(D1-Pad4)*
X81510000Y-133410000D03*
G04 #@! TO.P,TR1,4*
G04 #@! TO.N,Net-(F1-Pad2)*
X66510000Y-138410000D03*
D11*
G04 #@! TO.P,TR1,1*
G04 #@! TO.N,Net-(J1-Pad1)*
X66510000Y-123410000D03*
G04 #@! TD*
D12*
G04 #@! TO.P,HS1,1*
G04 #@! TO.N,Net-(HS1-Pad1)*
X84036000Y-98010000D03*
G04 #@! TD*
D13*
G04 #@! TO.P,D1,4*
G04 #@! TO.N,Net-(D1-Pad4)*
X89370000Y-141190000D03*
G04 #@! TO.P,D1,2*
G04 #@! TO.N,GND*
X96990000Y-136110000D03*
G04 #@! TO.P,D1,3*
G04 #@! TO.N,Net-(D1-Pad3)*
X89370000Y-136110000D03*
D14*
G04 #@! TO.P,D1,1*
G04 #@! TO.N,Net-(C2-Pad1)*
X96990000Y-141190000D03*
G04 #@! TD*
D15*
G04 #@! TO.P,D2,1*
G04 #@! TO.N,Net-(D2-Pad1)*
X65240000Y-95470000D03*
D16*
G04 #@! TO.P,D2,2*
G04 #@! TO.N,Net-(D2-Pad2)*
X65240000Y-98010000D03*
G04 #@! TO.P,D2,3*
G04 #@! TO.N,Net-(D2-Pad3)*
X65240000Y-100550000D03*
G04 #@! TD*
D17*
G04 #@! TO.P,U2,2*
G04 #@! TO.N,GND*
X103340000Y-122140000D03*
G04 #@! TO.P,U2,3*
G04 #@! TO.N,Net-(C2-Pad1)*
X103340000Y-123410000D03*
D18*
G04 #@! TO.P,U2,1*
G04 #@! TO.N,VCC*
X103340000Y-120870000D03*
G04 #@! TD*
D14*
G04 #@! TO.P,U3,1*
G04 #@! TO.N,Net-(R1-Pad1)*
X75400000Y-114520000D03*
D13*
G04 #@! TO.P,U3,4*
G04 #@! TO.N,Net-(D2-Pad3)*
X67780000Y-109440000D03*
G04 #@! TO.P,U3,2*
G04 #@! TO.N,GND*
X75400000Y-111980000D03*
G04 #@! TO.P,U3,5*
G04 #@! TO.N,Net-(U3-Pad5)*
X67780000Y-111980000D03*
G04 #@! TO.P,U3,3*
G04 #@! TO.N,Net-(U3-Pad3)*
X75400000Y-109440000D03*
G04 #@! TO.P,U3,6*
G04 #@! TO.N,Net-(R2-Pad2)*
X67780000Y-114520000D03*
G04 #@! TD*
D14*
G04 #@! TO.P,U1,1*
G04 #@! TO.N,RST#*
X96990000Y-125950000D03*
D13*
G04 #@! TO.P,U1,5*
G04 #@! TO.N,MOSI_SDA_RX*
X89370000Y-118330000D03*
G04 #@! TO.P,U1,2*
G04 #@! TO.N,AIN*
X96990000Y-123410000D03*
G04 #@! TO.P,U1,6*
G04 #@! TO.N,MISO_TX*
X89370000Y-120870000D03*
G04 #@! TO.P,U1,3*
G04 #@! TO.N,OUT*
X96990000Y-120870000D03*
G04 #@! TO.P,U1,7*
G04 #@! TO.N,SCK_SCL*
X89370000Y-123410000D03*
G04 #@! TO.P,U1,4*
G04 #@! TO.N,GND*
X96990000Y-118330000D03*
G04 #@! TO.P,U1,8*
G04 #@! TO.N,VCC*
X89370000Y-125950000D03*
G04 #@! TD*
D14*
G04 #@! TO.P,C3,1*
G04 #@! TO.N,VCC*
X95720000Y-109440000D03*
D19*
G04 #@! TO.P,C3,2*
G04 #@! TO.N,GND*
X95720000Y-111940000D03*
G04 #@! TD*
D14*
G04 #@! TO.P,C2,1*
G04 #@! TO.N,Net-(C2-Pad1)*
X103340000Y-129760000D03*
D19*
G04 #@! TO.P,C2,2*
G04 #@! TO.N,GND*
X103340000Y-133260000D03*
G04 #@! TD*
G04 #@! TO.P,C1,1*
G04 #@! TO.N,VCC*
X90720000Y-129760000D03*
G04 #@! TO.P,C1,2*
G04 #@! TO.N,GND*
X95720000Y-129760000D03*
G04 #@! TD*
D13*
G04 #@! TO.P,R1,2*
G04 #@! TO.N,OUT*
X89370000Y-113250000D03*
D19*
G04 #@! TO.P,R1,1*
G04 #@! TO.N,Net-(R1-Pad1)*
X79210000Y-113250000D03*
G04 #@! TD*
G04 #@! TO.P,R3,1*
G04 #@! TO.N,VCC*
X89370000Y-109440000D03*
D13*
G04 #@! TO.P,R3,2*
G04 #@! TO.N,AIN*
X79210000Y-109440000D03*
G04 #@! TD*
D20*
G04 #@! TO.P,J1,1*
G04 #@! TO.N,Net-(J1-Pad1)*
X54610000Y-115570000D03*
D21*
G04 #@! TO.P,J1,2*
G04 #@! TO.N,Net-(F1-Pad1)*
X54610000Y-120570000D03*
G04 #@! TD*
G04 #@! TO.P,J2,2*
G04 #@! TO.N,Net-(D2-Pad2)*
X54610000Y-110410000D03*
D20*
G04 #@! TO.P,J2,1*
G04 #@! TO.N,Net-(D2-Pad1)*
X54610000Y-105410000D03*
G04 #@! TD*
G04 #@! TO.P,J3,1*
G04 #@! TO.N,AIN*
X105880000Y-113170000D03*
D21*
G04 #@! TO.P,J3,2*
G04 #@! TO.N,GND*
X105880000Y-108170000D03*
G04 #@! TD*
D22*
G04 #@! TO.P,J4,1*
G04 #@! TO.N,RST#*
X91910000Y-101820000D03*
D23*
G04 #@! TO.P,J4,2*
G04 #@! TO.N,SCK_SCL*
X94450000Y-101820000D03*
G04 #@! TO.P,J4,3*
G04 #@! TO.N,MOSI_SDA_RX*
X96990000Y-101820000D03*
G04 #@! TO.P,J4,4*
G04 #@! TO.N,MISO_TX*
X99530000Y-101820000D03*
G04 #@! TO.P,J4,5*
G04 #@! TO.N,GND*
X102070000Y-101820000D03*
G04 #@! TD*
D22*
G04 #@! TO.P,J5,1*
G04 #@! TO.N,SCK_SCL*
X91910000Y-98010000D03*
D23*
G04 #@! TO.P,J5,2*
G04 #@! TO.N,MOSI_SDA_RX*
X94450000Y-98010000D03*
G04 #@! TO.P,J5,3*
G04 #@! TO.N,VCC*
X96990000Y-98010000D03*
G04 #@! TO.P,J5,4*
G04 #@! TO.N,GND*
X99530000Y-98010000D03*
G04 #@! TD*
D22*
G04 #@! TO.P,J6,1*
G04 #@! TO.N,MISO_TX*
X91910000Y-94200000D03*
D23*
G04 #@! TO.P,J6,2*
G04 #@! TO.N,MOSI_SDA_RX*
X94450000Y-94200000D03*
G04 #@! TO.P,J6,3*
G04 #@! TO.N,GND*
X96990000Y-94200000D03*
G04 #@! TD*
D10*
G04 #@! TO.P,F1,1*
G04 #@! TO.N,Net-(F1-Pad1)*
X53810000Y-129760000D03*
G04 #@! TO.P,F1,2*
G04 #@! TO.N,Net-(F1-Pad2)*
X58890000Y-129770000D03*
G04 #@! TD*
D19*
G04 #@! TO.P,R2,1*
G04 #@! TO.N,Net-(D2-Pad2)*
X62700000Y-105630000D03*
D13*
G04 #@! TO.P,R2,2*
G04 #@! TO.N,Net-(R2-Pad2)*
X62700000Y-115790000D03*
G04 #@! TD*
D24*
G04 #@! TO.N,AIN*
X102578000Y-113250000D03*
X100546000Y-115282000D03*
G04 #@! TD*
D25*
G04 #@! TO.N,Net-(D1-Pad3)*
X89210000Y-136110000D02*
X89370000Y-136110000D01*
X81510000Y-128410000D02*
X89210000Y-136110000D01*
G04 #@! TO.N,Net-(D1-Pad4)*
X89290000Y-141190000D02*
X89370000Y-141190000D01*
X81510000Y-133410000D02*
X89290000Y-141190000D01*
D26*
G04 #@! TO.N,RST#*
X91910000Y-101820000D02*
X91910000Y-106646000D01*
X91452800Y-107103200D02*
X88150800Y-107103200D01*
X91910000Y-106646000D02*
X91452800Y-107103200D01*
X92079999Y-130860001D02*
X96990000Y-125950000D01*
X90191999Y-130860001D02*
X92079999Y-130860001D01*
X85799969Y-126467971D02*
X90191999Y-130860001D01*
X85799969Y-109454031D02*
X85799969Y-126467971D01*
X88150800Y-107103200D02*
X85799969Y-109454031D01*
G04 #@! TO.N,AIN*
X97789999Y-124209999D02*
X96990000Y-123410000D01*
X79210000Y-109440000D02*
X85399959Y-115629959D01*
X98090001Y-124510001D02*
X97789999Y-124209999D01*
X98090001Y-129018001D02*
X98090001Y-124510001D01*
X85399959Y-115629959D02*
X85399959Y-128837959D01*
X95847991Y-131260011D02*
X98090001Y-129018001D01*
X85399959Y-128837959D02*
X87822011Y-131260011D01*
X87822011Y-131260011D02*
X95847991Y-131260011D01*
X105880000Y-113170000D02*
X102658000Y-113170000D01*
X102658000Y-113170000D02*
X102578000Y-113250000D01*
X97789999Y-122610001D02*
X96990000Y-123410000D01*
X100146001Y-120253999D02*
X97789999Y-122610001D01*
X100146001Y-115681999D02*
X100146001Y-120253999D01*
X100546000Y-115282000D02*
X100146001Y-115681999D01*
G04 #@! TO.N,OUT*
X90169999Y-114049999D02*
X96990000Y-120870000D01*
X89370000Y-113250000D02*
X90169999Y-114049999D01*
G04 #@! TO.N,MOSI_SDA_RX*
X92672000Y-92422000D02*
X90894000Y-92422000D01*
X94450000Y-94200000D02*
X92672000Y-92422000D01*
X92329997Y-96859999D02*
X93299999Y-96859999D01*
X90759999Y-95290001D02*
X92329997Y-96859999D01*
X93600001Y-97160001D02*
X94450000Y-98010000D01*
X93299999Y-96859999D02*
X93600001Y-97160001D01*
X90759999Y-92556001D02*
X90759999Y-95290001D01*
X90894000Y-92422000D02*
X90759999Y-92556001D01*
X94450000Y-99280000D02*
X96990000Y-101820000D01*
X94450000Y-98010000D02*
X94450000Y-99280000D01*
X88676310Y-107939989D02*
X86599989Y-110016310D01*
X92451709Y-107939989D02*
X88676310Y-107939989D01*
X96140001Y-104251697D02*
X92451709Y-107939989D01*
X96990000Y-101820000D02*
X96140001Y-102669999D01*
X86599989Y-110016310D02*
X86599989Y-121147989D01*
X96140001Y-102669999D02*
X96140001Y-104251697D01*
X90169999Y-119129999D02*
X89370000Y-118330000D01*
X90470001Y-119430001D02*
X90169999Y-119129999D01*
X90470001Y-121398001D02*
X90470001Y-119430001D01*
X87422001Y-121970001D02*
X89898001Y-121970001D01*
X89898001Y-121970001D02*
X90470001Y-121398001D01*
X86599989Y-121147989D02*
X87422001Y-121970001D01*
G04 #@! TO.N,MISO_TX*
X97970090Y-100970001D02*
X98680001Y-100970001D01*
X95839999Y-97697997D02*
X95839999Y-98839910D01*
X95839999Y-98839910D02*
X97970090Y-100970001D01*
X92342002Y-94200000D02*
X95839999Y-97697997D01*
X98680001Y-100970001D02*
X99530000Y-101820000D01*
X91910000Y-94200000D02*
X92342002Y-94200000D01*
X88841999Y-108339999D02*
X86999999Y-110181999D01*
X99530000Y-101820000D02*
X93010001Y-108339999D01*
X93010001Y-108339999D02*
X88841999Y-108339999D01*
X86999999Y-118499999D02*
X89370000Y-120870000D01*
X86999999Y-110181999D02*
X86999999Y-118499999D01*
G04 #@! TO.N,SCK_SCL*
X91910000Y-99280000D02*
X94450000Y-101820000D01*
X91910000Y-98010000D02*
X91910000Y-99280000D01*
X94450000Y-101820000D02*
X94450000Y-105376000D01*
X86199979Y-109850621D02*
X86199979Y-122271979D01*
X88547391Y-107503210D02*
X86199979Y-109850621D01*
X94450000Y-105376000D02*
X92322790Y-107503210D01*
X92322790Y-107503210D02*
X88547391Y-107503210D01*
X87338000Y-123410000D02*
X89370000Y-123410000D01*
X86199979Y-122271979D02*
X87338000Y-123410000D01*
D25*
G04 #@! TO.N,VCC*
X95720000Y-109440000D02*
X89370000Y-109440000D01*
X103340000Y-119845000D02*
X103340000Y-120870000D01*
X103340000Y-115760000D02*
X103340000Y-119845000D01*
X97020000Y-109440000D02*
X103340000Y-115760000D01*
X95720000Y-109440000D02*
X97020000Y-109440000D01*
X103340000Y-104360000D02*
X98260000Y-104360000D01*
X103340000Y-99915000D02*
X103975000Y-100550000D01*
X103975000Y-100550000D02*
X103975000Y-103725000D01*
X96990000Y-98010000D02*
X98895000Y-99915000D01*
X103975000Y-103725000D02*
X103340000Y-104360000D01*
X98895000Y-99915000D02*
X103340000Y-99915000D01*
X98260000Y-104360000D02*
X95720000Y-106900000D01*
X95720000Y-106900000D02*
X95720000Y-109440000D01*
X89370000Y-128410000D02*
X90720000Y-129760000D01*
X89370000Y-125950000D02*
X89370000Y-128410000D01*
X90169999Y-125150001D02*
X89370000Y-125950000D01*
X91020011Y-118130009D02*
X91020011Y-124299989D01*
X88119999Y-115229997D02*
X91020011Y-118130009D01*
X91020011Y-124299989D02*
X90169999Y-125150001D01*
X88119999Y-110690001D02*
X88119999Y-115229997D01*
X89370000Y-109440000D02*
X88119999Y-110690001D01*
G04 #@! TO.N,Net-(C2-Pad1)*
X103340000Y-123410000D02*
X103340000Y-129760000D01*
X103340000Y-131060000D02*
X99530000Y-134870000D01*
X103340000Y-129760000D02*
X103340000Y-131060000D01*
X96990000Y-139890000D02*
X96990000Y-141190000D01*
X99530000Y-137350000D02*
X96990000Y-139890000D01*
X99530000Y-134870000D02*
X99530000Y-137350000D01*
D26*
G04 #@! TO.N,Net-(R1-Pad1)*
X77940000Y-114520000D02*
X79210000Y-113250000D01*
X75400000Y-114520000D02*
X77940000Y-114520000D01*
G04 #@! TD*
M02*
