G04 #@! TF.GenerationSoftware,KiCad,Pcbnew,5.0.0+dfsg1-2~bpo9+1*
G04 #@! TF.CreationDate,2018-10-31T22:12:09+01:00*
G04 #@! TF.ProjectId,minipid,6D696E697069642E6B696361645F7063,rev?*
G04 #@! TF.SameCoordinates,Original*
G04 #@! TF.FileFunction,Legend,Top*
G04 #@! TF.FilePolarity,Positive*
%FSLAX46Y46*%
G04 Gerber Fmt 4.6, Leading zero omitted, Abs format (unit mm)*
G04 Created by KiCad (PCBNEW 5.0.0+dfsg1-2~bpo9+1) date Wed Oct 31 22:12:09 2018*
%MOMM*%
%LPD*%
G01*
G04 APERTURE LIST*
%ADD10C,0.150000*%
%ADD11C,0.120000*%
%ADD12C,0.010000*%
G04 APERTURE END LIST*
D10*
X51580357Y-99572142D02*
X51580357Y-98972142D01*
X51580357Y-99057857D02*
X51623214Y-99015000D01*
X51708928Y-98972142D01*
X51837500Y-98972142D01*
X51923214Y-99015000D01*
X51966071Y-99100714D01*
X51966071Y-99572142D01*
X51966071Y-99100714D02*
X52008928Y-99015000D01*
X52094642Y-98972142D01*
X52223214Y-98972142D01*
X52308928Y-99015000D01*
X52351785Y-99100714D01*
X52351785Y-99572142D01*
X52780357Y-99572142D02*
X52780357Y-98972142D01*
X52780357Y-98672142D02*
X52737500Y-98715000D01*
X52780357Y-98757857D01*
X52823214Y-98715000D01*
X52780357Y-98672142D01*
X52780357Y-98757857D01*
X53594642Y-99529285D02*
X53508928Y-99572142D01*
X53337500Y-99572142D01*
X53251785Y-99529285D01*
X53208928Y-99486428D01*
X53166071Y-99400714D01*
X53166071Y-99143571D01*
X53208928Y-99057857D01*
X53251785Y-99015000D01*
X53337500Y-98972142D01*
X53508928Y-98972142D01*
X53594642Y-99015000D01*
X53980357Y-99572142D02*
X53980357Y-98672142D01*
X54366071Y-99572142D02*
X54366071Y-99100714D01*
X54323214Y-99015000D01*
X54237500Y-98972142D01*
X54108928Y-98972142D01*
X54023214Y-99015000D01*
X53980357Y-99057857D01*
X55180357Y-99572142D02*
X55180357Y-99100714D01*
X55137500Y-99015000D01*
X55051785Y-98972142D01*
X54880357Y-98972142D01*
X54794642Y-99015000D01*
X55180357Y-99529285D02*
X55094642Y-99572142D01*
X54880357Y-99572142D01*
X54794642Y-99529285D01*
X54751785Y-99443571D01*
X54751785Y-99357857D01*
X54794642Y-99272142D01*
X54880357Y-99229285D01*
X55094642Y-99229285D01*
X55180357Y-99186428D01*
X55951785Y-99529285D02*
X55866071Y-99572142D01*
X55694642Y-99572142D01*
X55608928Y-99529285D01*
X55566071Y-99443571D01*
X55566071Y-99100714D01*
X55608928Y-99015000D01*
X55694642Y-98972142D01*
X55866071Y-98972142D01*
X55951785Y-99015000D01*
X55994642Y-99100714D01*
X55994642Y-99186428D01*
X55566071Y-99272142D01*
X56508928Y-99572142D02*
X56423214Y-99529285D01*
X56380357Y-99443571D01*
X56380357Y-98672142D01*
X57408928Y-99143571D02*
X57366071Y-99100714D01*
X57280357Y-99057857D01*
X57194642Y-99057857D01*
X57108928Y-99100714D01*
X57066071Y-99143571D01*
X57023214Y-99229285D01*
X57023214Y-99315000D01*
X57066071Y-99400714D01*
X57108928Y-99443571D01*
X57194642Y-99486428D01*
X57280357Y-99486428D01*
X57366071Y-99443571D01*
X57408928Y-99400714D01*
X57408928Y-99057857D02*
X57408928Y-99400714D01*
X57451785Y-99443571D01*
X57494642Y-99443571D01*
X57580357Y-99400714D01*
X57623214Y-99315000D01*
X57623214Y-99100714D01*
X57537500Y-98972142D01*
X57408928Y-98886428D01*
X57237500Y-98843571D01*
X57066071Y-98886428D01*
X56937500Y-98972142D01*
X56851785Y-99100714D01*
X56808928Y-99272142D01*
X56851785Y-99443571D01*
X56937500Y-99572142D01*
X57066071Y-99657857D01*
X57237500Y-99700714D01*
X57408928Y-99657857D01*
X57537500Y-99572142D01*
X57923214Y-98972142D02*
X58094642Y-99572142D01*
X58266071Y-99143571D01*
X58437500Y-99572142D01*
X58608928Y-98972142D01*
X59337500Y-99572142D02*
X59337500Y-99100714D01*
X59294642Y-99015000D01*
X59208928Y-98972142D01*
X59037500Y-98972142D01*
X58951785Y-99015000D01*
X59337500Y-99529285D02*
X59251785Y-99572142D01*
X59037500Y-99572142D01*
X58951785Y-99529285D01*
X58908928Y-99443571D01*
X58908928Y-99357857D01*
X58951785Y-99272142D01*
X59037500Y-99229285D01*
X59251785Y-99229285D01*
X59337500Y-99186428D01*
X59894642Y-99572142D02*
X59808928Y-99529285D01*
X59766071Y-99443571D01*
X59766071Y-98672142D01*
X60366071Y-99572142D02*
X60280357Y-99529285D01*
X60237500Y-99443571D01*
X60237500Y-98672142D01*
X61051785Y-99529285D02*
X60966071Y-99572142D01*
X60794642Y-99572142D01*
X60708928Y-99529285D01*
X60666071Y-99443571D01*
X60666071Y-99100714D01*
X60708928Y-99015000D01*
X60794642Y-98972142D01*
X60966071Y-98972142D01*
X61051785Y-99015000D01*
X61094642Y-99100714D01*
X61094642Y-99186428D01*
X60666071Y-99272142D01*
X61480357Y-99486428D02*
X61523214Y-99529285D01*
X61480357Y-99572142D01*
X61437499Y-99529285D01*
X61480357Y-99486428D01*
X61480357Y-99572142D01*
X62294642Y-99529285D02*
X62208928Y-99572142D01*
X62037500Y-99572142D01*
X61951785Y-99529285D01*
X61908928Y-99486428D01*
X61866071Y-99400714D01*
X61866071Y-99143571D01*
X61908928Y-99057857D01*
X61951785Y-99015000D01*
X62037500Y-98972142D01*
X62208928Y-98972142D01*
X62294642Y-99015000D01*
X63066071Y-99529285D02*
X62980357Y-99572142D01*
X62808928Y-99572142D01*
X62723214Y-99529285D01*
X62680357Y-99486428D01*
X62637499Y-99400714D01*
X62637499Y-99143571D01*
X62680357Y-99057857D01*
X62723214Y-99015000D01*
X62808928Y-98972142D01*
X62980357Y-98972142D01*
X63066071Y-99015000D01*
X56294642Y-101072142D02*
X56294642Y-100472142D01*
X56294642Y-100557857D02*
X56337500Y-100515000D01*
X56423214Y-100472142D01*
X56551785Y-100472142D01*
X56637500Y-100515000D01*
X56680357Y-100600714D01*
X56680357Y-101072142D01*
X56680357Y-100600714D02*
X56723214Y-100515000D01*
X56808928Y-100472142D01*
X56937500Y-100472142D01*
X57023214Y-100515000D01*
X57066071Y-100600714D01*
X57066071Y-101072142D01*
X57494642Y-101072142D02*
X57494642Y-100472142D01*
X57494642Y-100172142D02*
X57451785Y-100215000D01*
X57494642Y-100257857D01*
X57537500Y-100215000D01*
X57494642Y-100172142D01*
X57494642Y-100257857D01*
X57923214Y-100472142D02*
X57923214Y-101072142D01*
X57923214Y-100557857D02*
X57966071Y-100515000D01*
X58051785Y-100472142D01*
X58180357Y-100472142D01*
X58266071Y-100515000D01*
X58308928Y-100600714D01*
X58308928Y-101072142D01*
X58737500Y-101072142D02*
X58737500Y-100472142D01*
X58737500Y-100172142D02*
X58694642Y-100215000D01*
X58737500Y-100257857D01*
X58780357Y-100215000D01*
X58737500Y-100172142D01*
X58737500Y-100257857D01*
X59166071Y-100472142D02*
X59166071Y-101372142D01*
X59166071Y-100515000D02*
X59251785Y-100472142D01*
X59423214Y-100472142D01*
X59508928Y-100515000D01*
X59551785Y-100557857D01*
X59594642Y-100643571D01*
X59594642Y-100900714D01*
X59551785Y-100986428D01*
X59508928Y-101029285D01*
X59423214Y-101072142D01*
X59251785Y-101072142D01*
X59166071Y-101029285D01*
X59980357Y-101072142D02*
X59980357Y-100472142D01*
X59980357Y-100172142D02*
X59937500Y-100215000D01*
X59980357Y-100257857D01*
X60023214Y-100215000D01*
X59980357Y-100172142D01*
X59980357Y-100257857D01*
X60794642Y-101072142D02*
X60794642Y-100172142D01*
X60794642Y-101029285D02*
X60708928Y-101072142D01*
X60537500Y-101072142D01*
X60451785Y-101029285D01*
X60408928Y-100986428D01*
X60366071Y-100900714D01*
X60366071Y-100643571D01*
X60408928Y-100557857D01*
X60451785Y-100515000D01*
X60537500Y-100472142D01*
X60708928Y-100472142D01*
X60794642Y-100515000D01*
X61823214Y-100472142D02*
X62037500Y-101072142D01*
X62251785Y-100472142D01*
X63066071Y-101072142D02*
X62551785Y-101072142D01*
X62808928Y-101072142D02*
X62808928Y-100172142D01*
X62723214Y-100300714D01*
X62637500Y-100386428D01*
X62551785Y-100429285D01*
D11*
G04 #@! TO.C,TR1*
X61890000Y-142030000D02*
X61890000Y-119790000D01*
X61890000Y-142030000D02*
X86130000Y-142030000D01*
X86130000Y-119790000D02*
X61890000Y-119790000D01*
X86130000Y-119790000D02*
X86130000Y-142030000D01*
X68010000Y-138410000D02*
X86130000Y-138410000D01*
X68010000Y-123410000D02*
X86130000Y-123410000D01*
X61890000Y-138410000D02*
X63010000Y-138410000D01*
X61890000Y-123410000D02*
X63010000Y-123410000D01*
D10*
G04 #@! TO.C,HS1*
X69051000Y-104485000D02*
X88351000Y-104485000D01*
X69051000Y-91535000D02*
X69051000Y-104485000D01*
X88351000Y-104485000D02*
X88351000Y-91535000D01*
X88351000Y-91535000D02*
X69051000Y-91535000D01*
D11*
G04 #@! TO.C,D1*
X90410000Y-143090000D02*
X92180000Y-143090000D01*
X90410000Y-134490000D02*
X90410000Y-143090000D01*
X95950000Y-134490000D02*
X90410000Y-134490000D01*
X95950000Y-143090000D02*
X95950000Y-134490000D01*
X94180000Y-143090000D02*
X95950000Y-143090000D01*
X92180000Y-143090000D02*
G75*
G02X94180000Y-143090000I1000000J0D01*
G01*
G04 #@! TO.C,D2*
X68930000Y-92890000D02*
X68930000Y-103130000D01*
X84820000Y-92890000D02*
X84820000Y-103130000D01*
X84820000Y-92890000D02*
X68930000Y-92890000D01*
X84820000Y-103130000D02*
X68930000Y-103130000D01*
X68930000Y-95470000D02*
X66390000Y-95470000D01*
X68930000Y-98010000D02*
X66390000Y-98010000D01*
X68930000Y-100550000D02*
X66390000Y-100550000D01*
G04 #@! TO.C,U2*
X101490000Y-120340000D02*
X101490000Y-123940000D01*
X101501522Y-120301522D02*
G75*
G02X105940000Y-122140000I1838478J-1838478D01*
G01*
X101501522Y-123978478D02*
G75*
G03X105940000Y-122140000I1838478J1838478D01*
G01*
G04 #@! TO.C,U3*
X70590000Y-115850000D02*
G75*
G02X72590000Y-115850000I1000000J0D01*
G01*
X72590000Y-115850000D02*
X74240000Y-115850000D01*
X74240000Y-115850000D02*
X74240000Y-108110000D01*
X74240000Y-108110000D02*
X68940000Y-108110000D01*
X68940000Y-108110000D02*
X68940000Y-115850000D01*
X68940000Y-115850000D02*
X70590000Y-115850000D01*
G04 #@! TO.C,U1*
X92180000Y-127280000D02*
G75*
G02X94180000Y-127280000I1000000J0D01*
G01*
X94180000Y-127280000D02*
X95830000Y-127280000D01*
X95830000Y-127280000D02*
X95830000Y-117000000D01*
X95830000Y-117000000D02*
X90530000Y-117000000D01*
X90530000Y-117000000D02*
X90530000Y-127280000D01*
X90530000Y-127280000D02*
X92180000Y-127280000D01*
G04 #@! TO.C,C3*
X98990000Y-110690000D02*
G75*
G03X98990000Y-110690000I-3270000J0D01*
G01*
X98950000Y-110690000D02*
X92490000Y-110690000D01*
X98950000Y-110730000D02*
X92490000Y-110730000D01*
X98950000Y-110770000D02*
X92490000Y-110770000D01*
X98948000Y-110810000D02*
X92492000Y-110810000D01*
X98947000Y-110850000D02*
X92493000Y-110850000D01*
X98944000Y-110890000D02*
X92496000Y-110890000D01*
X98942000Y-110930000D02*
X96760000Y-110930000D01*
X94680000Y-110930000D02*
X92498000Y-110930000D01*
X98938000Y-110970000D02*
X96760000Y-110970000D01*
X94680000Y-110970000D02*
X92502000Y-110970000D01*
X98935000Y-111010000D02*
X96760000Y-111010000D01*
X94680000Y-111010000D02*
X92505000Y-111010000D01*
X98931000Y-111050000D02*
X96760000Y-111050000D01*
X94680000Y-111050000D02*
X92509000Y-111050000D01*
X98926000Y-111090000D02*
X96760000Y-111090000D01*
X94680000Y-111090000D02*
X92514000Y-111090000D01*
X98921000Y-111130000D02*
X96760000Y-111130000D01*
X94680000Y-111130000D02*
X92519000Y-111130000D01*
X98915000Y-111170000D02*
X96760000Y-111170000D01*
X94680000Y-111170000D02*
X92525000Y-111170000D01*
X98909000Y-111210000D02*
X96760000Y-111210000D01*
X94680000Y-111210000D02*
X92531000Y-111210000D01*
X98902000Y-111250000D02*
X96760000Y-111250000D01*
X94680000Y-111250000D02*
X92538000Y-111250000D01*
X98895000Y-111290000D02*
X96760000Y-111290000D01*
X94680000Y-111290000D02*
X92545000Y-111290000D01*
X98887000Y-111330000D02*
X96760000Y-111330000D01*
X94680000Y-111330000D02*
X92553000Y-111330000D01*
X98879000Y-111370000D02*
X96760000Y-111370000D01*
X94680000Y-111370000D02*
X92561000Y-111370000D01*
X98870000Y-111411000D02*
X96760000Y-111411000D01*
X94680000Y-111411000D02*
X92570000Y-111411000D01*
X98861000Y-111451000D02*
X96760000Y-111451000D01*
X94680000Y-111451000D02*
X92579000Y-111451000D01*
X98851000Y-111491000D02*
X96760000Y-111491000D01*
X94680000Y-111491000D02*
X92589000Y-111491000D01*
X98841000Y-111531000D02*
X96760000Y-111531000D01*
X94680000Y-111531000D02*
X92599000Y-111531000D01*
X98830000Y-111571000D02*
X96760000Y-111571000D01*
X94680000Y-111571000D02*
X92610000Y-111571000D01*
X98818000Y-111611000D02*
X96760000Y-111611000D01*
X94680000Y-111611000D02*
X92622000Y-111611000D01*
X98806000Y-111651000D02*
X96760000Y-111651000D01*
X94680000Y-111651000D02*
X92634000Y-111651000D01*
X98794000Y-111691000D02*
X96760000Y-111691000D01*
X94680000Y-111691000D02*
X92646000Y-111691000D01*
X98781000Y-111731000D02*
X96760000Y-111731000D01*
X94680000Y-111731000D02*
X92659000Y-111731000D01*
X98767000Y-111771000D02*
X96760000Y-111771000D01*
X94680000Y-111771000D02*
X92673000Y-111771000D01*
X98753000Y-111811000D02*
X96760000Y-111811000D01*
X94680000Y-111811000D02*
X92687000Y-111811000D01*
X98738000Y-111851000D02*
X96760000Y-111851000D01*
X94680000Y-111851000D02*
X92702000Y-111851000D01*
X98722000Y-111891000D02*
X96760000Y-111891000D01*
X94680000Y-111891000D02*
X92718000Y-111891000D01*
X98706000Y-111931000D02*
X96760000Y-111931000D01*
X94680000Y-111931000D02*
X92734000Y-111931000D01*
X98690000Y-111971000D02*
X96760000Y-111971000D01*
X94680000Y-111971000D02*
X92750000Y-111971000D01*
X98672000Y-112011000D02*
X96760000Y-112011000D01*
X94680000Y-112011000D02*
X92768000Y-112011000D01*
X98654000Y-112051000D02*
X96760000Y-112051000D01*
X94680000Y-112051000D02*
X92786000Y-112051000D01*
X98636000Y-112091000D02*
X96760000Y-112091000D01*
X94680000Y-112091000D02*
X92804000Y-112091000D01*
X98616000Y-112131000D02*
X96760000Y-112131000D01*
X94680000Y-112131000D02*
X92824000Y-112131000D01*
X98596000Y-112171000D02*
X96760000Y-112171000D01*
X94680000Y-112171000D02*
X92844000Y-112171000D01*
X98576000Y-112211000D02*
X96760000Y-112211000D01*
X94680000Y-112211000D02*
X92864000Y-112211000D01*
X98554000Y-112251000D02*
X96760000Y-112251000D01*
X94680000Y-112251000D02*
X92886000Y-112251000D01*
X98532000Y-112291000D02*
X96760000Y-112291000D01*
X94680000Y-112291000D02*
X92908000Y-112291000D01*
X98510000Y-112331000D02*
X96760000Y-112331000D01*
X94680000Y-112331000D02*
X92930000Y-112331000D01*
X98486000Y-112371000D02*
X96760000Y-112371000D01*
X94680000Y-112371000D02*
X92954000Y-112371000D01*
X98462000Y-112411000D02*
X96760000Y-112411000D01*
X94680000Y-112411000D02*
X92978000Y-112411000D01*
X98436000Y-112451000D02*
X96760000Y-112451000D01*
X94680000Y-112451000D02*
X93004000Y-112451000D01*
X98410000Y-112491000D02*
X96760000Y-112491000D01*
X94680000Y-112491000D02*
X93030000Y-112491000D01*
X98384000Y-112531000D02*
X96760000Y-112531000D01*
X94680000Y-112531000D02*
X93056000Y-112531000D01*
X98356000Y-112571000D02*
X96760000Y-112571000D01*
X94680000Y-112571000D02*
X93084000Y-112571000D01*
X98327000Y-112611000D02*
X96760000Y-112611000D01*
X94680000Y-112611000D02*
X93113000Y-112611000D01*
X98298000Y-112651000D02*
X96760000Y-112651000D01*
X94680000Y-112651000D02*
X93142000Y-112651000D01*
X98268000Y-112691000D02*
X96760000Y-112691000D01*
X94680000Y-112691000D02*
X93172000Y-112691000D01*
X98236000Y-112731000D02*
X96760000Y-112731000D01*
X94680000Y-112731000D02*
X93204000Y-112731000D01*
X98204000Y-112771000D02*
X96760000Y-112771000D01*
X94680000Y-112771000D02*
X93236000Y-112771000D01*
X98170000Y-112811000D02*
X96760000Y-112811000D01*
X94680000Y-112811000D02*
X93270000Y-112811000D01*
X98136000Y-112851000D02*
X96760000Y-112851000D01*
X94680000Y-112851000D02*
X93304000Y-112851000D01*
X98100000Y-112891000D02*
X96760000Y-112891000D01*
X94680000Y-112891000D02*
X93340000Y-112891000D01*
X98063000Y-112931000D02*
X96760000Y-112931000D01*
X94680000Y-112931000D02*
X93377000Y-112931000D01*
X98025000Y-112971000D02*
X96760000Y-112971000D01*
X94680000Y-112971000D02*
X93415000Y-112971000D01*
X97985000Y-113011000D02*
X93455000Y-113011000D01*
X97944000Y-113051000D02*
X93496000Y-113051000D01*
X97902000Y-113091000D02*
X93538000Y-113091000D01*
X97857000Y-113131000D02*
X93583000Y-113131000D01*
X97812000Y-113171000D02*
X93628000Y-113171000D01*
X97764000Y-113211000D02*
X93676000Y-113211000D01*
X97715000Y-113251000D02*
X93725000Y-113251000D01*
X97664000Y-113291000D02*
X93776000Y-113291000D01*
X97610000Y-113331000D02*
X93830000Y-113331000D01*
X97554000Y-113371000D02*
X93886000Y-113371000D01*
X97496000Y-113411000D02*
X93944000Y-113411000D01*
X97434000Y-113451000D02*
X94006000Y-113451000D01*
X97370000Y-113491000D02*
X94070000Y-113491000D01*
X97301000Y-113531000D02*
X94139000Y-113531000D01*
X97229000Y-113571000D02*
X94211000Y-113571000D01*
X97152000Y-113611000D02*
X94288000Y-113611000D01*
X97070000Y-113651000D02*
X94370000Y-113651000D01*
X96982000Y-113691000D02*
X94458000Y-113691000D01*
X96885000Y-113731000D02*
X94555000Y-113731000D01*
X96779000Y-113771000D02*
X94661000Y-113771000D01*
X96660000Y-113811000D02*
X94780000Y-113811000D01*
X96522000Y-113851000D02*
X94918000Y-113851000D01*
X96353000Y-113891000D02*
X95087000Y-113891000D01*
X96122000Y-113931000D02*
X95318000Y-113931000D01*
X97559000Y-107189759D02*
X97559000Y-107819759D01*
X97874000Y-107504759D02*
X97244000Y-107504759D01*
G04 #@! TO.C,C2*
X107460000Y-131510000D02*
G75*
G03X107460000Y-131510000I-4120000J0D01*
G01*
X107420000Y-131510000D02*
X99260000Y-131510000D01*
X107420000Y-131550000D02*
X99260000Y-131550000D01*
X107420000Y-131590000D02*
X99260000Y-131590000D01*
X107419000Y-131630000D02*
X99261000Y-131630000D01*
X107417000Y-131670000D02*
X99263000Y-131670000D01*
X107416000Y-131710000D02*
X99264000Y-131710000D01*
X107414000Y-131750000D02*
X99266000Y-131750000D01*
X107411000Y-131790000D02*
X99269000Y-131790000D01*
X107408000Y-131830000D02*
X99272000Y-131830000D01*
X107405000Y-131870000D02*
X99275000Y-131870000D01*
X107401000Y-131910000D02*
X99279000Y-131910000D01*
X107397000Y-131950000D02*
X99283000Y-131950000D01*
X107392000Y-131990000D02*
X99288000Y-131990000D01*
X107388000Y-132030000D02*
X99292000Y-132030000D01*
X107382000Y-132070000D02*
X99298000Y-132070000D01*
X107377000Y-132110000D02*
X99303000Y-132110000D01*
X107370000Y-132150000D02*
X99310000Y-132150000D01*
X107364000Y-132190000D02*
X99316000Y-132190000D01*
X107357000Y-132231000D02*
X104380000Y-132231000D01*
X102300000Y-132231000D02*
X99323000Y-132231000D01*
X107350000Y-132271000D02*
X104380000Y-132271000D01*
X102300000Y-132271000D02*
X99330000Y-132271000D01*
X107342000Y-132311000D02*
X104380000Y-132311000D01*
X102300000Y-132311000D02*
X99338000Y-132311000D01*
X107334000Y-132351000D02*
X104380000Y-132351000D01*
X102300000Y-132351000D02*
X99346000Y-132351000D01*
X107325000Y-132391000D02*
X104380000Y-132391000D01*
X102300000Y-132391000D02*
X99355000Y-132391000D01*
X107316000Y-132431000D02*
X104380000Y-132431000D01*
X102300000Y-132431000D02*
X99364000Y-132431000D01*
X107307000Y-132471000D02*
X104380000Y-132471000D01*
X102300000Y-132471000D02*
X99373000Y-132471000D01*
X107297000Y-132511000D02*
X104380000Y-132511000D01*
X102300000Y-132511000D02*
X99383000Y-132511000D01*
X107287000Y-132551000D02*
X104380000Y-132551000D01*
X102300000Y-132551000D02*
X99393000Y-132551000D01*
X107276000Y-132591000D02*
X104380000Y-132591000D01*
X102300000Y-132591000D02*
X99404000Y-132591000D01*
X107265000Y-132631000D02*
X104380000Y-132631000D01*
X102300000Y-132631000D02*
X99415000Y-132631000D01*
X107254000Y-132671000D02*
X104380000Y-132671000D01*
X102300000Y-132671000D02*
X99426000Y-132671000D01*
X107242000Y-132711000D02*
X104380000Y-132711000D01*
X102300000Y-132711000D02*
X99438000Y-132711000D01*
X107229000Y-132751000D02*
X104380000Y-132751000D01*
X102300000Y-132751000D02*
X99451000Y-132751000D01*
X107217000Y-132791000D02*
X104380000Y-132791000D01*
X102300000Y-132791000D02*
X99463000Y-132791000D01*
X107203000Y-132831000D02*
X104380000Y-132831000D01*
X102300000Y-132831000D02*
X99477000Y-132831000D01*
X107190000Y-132871000D02*
X104380000Y-132871000D01*
X102300000Y-132871000D02*
X99490000Y-132871000D01*
X107175000Y-132911000D02*
X104380000Y-132911000D01*
X102300000Y-132911000D02*
X99505000Y-132911000D01*
X107161000Y-132951000D02*
X104380000Y-132951000D01*
X102300000Y-132951000D02*
X99519000Y-132951000D01*
X107145000Y-132991000D02*
X104380000Y-132991000D01*
X102300000Y-132991000D02*
X99535000Y-132991000D01*
X107130000Y-133031000D02*
X104380000Y-133031000D01*
X102300000Y-133031000D02*
X99550000Y-133031000D01*
X107114000Y-133071000D02*
X104380000Y-133071000D01*
X102300000Y-133071000D02*
X99566000Y-133071000D01*
X107097000Y-133111000D02*
X104380000Y-133111000D01*
X102300000Y-133111000D02*
X99583000Y-133111000D01*
X107080000Y-133151000D02*
X104380000Y-133151000D01*
X102300000Y-133151000D02*
X99600000Y-133151000D01*
X107062000Y-133191000D02*
X104380000Y-133191000D01*
X102300000Y-133191000D02*
X99618000Y-133191000D01*
X107044000Y-133231000D02*
X104380000Y-133231000D01*
X102300000Y-133231000D02*
X99636000Y-133231000D01*
X107026000Y-133271000D02*
X104380000Y-133271000D01*
X102300000Y-133271000D02*
X99654000Y-133271000D01*
X107006000Y-133311000D02*
X104380000Y-133311000D01*
X102300000Y-133311000D02*
X99674000Y-133311000D01*
X106987000Y-133351000D02*
X104380000Y-133351000D01*
X102300000Y-133351000D02*
X99693000Y-133351000D01*
X106967000Y-133391000D02*
X104380000Y-133391000D01*
X102300000Y-133391000D02*
X99713000Y-133391000D01*
X106946000Y-133431000D02*
X104380000Y-133431000D01*
X102300000Y-133431000D02*
X99734000Y-133431000D01*
X106924000Y-133471000D02*
X104380000Y-133471000D01*
X102300000Y-133471000D02*
X99756000Y-133471000D01*
X106902000Y-133511000D02*
X104380000Y-133511000D01*
X102300000Y-133511000D02*
X99778000Y-133511000D01*
X106880000Y-133551000D02*
X104380000Y-133551000D01*
X102300000Y-133551000D02*
X99800000Y-133551000D01*
X106857000Y-133591000D02*
X104380000Y-133591000D01*
X102300000Y-133591000D02*
X99823000Y-133591000D01*
X106833000Y-133631000D02*
X104380000Y-133631000D01*
X102300000Y-133631000D02*
X99847000Y-133631000D01*
X106809000Y-133671000D02*
X104380000Y-133671000D01*
X102300000Y-133671000D02*
X99871000Y-133671000D01*
X106784000Y-133711000D02*
X104380000Y-133711000D01*
X102300000Y-133711000D02*
X99896000Y-133711000D01*
X106758000Y-133751000D02*
X104380000Y-133751000D01*
X102300000Y-133751000D02*
X99922000Y-133751000D01*
X106732000Y-133791000D02*
X104380000Y-133791000D01*
X102300000Y-133791000D02*
X99948000Y-133791000D01*
X106705000Y-133831000D02*
X104380000Y-133831000D01*
X102300000Y-133831000D02*
X99975000Y-133831000D01*
X106678000Y-133871000D02*
X104380000Y-133871000D01*
X102300000Y-133871000D02*
X100002000Y-133871000D01*
X106649000Y-133911000D02*
X104380000Y-133911000D01*
X102300000Y-133911000D02*
X100031000Y-133911000D01*
X106620000Y-133951000D02*
X104380000Y-133951000D01*
X102300000Y-133951000D02*
X100060000Y-133951000D01*
X106590000Y-133991000D02*
X104380000Y-133991000D01*
X102300000Y-133991000D02*
X100090000Y-133991000D01*
X106560000Y-134031000D02*
X104380000Y-134031000D01*
X102300000Y-134031000D02*
X100120000Y-134031000D01*
X106529000Y-134071000D02*
X104380000Y-134071000D01*
X102300000Y-134071000D02*
X100151000Y-134071000D01*
X106496000Y-134111000D02*
X104380000Y-134111000D01*
X102300000Y-134111000D02*
X100184000Y-134111000D01*
X106464000Y-134151000D02*
X104380000Y-134151000D01*
X102300000Y-134151000D02*
X100216000Y-134151000D01*
X106430000Y-134191000D02*
X104380000Y-134191000D01*
X102300000Y-134191000D02*
X100250000Y-134191000D01*
X106395000Y-134231000D02*
X104380000Y-134231000D01*
X102300000Y-134231000D02*
X100285000Y-134231000D01*
X106359000Y-134271000D02*
X104380000Y-134271000D01*
X102300000Y-134271000D02*
X100321000Y-134271000D01*
X106323000Y-134311000D02*
X100357000Y-134311000D01*
X106285000Y-134351000D02*
X100395000Y-134351000D01*
X106247000Y-134391000D02*
X100433000Y-134391000D01*
X106207000Y-134431000D02*
X100473000Y-134431000D01*
X106166000Y-134471000D02*
X100514000Y-134471000D01*
X106124000Y-134511000D02*
X100556000Y-134511000D01*
X106081000Y-134551000D02*
X100599000Y-134551000D01*
X106037000Y-134591000D02*
X100643000Y-134591000D01*
X105991000Y-134631000D02*
X100689000Y-134631000D01*
X105944000Y-134671000D02*
X100736000Y-134671000D01*
X105896000Y-134711000D02*
X100784000Y-134711000D01*
X105845000Y-134751000D02*
X100835000Y-134751000D01*
X105794000Y-134791000D02*
X100886000Y-134791000D01*
X105740000Y-134831000D02*
X100940000Y-134831000D01*
X105685000Y-134871000D02*
X100995000Y-134871000D01*
X105627000Y-134911000D02*
X101053000Y-134911000D01*
X105568000Y-134951000D02*
X101112000Y-134951000D01*
X105506000Y-134991000D02*
X101174000Y-134991000D01*
X105442000Y-135031000D02*
X101238000Y-135031000D01*
X105374000Y-135071000D02*
X101306000Y-135071000D01*
X105304000Y-135111000D02*
X101376000Y-135111000D01*
X105230000Y-135151000D02*
X101450000Y-135151000D01*
X105153000Y-135191000D02*
X101527000Y-135191000D01*
X105071000Y-135231000D02*
X101609000Y-135231000D01*
X104985000Y-135271000D02*
X101695000Y-135271000D01*
X104892000Y-135311000D02*
X101788000Y-135311000D01*
X104793000Y-135351000D02*
X101887000Y-135351000D01*
X104686000Y-135391000D02*
X101994000Y-135391000D01*
X104569000Y-135431000D02*
X102111000Y-135431000D01*
X104438000Y-135471000D02*
X102242000Y-135471000D01*
X104288000Y-135511000D02*
X102392000Y-135511000D01*
X104108000Y-135551000D02*
X102572000Y-135551000D01*
X103873000Y-135591000D02*
X102807000Y-135591000D01*
X105655000Y-127100302D02*
X105655000Y-127900302D01*
X106055000Y-127500302D02*
X105255000Y-127500302D01*
G04 #@! TO.C,C1*
X90950000Y-128690000D02*
X95490000Y-128690000D01*
X90950000Y-130830000D02*
X95490000Y-130830000D01*
X90950000Y-128690000D02*
X90950000Y-128705000D01*
X90950000Y-130815000D02*
X90950000Y-130830000D01*
X95490000Y-128690000D02*
X95490000Y-128705000D01*
X95490000Y-130815000D02*
X95490000Y-130830000D01*
G04 #@! TO.C,R1*
X88330000Y-113250000D02*
X87560000Y-113250000D01*
X80250000Y-113250000D02*
X81020000Y-113250000D01*
X87560000Y-111880000D02*
X81020000Y-111880000D01*
X87560000Y-114620000D02*
X87560000Y-111880000D01*
X81020000Y-114620000D02*
X87560000Y-114620000D01*
X81020000Y-111880000D02*
X81020000Y-114620000D01*
G04 #@! TO.C,R3*
X87560000Y-110810000D02*
X87560000Y-108070000D01*
X87560000Y-108070000D02*
X81020000Y-108070000D01*
X81020000Y-108070000D02*
X81020000Y-110810000D01*
X81020000Y-110810000D02*
X87560000Y-110810000D01*
X88330000Y-109440000D02*
X87560000Y-109440000D01*
X80250000Y-109440000D02*
X81020000Y-109440000D01*
G04 #@! TO.C,J1*
X53126648Y-116358712D02*
G75*
G02X52930000Y-115570000I1483352J788712D01*
G01*
X55399088Y-117053953D02*
G75*
G02X53821000Y-117054000I-789088J1483953D01*
G01*
X56093953Y-114780912D02*
G75*
G02X56094000Y-116359000I-1483953J-789088D01*
G01*
X53820912Y-114086047D02*
G75*
G02X55399000Y-114086000I789088J-1483953D01*
G01*
X52929550Y-115599383D02*
G75*
G02X53126000Y-114781000I1680450J29383D01*
G01*
X58510000Y-115570000D02*
G75*
G03X58510000Y-115570000I-900000J0D01*
G01*
X56290000Y-120570000D02*
G75*
G03X56290000Y-120570000I-1680000J0D01*
G01*
X58510000Y-120570000D02*
G75*
G03X58510000Y-120570000I-900000J0D01*
G01*
X52110000Y-113010000D02*
X52110000Y-123130000D01*
X59670000Y-113010000D02*
X59670000Y-123130000D01*
X50550000Y-113010000D02*
X50550000Y-123130000D01*
X59670000Y-113010000D02*
X50550000Y-113010000D01*
X59670000Y-123130000D02*
X50550000Y-123130000D01*
X55679000Y-121845000D02*
X55586000Y-121751000D01*
X53394000Y-119560000D02*
X53336000Y-119501000D01*
X55885000Y-121640000D02*
X55826000Y-121581000D01*
X53634000Y-119390000D02*
X53541000Y-119296000D01*
X52050000Y-112770000D02*
X50310000Y-112770000D01*
X50310000Y-112770000D02*
X50310000Y-114270000D01*
G04 #@! TO.C,J2*
X50310000Y-102610000D02*
X50310000Y-104110000D01*
X52050000Y-102610000D02*
X50310000Y-102610000D01*
X53634000Y-109230000D02*
X53541000Y-109136000D01*
X55885000Y-111480000D02*
X55826000Y-111421000D01*
X53394000Y-109400000D02*
X53336000Y-109341000D01*
X55679000Y-111685000D02*
X55586000Y-111591000D01*
X59670000Y-112970000D02*
X50550000Y-112970000D01*
X59670000Y-102850000D02*
X50550000Y-102850000D01*
X50550000Y-102850000D02*
X50550000Y-112970000D01*
X59670000Y-102850000D02*
X59670000Y-112970000D01*
X52110000Y-102850000D02*
X52110000Y-112970000D01*
X58510000Y-110410000D02*
G75*
G03X58510000Y-110410000I-900000J0D01*
G01*
X56290000Y-110410000D02*
G75*
G03X56290000Y-110410000I-1680000J0D01*
G01*
X58510000Y-105410000D02*
G75*
G03X58510000Y-105410000I-900000J0D01*
G01*
X52929550Y-105439383D02*
G75*
G02X53126000Y-104621000I1680450J29383D01*
G01*
X53820912Y-103926047D02*
G75*
G02X55399000Y-103926000I789088J-1483953D01*
G01*
X56093953Y-104620912D02*
G75*
G02X56094000Y-106199000I-1483953J-789088D01*
G01*
X55399088Y-106893953D02*
G75*
G02X53821000Y-106894000I-789088J1483953D01*
G01*
X53126648Y-106198712D02*
G75*
G02X52930000Y-105410000I1483352J788712D01*
G01*
G04 #@! TO.C,J3*
X107363352Y-112381288D02*
G75*
G02X107560000Y-113170000I-1483352J-788712D01*
G01*
X105090912Y-111686047D02*
G75*
G02X106669000Y-111686000I789088J-1483953D01*
G01*
X104396047Y-113959088D02*
G75*
G02X104396000Y-112381000I1483953J789088D01*
G01*
X106669088Y-114653953D02*
G75*
G02X105091000Y-114654000I-789088J1483953D01*
G01*
X107560450Y-113140617D02*
G75*
G02X107364000Y-113959000I-1680450J-29383D01*
G01*
X103780000Y-113170000D02*
G75*
G03X103780000Y-113170000I-900000J0D01*
G01*
X107560000Y-108170000D02*
G75*
G03X107560000Y-108170000I-1680000J0D01*
G01*
X103780000Y-108170000D02*
G75*
G03X103780000Y-108170000I-900000J0D01*
G01*
X108380000Y-115730000D02*
X108380000Y-105610000D01*
X100820000Y-115730000D02*
X100820000Y-105610000D01*
X109940000Y-115730000D02*
X109940000Y-105610000D01*
X100820000Y-115730000D02*
X109940000Y-115730000D01*
X100820000Y-105610000D02*
X109940000Y-105610000D01*
X104811000Y-106895000D02*
X104904000Y-106989000D01*
X107096000Y-109180000D02*
X107154000Y-109239000D01*
X104605000Y-107100000D02*
X104664000Y-107159000D01*
X106856000Y-109350000D02*
X106949000Y-109444000D01*
X108440000Y-115970000D02*
X110180000Y-115970000D01*
X110180000Y-115970000D02*
X110180000Y-114470000D01*
G04 #@! TO.C,J4*
X103400000Y-103150000D02*
X103400000Y-100490000D01*
X93180000Y-103150000D02*
X103400000Y-103150000D01*
X93180000Y-100490000D02*
X103400000Y-100490000D01*
X93180000Y-103150000D02*
X93180000Y-100490000D01*
X91910000Y-103150000D02*
X90580000Y-103150000D01*
X90580000Y-103150000D02*
X90580000Y-101820000D01*
G04 #@! TO.C,J5*
X100860000Y-99340000D02*
X100860000Y-96680000D01*
X93180000Y-99340000D02*
X100860000Y-99340000D01*
X93180000Y-96680000D02*
X100860000Y-96680000D01*
X93180000Y-99340000D02*
X93180000Y-96680000D01*
X91910000Y-99340000D02*
X90580000Y-99340000D01*
X90580000Y-99340000D02*
X90580000Y-98010000D01*
G04 #@! TO.C,J6*
X98320000Y-95530000D02*
X98320000Y-92870000D01*
X93180000Y-95530000D02*
X98320000Y-95530000D01*
X93180000Y-92870000D02*
X98320000Y-92870000D01*
X93180000Y-95530000D02*
X93180000Y-92870000D01*
X91910000Y-95530000D02*
X90580000Y-95530000D01*
X90580000Y-95530000D02*
X90580000Y-94200000D01*
G04 #@! TO.C,F1*
X60200000Y-132550000D02*
X60320000Y-132690000D01*
X60320000Y-132690000D02*
X60410000Y-132850000D01*
X60410000Y-132850000D02*
X60460000Y-133100000D01*
X60460000Y-133100000D02*
X60430000Y-133360000D01*
X60430000Y-133360000D02*
X60280000Y-133620000D01*
X60280000Y-133620000D02*
X60060000Y-133790000D01*
X60060000Y-133790000D02*
X59770000Y-133870000D01*
X59770000Y-133870000D02*
X59480000Y-133830000D01*
X59480000Y-133830000D02*
X59300000Y-133750000D01*
X59300000Y-133750000D02*
X59170000Y-133600000D01*
X61100000Y-129770000D02*
G75*
G03X61100000Y-129770000I-4750000J0D01*
G01*
G04 #@! TO.C,R2*
X64070000Y-107440000D02*
X61330000Y-107440000D01*
X61330000Y-107440000D02*
X61330000Y-113980000D01*
X61330000Y-113980000D02*
X64070000Y-113980000D01*
X64070000Y-113980000D02*
X64070000Y-107440000D01*
X62700000Y-106670000D02*
X62700000Y-107440000D01*
X62700000Y-114750000D02*
X62700000Y-113980000D01*
D12*
G04 #@! TO.C,REF\002A\002A*
G36*
X61171964Y-92125018D02*
X61228812Y-92426570D01*
X61648338Y-92599512D01*
X61899984Y-92428395D01*
X61970458Y-92380750D01*
X62034163Y-92338210D01*
X62088126Y-92302715D01*
X62129373Y-92276210D01*
X62154934Y-92260636D01*
X62161895Y-92257278D01*
X62174435Y-92265914D01*
X62201231Y-92289792D01*
X62239280Y-92325859D01*
X62285579Y-92371067D01*
X62337123Y-92422364D01*
X62390909Y-92476701D01*
X62443935Y-92531028D01*
X62493195Y-92582295D01*
X62535687Y-92627451D01*
X62568407Y-92663446D01*
X62588351Y-92687230D01*
X62593119Y-92695190D01*
X62586257Y-92709865D01*
X62567020Y-92742014D01*
X62537430Y-92788492D01*
X62499510Y-92846156D01*
X62455282Y-92911860D01*
X62429654Y-92949336D01*
X62382941Y-93017768D01*
X62341432Y-93079520D01*
X62307140Y-93131519D01*
X62282080Y-93170692D01*
X62268264Y-93193965D01*
X62266188Y-93198855D01*
X62270895Y-93212755D01*
X62283723Y-93245150D01*
X62302738Y-93291485D01*
X62326003Y-93347206D01*
X62351584Y-93407758D01*
X62377545Y-93468586D01*
X62401950Y-93525136D01*
X62422863Y-93572852D01*
X62438349Y-93607181D01*
X62446472Y-93623568D01*
X62446952Y-93624212D01*
X62459707Y-93627341D01*
X62493677Y-93634321D01*
X62545340Y-93644467D01*
X62611176Y-93657092D01*
X62687664Y-93671509D01*
X62732290Y-93679823D01*
X62814021Y-93695384D01*
X62887843Y-93710192D01*
X62950021Y-93723436D01*
X62996822Y-93734305D01*
X63024509Y-93741989D01*
X63030074Y-93744427D01*
X63035526Y-93760930D01*
X63039924Y-93798200D01*
X63043272Y-93851880D01*
X63045574Y-93917612D01*
X63046832Y-93991037D01*
X63047048Y-94067796D01*
X63046227Y-94143532D01*
X63044371Y-94213886D01*
X63041482Y-94274500D01*
X63037565Y-94321016D01*
X63032622Y-94349075D01*
X63029657Y-94354916D01*
X63011934Y-94361917D01*
X62974381Y-94371927D01*
X62921964Y-94383769D01*
X62859652Y-94396267D01*
X62837900Y-94400310D01*
X62733024Y-94419520D01*
X62650180Y-94434991D01*
X62586630Y-94447337D01*
X62539637Y-94457173D01*
X62506463Y-94465114D01*
X62484371Y-94471776D01*
X62470624Y-94477773D01*
X62462484Y-94483719D01*
X62461345Y-94484894D01*
X62449977Y-94503826D01*
X62432635Y-94540669D01*
X62411050Y-94590913D01*
X62386954Y-94650046D01*
X62362079Y-94713556D01*
X62338157Y-94776932D01*
X62316919Y-94835662D01*
X62300097Y-94885235D01*
X62289422Y-94921139D01*
X62286627Y-94938862D01*
X62286860Y-94939483D01*
X62296331Y-94953970D01*
X62317818Y-94985844D01*
X62349063Y-95031789D01*
X62387807Y-95088485D01*
X62431793Y-95152617D01*
X62444319Y-95170842D01*
X62488984Y-95236914D01*
X62528288Y-95297200D01*
X62560088Y-95348235D01*
X62582245Y-95386560D01*
X62592617Y-95408711D01*
X62593119Y-95411432D01*
X62584405Y-95425736D01*
X62560325Y-95454072D01*
X62523976Y-95493396D01*
X62478453Y-95540661D01*
X62426852Y-95592823D01*
X62372267Y-95646835D01*
X62317794Y-95699653D01*
X62266529Y-95748231D01*
X62221567Y-95789523D01*
X62186004Y-95820485D01*
X62162935Y-95838070D01*
X62156554Y-95840941D01*
X62141699Y-95834178D01*
X62111286Y-95815939D01*
X62070268Y-95789297D01*
X62038709Y-95767852D01*
X61981525Y-95728503D01*
X61913806Y-95682171D01*
X61845880Y-95635913D01*
X61809361Y-95611155D01*
X61685752Y-95527547D01*
X61581991Y-95583650D01*
X61534720Y-95608228D01*
X61494523Y-95627331D01*
X61467326Y-95638227D01*
X61460402Y-95639743D01*
X61452077Y-95628549D01*
X61435654Y-95596917D01*
X61412357Y-95547765D01*
X61383414Y-95484010D01*
X61350050Y-95408571D01*
X61313491Y-95324364D01*
X61274964Y-95234308D01*
X61235694Y-95141321D01*
X61196908Y-95048320D01*
X61159830Y-94958223D01*
X61125689Y-94873948D01*
X61095708Y-94798413D01*
X61071116Y-94734534D01*
X61053136Y-94685231D01*
X61042997Y-94653421D01*
X61041366Y-94642496D01*
X61054291Y-94628561D01*
X61082589Y-94605940D01*
X61120346Y-94579333D01*
X61123515Y-94577228D01*
X61221100Y-94499114D01*
X61299786Y-94407982D01*
X61358891Y-94306745D01*
X61397732Y-94198318D01*
X61415628Y-94085614D01*
X61411897Y-93971548D01*
X61385857Y-93859034D01*
X61336825Y-93750985D01*
X61322400Y-93727345D01*
X61247369Y-93631887D01*
X61158730Y-93555232D01*
X61059549Y-93497780D01*
X60952895Y-93459929D01*
X60841836Y-93442078D01*
X60729439Y-93444625D01*
X60618773Y-93467970D01*
X60512906Y-93512510D01*
X60414905Y-93578645D01*
X60384590Y-93605487D01*
X60307438Y-93689512D01*
X60251218Y-93777966D01*
X60212653Y-93877115D01*
X60191174Y-93975303D01*
X60185872Y-94085697D01*
X60203552Y-94196640D01*
X60242419Y-94304381D01*
X60300677Y-94405169D01*
X60376531Y-94495256D01*
X60468183Y-94570892D01*
X60480228Y-94578864D01*
X60518389Y-94604974D01*
X60547399Y-94627595D01*
X60561268Y-94642039D01*
X60561469Y-94642496D01*
X60558492Y-94658121D01*
X60546689Y-94693582D01*
X60527286Y-94745962D01*
X60501512Y-94812345D01*
X60470591Y-94889814D01*
X60435751Y-94975450D01*
X60398217Y-95066337D01*
X60359217Y-95159559D01*
X60319977Y-95252197D01*
X60281724Y-95341335D01*
X60245683Y-95424055D01*
X60213083Y-95497441D01*
X60185148Y-95558575D01*
X60163105Y-95604541D01*
X60148182Y-95632421D01*
X60142172Y-95639743D01*
X60123809Y-95634041D01*
X60089448Y-95618749D01*
X60045016Y-95596599D01*
X60020583Y-95583650D01*
X59916822Y-95527547D01*
X59793213Y-95611155D01*
X59730114Y-95653987D01*
X59661030Y-95701122D01*
X59596293Y-95745503D01*
X59563866Y-95767852D01*
X59518259Y-95798477D01*
X59479640Y-95822747D01*
X59453048Y-95837587D01*
X59444410Y-95840724D01*
X59431839Y-95832261D01*
X59404016Y-95808636D01*
X59363639Y-95772302D01*
X59313405Y-95725711D01*
X59256012Y-95671317D01*
X59219714Y-95636392D01*
X59156210Y-95573996D01*
X59101327Y-95518188D01*
X59057286Y-95471354D01*
X59026305Y-95435882D01*
X59010602Y-95414161D01*
X59009095Y-95409752D01*
X59016086Y-95392985D01*
X59035406Y-95359082D01*
X59064909Y-95311476D01*
X59102455Y-95253599D01*
X59145900Y-95188884D01*
X59158255Y-95170842D01*
X59203273Y-95105267D01*
X59243660Y-95046228D01*
X59277160Y-94997042D01*
X59301514Y-94961028D01*
X59314464Y-94941502D01*
X59315715Y-94939483D01*
X59313844Y-94923922D01*
X59303913Y-94889709D01*
X59287653Y-94841355D01*
X59266795Y-94783371D01*
X59243073Y-94720270D01*
X59218216Y-94656563D01*
X59193958Y-94596761D01*
X59172029Y-94545376D01*
X59154162Y-94506919D01*
X59142087Y-94485902D01*
X59141229Y-94484894D01*
X59133846Y-94478888D01*
X59121375Y-94472948D01*
X59101080Y-94466460D01*
X59070222Y-94458809D01*
X59026066Y-94449380D01*
X58965874Y-94437559D01*
X58886907Y-94422729D01*
X58786430Y-94404277D01*
X58764675Y-94400310D01*
X58700198Y-94387853D01*
X58643989Y-94375666D01*
X58601013Y-94364926D01*
X58576240Y-94356809D01*
X58572918Y-94354916D01*
X58567444Y-94338138D01*
X58562994Y-94300645D01*
X58559572Y-94246794D01*
X58557181Y-94180944D01*
X58555823Y-94107453D01*
X58555501Y-94030680D01*
X58556219Y-93954983D01*
X58557979Y-93884720D01*
X58560784Y-93824250D01*
X58564638Y-93777930D01*
X58569543Y-93750119D01*
X58572500Y-93744427D01*
X58588963Y-93738686D01*
X58626449Y-93729345D01*
X58681225Y-93717215D01*
X58749555Y-93703107D01*
X58827706Y-93687830D01*
X58870284Y-93679823D01*
X58951071Y-93664721D01*
X59023113Y-93651040D01*
X59082889Y-93639467D01*
X59126879Y-93630687D01*
X59151561Y-93625387D01*
X59155623Y-93624212D01*
X59162489Y-93610965D01*
X59177002Y-93579057D01*
X59197229Y-93533047D01*
X59221234Y-93477492D01*
X59247082Y-93416953D01*
X59272840Y-93355986D01*
X59296573Y-93299151D01*
X59316346Y-93251006D01*
X59330224Y-93216110D01*
X59336274Y-93199021D01*
X59336386Y-93198274D01*
X59329528Y-93184793D01*
X59310302Y-93153770D01*
X59280728Y-93108289D01*
X59242827Y-93051432D01*
X59198620Y-92986283D01*
X59172921Y-92948862D01*
X59126093Y-92880247D01*
X59084501Y-92817952D01*
X59050175Y-92765129D01*
X59025143Y-92724927D01*
X59011435Y-92700500D01*
X59009456Y-92695024D01*
X59017966Y-92682278D01*
X59041493Y-92655063D01*
X59077032Y-92616428D01*
X59121577Y-92569423D01*
X59172123Y-92517095D01*
X59225664Y-92462495D01*
X59279195Y-92408670D01*
X59329711Y-92358670D01*
X59374206Y-92315543D01*
X59409675Y-92282339D01*
X59433113Y-92262106D01*
X59440954Y-92257278D01*
X59453720Y-92264067D01*
X59484256Y-92283142D01*
X59529590Y-92312561D01*
X59586756Y-92350381D01*
X59652784Y-92394661D01*
X59702590Y-92428395D01*
X59954236Y-92599512D01*
X60163999Y-92513041D01*
X60373763Y-92426570D01*
X60430611Y-92125018D01*
X60487460Y-91823466D01*
X61115115Y-91823466D01*
X61171964Y-92125018D01*
X61171964Y-92125018D01*
G37*
X61171964Y-92125018D02*
X61228812Y-92426570D01*
X61648338Y-92599512D01*
X61899984Y-92428395D01*
X61970458Y-92380750D01*
X62034163Y-92338210D01*
X62088126Y-92302715D01*
X62129373Y-92276210D01*
X62154934Y-92260636D01*
X62161895Y-92257278D01*
X62174435Y-92265914D01*
X62201231Y-92289792D01*
X62239280Y-92325859D01*
X62285579Y-92371067D01*
X62337123Y-92422364D01*
X62390909Y-92476701D01*
X62443935Y-92531028D01*
X62493195Y-92582295D01*
X62535687Y-92627451D01*
X62568407Y-92663446D01*
X62588351Y-92687230D01*
X62593119Y-92695190D01*
X62586257Y-92709865D01*
X62567020Y-92742014D01*
X62537430Y-92788492D01*
X62499510Y-92846156D01*
X62455282Y-92911860D01*
X62429654Y-92949336D01*
X62382941Y-93017768D01*
X62341432Y-93079520D01*
X62307140Y-93131519D01*
X62282080Y-93170692D01*
X62268264Y-93193965D01*
X62266188Y-93198855D01*
X62270895Y-93212755D01*
X62283723Y-93245150D01*
X62302738Y-93291485D01*
X62326003Y-93347206D01*
X62351584Y-93407758D01*
X62377545Y-93468586D01*
X62401950Y-93525136D01*
X62422863Y-93572852D01*
X62438349Y-93607181D01*
X62446472Y-93623568D01*
X62446952Y-93624212D01*
X62459707Y-93627341D01*
X62493677Y-93634321D01*
X62545340Y-93644467D01*
X62611176Y-93657092D01*
X62687664Y-93671509D01*
X62732290Y-93679823D01*
X62814021Y-93695384D01*
X62887843Y-93710192D01*
X62950021Y-93723436D01*
X62996822Y-93734305D01*
X63024509Y-93741989D01*
X63030074Y-93744427D01*
X63035526Y-93760930D01*
X63039924Y-93798200D01*
X63043272Y-93851880D01*
X63045574Y-93917612D01*
X63046832Y-93991037D01*
X63047048Y-94067796D01*
X63046227Y-94143532D01*
X63044371Y-94213886D01*
X63041482Y-94274500D01*
X63037565Y-94321016D01*
X63032622Y-94349075D01*
X63029657Y-94354916D01*
X63011934Y-94361917D01*
X62974381Y-94371927D01*
X62921964Y-94383769D01*
X62859652Y-94396267D01*
X62837900Y-94400310D01*
X62733024Y-94419520D01*
X62650180Y-94434991D01*
X62586630Y-94447337D01*
X62539637Y-94457173D01*
X62506463Y-94465114D01*
X62484371Y-94471776D01*
X62470624Y-94477773D01*
X62462484Y-94483719D01*
X62461345Y-94484894D01*
X62449977Y-94503826D01*
X62432635Y-94540669D01*
X62411050Y-94590913D01*
X62386954Y-94650046D01*
X62362079Y-94713556D01*
X62338157Y-94776932D01*
X62316919Y-94835662D01*
X62300097Y-94885235D01*
X62289422Y-94921139D01*
X62286627Y-94938862D01*
X62286860Y-94939483D01*
X62296331Y-94953970D01*
X62317818Y-94985844D01*
X62349063Y-95031789D01*
X62387807Y-95088485D01*
X62431793Y-95152617D01*
X62444319Y-95170842D01*
X62488984Y-95236914D01*
X62528288Y-95297200D01*
X62560088Y-95348235D01*
X62582245Y-95386560D01*
X62592617Y-95408711D01*
X62593119Y-95411432D01*
X62584405Y-95425736D01*
X62560325Y-95454072D01*
X62523976Y-95493396D01*
X62478453Y-95540661D01*
X62426852Y-95592823D01*
X62372267Y-95646835D01*
X62317794Y-95699653D01*
X62266529Y-95748231D01*
X62221567Y-95789523D01*
X62186004Y-95820485D01*
X62162935Y-95838070D01*
X62156554Y-95840941D01*
X62141699Y-95834178D01*
X62111286Y-95815939D01*
X62070268Y-95789297D01*
X62038709Y-95767852D01*
X61981525Y-95728503D01*
X61913806Y-95682171D01*
X61845880Y-95635913D01*
X61809361Y-95611155D01*
X61685752Y-95527547D01*
X61581991Y-95583650D01*
X61534720Y-95608228D01*
X61494523Y-95627331D01*
X61467326Y-95638227D01*
X61460402Y-95639743D01*
X61452077Y-95628549D01*
X61435654Y-95596917D01*
X61412357Y-95547765D01*
X61383414Y-95484010D01*
X61350050Y-95408571D01*
X61313491Y-95324364D01*
X61274964Y-95234308D01*
X61235694Y-95141321D01*
X61196908Y-95048320D01*
X61159830Y-94958223D01*
X61125689Y-94873948D01*
X61095708Y-94798413D01*
X61071116Y-94734534D01*
X61053136Y-94685231D01*
X61042997Y-94653421D01*
X61041366Y-94642496D01*
X61054291Y-94628561D01*
X61082589Y-94605940D01*
X61120346Y-94579333D01*
X61123515Y-94577228D01*
X61221100Y-94499114D01*
X61299786Y-94407982D01*
X61358891Y-94306745D01*
X61397732Y-94198318D01*
X61415628Y-94085614D01*
X61411897Y-93971548D01*
X61385857Y-93859034D01*
X61336825Y-93750985D01*
X61322400Y-93727345D01*
X61247369Y-93631887D01*
X61158730Y-93555232D01*
X61059549Y-93497780D01*
X60952895Y-93459929D01*
X60841836Y-93442078D01*
X60729439Y-93444625D01*
X60618773Y-93467970D01*
X60512906Y-93512510D01*
X60414905Y-93578645D01*
X60384590Y-93605487D01*
X60307438Y-93689512D01*
X60251218Y-93777966D01*
X60212653Y-93877115D01*
X60191174Y-93975303D01*
X60185872Y-94085697D01*
X60203552Y-94196640D01*
X60242419Y-94304381D01*
X60300677Y-94405169D01*
X60376531Y-94495256D01*
X60468183Y-94570892D01*
X60480228Y-94578864D01*
X60518389Y-94604974D01*
X60547399Y-94627595D01*
X60561268Y-94642039D01*
X60561469Y-94642496D01*
X60558492Y-94658121D01*
X60546689Y-94693582D01*
X60527286Y-94745962D01*
X60501512Y-94812345D01*
X60470591Y-94889814D01*
X60435751Y-94975450D01*
X60398217Y-95066337D01*
X60359217Y-95159559D01*
X60319977Y-95252197D01*
X60281724Y-95341335D01*
X60245683Y-95424055D01*
X60213083Y-95497441D01*
X60185148Y-95558575D01*
X60163105Y-95604541D01*
X60148182Y-95632421D01*
X60142172Y-95639743D01*
X60123809Y-95634041D01*
X60089448Y-95618749D01*
X60045016Y-95596599D01*
X60020583Y-95583650D01*
X59916822Y-95527547D01*
X59793213Y-95611155D01*
X59730114Y-95653987D01*
X59661030Y-95701122D01*
X59596293Y-95745503D01*
X59563866Y-95767852D01*
X59518259Y-95798477D01*
X59479640Y-95822747D01*
X59453048Y-95837587D01*
X59444410Y-95840724D01*
X59431839Y-95832261D01*
X59404016Y-95808636D01*
X59363639Y-95772302D01*
X59313405Y-95725711D01*
X59256012Y-95671317D01*
X59219714Y-95636392D01*
X59156210Y-95573996D01*
X59101327Y-95518188D01*
X59057286Y-95471354D01*
X59026305Y-95435882D01*
X59010602Y-95414161D01*
X59009095Y-95409752D01*
X59016086Y-95392985D01*
X59035406Y-95359082D01*
X59064909Y-95311476D01*
X59102455Y-95253599D01*
X59145900Y-95188884D01*
X59158255Y-95170842D01*
X59203273Y-95105267D01*
X59243660Y-95046228D01*
X59277160Y-94997042D01*
X59301514Y-94961028D01*
X59314464Y-94941502D01*
X59315715Y-94939483D01*
X59313844Y-94923922D01*
X59303913Y-94889709D01*
X59287653Y-94841355D01*
X59266795Y-94783371D01*
X59243073Y-94720270D01*
X59218216Y-94656563D01*
X59193958Y-94596761D01*
X59172029Y-94545376D01*
X59154162Y-94506919D01*
X59142087Y-94485902D01*
X59141229Y-94484894D01*
X59133846Y-94478888D01*
X59121375Y-94472948D01*
X59101080Y-94466460D01*
X59070222Y-94458809D01*
X59026066Y-94449380D01*
X58965874Y-94437559D01*
X58886907Y-94422729D01*
X58786430Y-94404277D01*
X58764675Y-94400310D01*
X58700198Y-94387853D01*
X58643989Y-94375666D01*
X58601013Y-94364926D01*
X58576240Y-94356809D01*
X58572918Y-94354916D01*
X58567444Y-94338138D01*
X58562994Y-94300645D01*
X58559572Y-94246794D01*
X58557181Y-94180944D01*
X58555823Y-94107453D01*
X58555501Y-94030680D01*
X58556219Y-93954983D01*
X58557979Y-93884720D01*
X58560784Y-93824250D01*
X58564638Y-93777930D01*
X58569543Y-93750119D01*
X58572500Y-93744427D01*
X58588963Y-93738686D01*
X58626449Y-93729345D01*
X58681225Y-93717215D01*
X58749555Y-93703107D01*
X58827706Y-93687830D01*
X58870284Y-93679823D01*
X58951071Y-93664721D01*
X59023113Y-93651040D01*
X59082889Y-93639467D01*
X59126879Y-93630687D01*
X59151561Y-93625387D01*
X59155623Y-93624212D01*
X59162489Y-93610965D01*
X59177002Y-93579057D01*
X59197229Y-93533047D01*
X59221234Y-93477492D01*
X59247082Y-93416953D01*
X59272840Y-93355986D01*
X59296573Y-93299151D01*
X59316346Y-93251006D01*
X59330224Y-93216110D01*
X59336274Y-93199021D01*
X59336386Y-93198274D01*
X59329528Y-93184793D01*
X59310302Y-93153770D01*
X59280728Y-93108289D01*
X59242827Y-93051432D01*
X59198620Y-92986283D01*
X59172921Y-92948862D01*
X59126093Y-92880247D01*
X59084501Y-92817952D01*
X59050175Y-92765129D01*
X59025143Y-92724927D01*
X59011435Y-92700500D01*
X59009456Y-92695024D01*
X59017966Y-92682278D01*
X59041493Y-92655063D01*
X59077032Y-92616428D01*
X59121577Y-92569423D01*
X59172123Y-92517095D01*
X59225664Y-92462495D01*
X59279195Y-92408670D01*
X59329711Y-92358670D01*
X59374206Y-92315543D01*
X59409675Y-92282339D01*
X59433113Y-92262106D01*
X59440954Y-92257278D01*
X59453720Y-92264067D01*
X59484256Y-92283142D01*
X59529590Y-92312561D01*
X59586756Y-92350381D01*
X59652784Y-92394661D01*
X59702590Y-92428395D01*
X59954236Y-92599512D01*
X60163999Y-92513041D01*
X60373763Y-92426570D01*
X60430611Y-92125018D01*
X60487460Y-91823466D01*
X61115115Y-91823466D01*
X61171964Y-92125018D01*
G36*
X62594460Y-96293030D02*
X62637711Y-96306245D01*
X62665558Y-96322941D01*
X62674629Y-96336145D01*
X62672132Y-96351797D01*
X62655931Y-96376385D01*
X62642232Y-96393800D01*
X62613992Y-96425283D01*
X62592775Y-96438529D01*
X62574688Y-96437664D01*
X62521035Y-96424010D01*
X62481630Y-96424630D01*
X62449632Y-96440104D01*
X62438890Y-96449161D01*
X62404505Y-96481027D01*
X62404505Y-96897179D01*
X62266188Y-96897179D01*
X62266188Y-96293614D01*
X62335347Y-96293614D01*
X62376869Y-96295256D01*
X62398291Y-96301087D01*
X62404502Y-96312461D01*
X62404505Y-96312798D01*
X62407439Y-96324713D01*
X62420704Y-96323159D01*
X62439084Y-96314563D01*
X62477046Y-96298568D01*
X62507872Y-96288945D01*
X62547536Y-96286478D01*
X62594460Y-96293030D01*
X62594460Y-96293030D01*
G37*
X62594460Y-96293030D02*
X62637711Y-96306245D01*
X62665558Y-96322941D01*
X62674629Y-96336145D01*
X62672132Y-96351797D01*
X62655931Y-96376385D01*
X62642232Y-96393800D01*
X62613992Y-96425283D01*
X62592775Y-96438529D01*
X62574688Y-96437664D01*
X62521035Y-96424010D01*
X62481630Y-96424630D01*
X62449632Y-96440104D01*
X62438890Y-96449161D01*
X62404505Y-96481027D01*
X62404505Y-96897179D01*
X62266188Y-96897179D01*
X62266188Y-96293614D01*
X62335347Y-96293614D01*
X62376869Y-96295256D01*
X62398291Y-96301087D01*
X62404502Y-96312461D01*
X62404505Y-96312798D01*
X62407439Y-96324713D01*
X62420704Y-96323159D01*
X62439084Y-96314563D01*
X62477046Y-96298568D01*
X62507872Y-96288945D01*
X62547536Y-96286478D01*
X62594460Y-96293030D01*
G36*
X60040988Y-96304002D02*
X60072283Y-96318950D01*
X60102591Y-96340541D01*
X60125682Y-96365391D01*
X60142500Y-96397087D01*
X60153994Y-96439214D01*
X60161109Y-96495358D01*
X60164793Y-96569106D01*
X60165992Y-96664044D01*
X60166011Y-96673985D01*
X60166287Y-96897179D01*
X60027970Y-96897179D01*
X60027970Y-96691418D01*
X60027872Y-96615189D01*
X60027191Y-96559939D01*
X60025349Y-96521501D01*
X60021767Y-96495706D01*
X60015868Y-96478384D01*
X60007073Y-96465368D01*
X59994820Y-96452507D01*
X59951953Y-96424873D01*
X59905157Y-96419745D01*
X59860576Y-96437217D01*
X59845072Y-96450221D01*
X59833690Y-96462447D01*
X59825519Y-96475540D01*
X59820026Y-96493615D01*
X59816680Y-96520787D01*
X59814949Y-96561170D01*
X59814303Y-96618879D01*
X59814208Y-96689132D01*
X59814208Y-96897179D01*
X59675891Y-96897179D01*
X59675891Y-96293614D01*
X59745050Y-96293614D01*
X59786572Y-96295256D01*
X59807994Y-96301087D01*
X59814205Y-96312461D01*
X59814208Y-96312798D01*
X59817090Y-96323938D01*
X59829801Y-96322674D01*
X59855074Y-96310434D01*
X59912395Y-96292424D01*
X59977963Y-96290421D01*
X60040988Y-96304002D01*
X60040988Y-96304002D01*
G37*
X60040988Y-96304002D02*
X60072283Y-96318950D01*
X60102591Y-96340541D01*
X60125682Y-96365391D01*
X60142500Y-96397087D01*
X60153994Y-96439214D01*
X60161109Y-96495358D01*
X60164793Y-96569106D01*
X60165992Y-96664044D01*
X60166011Y-96673985D01*
X60166287Y-96897179D01*
X60027970Y-96897179D01*
X60027970Y-96691418D01*
X60027872Y-96615189D01*
X60027191Y-96559939D01*
X60025349Y-96521501D01*
X60021767Y-96495706D01*
X60015868Y-96478384D01*
X60007073Y-96465368D01*
X59994820Y-96452507D01*
X59951953Y-96424873D01*
X59905157Y-96419745D01*
X59860576Y-96437217D01*
X59845072Y-96450221D01*
X59833690Y-96462447D01*
X59825519Y-96475540D01*
X59820026Y-96493615D01*
X59816680Y-96520787D01*
X59814949Y-96561170D01*
X59814303Y-96618879D01*
X59814208Y-96689132D01*
X59814208Y-96897179D01*
X59675891Y-96897179D01*
X59675891Y-96293614D01*
X59745050Y-96293614D01*
X59786572Y-96295256D01*
X59807994Y-96301087D01*
X59814205Y-96312461D01*
X59814208Y-96312798D01*
X59817090Y-96323938D01*
X59829801Y-96322674D01*
X59855074Y-96310434D01*
X59912395Y-96292424D01*
X59977963Y-96290421D01*
X60040988Y-96304002D01*
G36*
X63472898Y-96291457D02*
X63505096Y-96299279D01*
X63566825Y-96327921D01*
X63619610Y-96371667D01*
X63656141Y-96424117D01*
X63661160Y-96435893D01*
X63668045Y-96466740D01*
X63672864Y-96512371D01*
X63674505Y-96558492D01*
X63674505Y-96645693D01*
X63492178Y-96645693D01*
X63416979Y-96645978D01*
X63364003Y-96647704D01*
X63330325Y-96652181D01*
X63313020Y-96660720D01*
X63309163Y-96674630D01*
X63315829Y-96695222D01*
X63327770Y-96719315D01*
X63361080Y-96759525D01*
X63407368Y-96779558D01*
X63463944Y-96778905D01*
X63528031Y-96757101D01*
X63583417Y-96730193D01*
X63629375Y-96766532D01*
X63675333Y-96802872D01*
X63632096Y-96842819D01*
X63574374Y-96880563D01*
X63503386Y-96903320D01*
X63427029Y-96909688D01*
X63353199Y-96898268D01*
X63341287Y-96894393D01*
X63276399Y-96860506D01*
X63228130Y-96809986D01*
X63195465Y-96741325D01*
X63177385Y-96653014D01*
X63177175Y-96651121D01*
X63175556Y-96554878D01*
X63182100Y-96520542D01*
X63309852Y-96520542D01*
X63321584Y-96525822D01*
X63353438Y-96529867D01*
X63400397Y-96532176D01*
X63430154Y-96532525D01*
X63485648Y-96532306D01*
X63520346Y-96530916D01*
X63538601Y-96527251D01*
X63544766Y-96520210D01*
X63543195Y-96508690D01*
X63541878Y-96504233D01*
X63519382Y-96462355D01*
X63484003Y-96428604D01*
X63452780Y-96413773D01*
X63411301Y-96414668D01*
X63369269Y-96433164D01*
X63334012Y-96463786D01*
X63312854Y-96501062D01*
X63309852Y-96520542D01*
X63182100Y-96520542D01*
X63191690Y-96470229D01*
X63223698Y-96399191D01*
X63269701Y-96343779D01*
X63327821Y-96306009D01*
X63396180Y-96287896D01*
X63472898Y-96291457D01*
X63472898Y-96291457D01*
G37*
X63472898Y-96291457D02*
X63505096Y-96299279D01*
X63566825Y-96327921D01*
X63619610Y-96371667D01*
X63656141Y-96424117D01*
X63661160Y-96435893D01*
X63668045Y-96466740D01*
X63672864Y-96512371D01*
X63674505Y-96558492D01*
X63674505Y-96645693D01*
X63492178Y-96645693D01*
X63416979Y-96645978D01*
X63364003Y-96647704D01*
X63330325Y-96652181D01*
X63313020Y-96660720D01*
X63309163Y-96674630D01*
X63315829Y-96695222D01*
X63327770Y-96719315D01*
X63361080Y-96759525D01*
X63407368Y-96779558D01*
X63463944Y-96778905D01*
X63528031Y-96757101D01*
X63583417Y-96730193D01*
X63629375Y-96766532D01*
X63675333Y-96802872D01*
X63632096Y-96842819D01*
X63574374Y-96880563D01*
X63503386Y-96903320D01*
X63427029Y-96909688D01*
X63353199Y-96898268D01*
X63341287Y-96894393D01*
X63276399Y-96860506D01*
X63228130Y-96809986D01*
X63195465Y-96741325D01*
X63177385Y-96653014D01*
X63177175Y-96651121D01*
X63175556Y-96554878D01*
X63182100Y-96520542D01*
X63309852Y-96520542D01*
X63321584Y-96525822D01*
X63353438Y-96529867D01*
X63400397Y-96532176D01*
X63430154Y-96532525D01*
X63485648Y-96532306D01*
X63520346Y-96530916D01*
X63538601Y-96527251D01*
X63544766Y-96520210D01*
X63543195Y-96508690D01*
X63541878Y-96504233D01*
X63519382Y-96462355D01*
X63484003Y-96428604D01*
X63452780Y-96413773D01*
X63411301Y-96414668D01*
X63369269Y-96433164D01*
X63334012Y-96463786D01*
X63312854Y-96501062D01*
X63309852Y-96520542D01*
X63182100Y-96520542D01*
X63191690Y-96470229D01*
X63223698Y-96399191D01*
X63269701Y-96343779D01*
X63327821Y-96306009D01*
X63396180Y-96287896D01*
X63472898Y-96291457D01*
G36*
X63012226Y-96298880D02*
X63085080Y-96329830D01*
X63108027Y-96344895D01*
X63137354Y-96368048D01*
X63155764Y-96386253D01*
X63158961Y-96392183D01*
X63149935Y-96405340D01*
X63126837Y-96427667D01*
X63108344Y-96443250D01*
X63057728Y-96483926D01*
X63017760Y-96450295D01*
X62986874Y-96428584D01*
X62956759Y-96421090D01*
X62922292Y-96422920D01*
X62867561Y-96436528D01*
X62829886Y-96464772D01*
X62806991Y-96510433D01*
X62796597Y-96576289D01*
X62796595Y-96576331D01*
X62797494Y-96649939D01*
X62811463Y-96703946D01*
X62839328Y-96740716D01*
X62858325Y-96753168D01*
X62908776Y-96768673D01*
X62962663Y-96768683D01*
X63009546Y-96753638D01*
X63020644Y-96746287D01*
X63048476Y-96727511D01*
X63070236Y-96724434D01*
X63093704Y-96738409D01*
X63119649Y-96763510D01*
X63160716Y-96805880D01*
X63115121Y-96843464D01*
X63044674Y-96885882D01*
X62965233Y-96906785D01*
X62882215Y-96905272D01*
X62827694Y-96891411D01*
X62763970Y-96857135D01*
X62713005Y-96803212D01*
X62689851Y-96765149D01*
X62671099Y-96710536D01*
X62661715Y-96641369D01*
X62661643Y-96566407D01*
X62670824Y-96494409D01*
X62689199Y-96434137D01*
X62692093Y-96427958D01*
X62734952Y-96367351D01*
X62792979Y-96323224D01*
X62861591Y-96296493D01*
X62936201Y-96288073D01*
X63012226Y-96298880D01*
X63012226Y-96298880D01*
G37*
X63012226Y-96298880D02*
X63085080Y-96329830D01*
X63108027Y-96344895D01*
X63137354Y-96368048D01*
X63155764Y-96386253D01*
X63158961Y-96392183D01*
X63149935Y-96405340D01*
X63126837Y-96427667D01*
X63108344Y-96443250D01*
X63057728Y-96483926D01*
X63017760Y-96450295D01*
X62986874Y-96428584D01*
X62956759Y-96421090D01*
X62922292Y-96422920D01*
X62867561Y-96436528D01*
X62829886Y-96464772D01*
X62806991Y-96510433D01*
X62796597Y-96576289D01*
X62796595Y-96576331D01*
X62797494Y-96649939D01*
X62811463Y-96703946D01*
X62839328Y-96740716D01*
X62858325Y-96753168D01*
X62908776Y-96768673D01*
X62962663Y-96768683D01*
X63009546Y-96753638D01*
X63020644Y-96746287D01*
X63048476Y-96727511D01*
X63070236Y-96724434D01*
X63093704Y-96738409D01*
X63119649Y-96763510D01*
X63160716Y-96805880D01*
X63115121Y-96843464D01*
X63044674Y-96885882D01*
X62965233Y-96906785D01*
X62882215Y-96905272D01*
X62827694Y-96891411D01*
X62763970Y-96857135D01*
X62713005Y-96803212D01*
X62689851Y-96765149D01*
X62671099Y-96710536D01*
X62661715Y-96641369D01*
X62661643Y-96566407D01*
X62670824Y-96494409D01*
X62689199Y-96434137D01*
X62692093Y-96427958D01*
X62734952Y-96367351D01*
X62792979Y-96323224D01*
X62861591Y-96296493D01*
X62936201Y-96288073D01*
X63012226Y-96298880D01*
G36*
X61788367Y-96489342D02*
X61789555Y-96581563D01*
X61793897Y-96651610D01*
X61802558Y-96702381D01*
X61816704Y-96736772D01*
X61837500Y-96757679D01*
X61866110Y-96768000D01*
X61901535Y-96770636D01*
X61938636Y-96767682D01*
X61966818Y-96756889D01*
X61987243Y-96735360D01*
X62001079Y-96700199D01*
X62009491Y-96648510D01*
X62013643Y-96577394D01*
X62014703Y-96489342D01*
X62014703Y-96293614D01*
X62153020Y-96293614D01*
X62153020Y-96897179D01*
X62083862Y-96897179D01*
X62042170Y-96895489D01*
X62020701Y-96889556D01*
X62014703Y-96878293D01*
X62011091Y-96868261D01*
X61996714Y-96870383D01*
X61967736Y-96884580D01*
X61901319Y-96906480D01*
X61830875Y-96904928D01*
X61763377Y-96881147D01*
X61731233Y-96862362D01*
X61706715Y-96842022D01*
X61688804Y-96816573D01*
X61676479Y-96782458D01*
X61668723Y-96736121D01*
X61664516Y-96674007D01*
X61662840Y-96592561D01*
X61662624Y-96529578D01*
X61662624Y-96293614D01*
X61788367Y-96293614D01*
X61788367Y-96489342D01*
X61788367Y-96489342D01*
G37*
X61788367Y-96489342D02*
X61789555Y-96581563D01*
X61793897Y-96651610D01*
X61802558Y-96702381D01*
X61816704Y-96736772D01*
X61837500Y-96757679D01*
X61866110Y-96768000D01*
X61901535Y-96770636D01*
X61938636Y-96767682D01*
X61966818Y-96756889D01*
X61987243Y-96735360D01*
X62001079Y-96700199D01*
X62009491Y-96648510D01*
X62013643Y-96577394D01*
X62014703Y-96489342D01*
X62014703Y-96293614D01*
X62153020Y-96293614D01*
X62153020Y-96897179D01*
X62083862Y-96897179D01*
X62042170Y-96895489D01*
X62020701Y-96889556D01*
X62014703Y-96878293D01*
X62011091Y-96868261D01*
X61996714Y-96870383D01*
X61967736Y-96884580D01*
X61901319Y-96906480D01*
X61830875Y-96904928D01*
X61763377Y-96881147D01*
X61731233Y-96862362D01*
X61706715Y-96842022D01*
X61688804Y-96816573D01*
X61676479Y-96782458D01*
X61668723Y-96736121D01*
X61664516Y-96674007D01*
X61662840Y-96592561D01*
X61662624Y-96529578D01*
X61662624Y-96293614D01*
X61788367Y-96293614D01*
X61788367Y-96489342D01*
G36*
X61405762Y-96301055D02*
X61469363Y-96335692D01*
X61519123Y-96390372D01*
X61542568Y-96434842D01*
X61552634Y-96474121D01*
X61559156Y-96530116D01*
X61561951Y-96594621D01*
X61560836Y-96659429D01*
X61555626Y-96716334D01*
X61549541Y-96746727D01*
X61529014Y-96788306D01*
X61493463Y-96832468D01*
X61450619Y-96871087D01*
X61408211Y-96896034D01*
X61407177Y-96896430D01*
X61354553Y-96907331D01*
X61292188Y-96907601D01*
X61232924Y-96897676D01*
X61210040Y-96889722D01*
X61151102Y-96856300D01*
X61108890Y-96812511D01*
X61081156Y-96754538D01*
X61065651Y-96678565D01*
X61062143Y-96638771D01*
X61062590Y-96588766D01*
X61197376Y-96588766D01*
X61201917Y-96661732D01*
X61214986Y-96717334D01*
X61235756Y-96752861D01*
X61250552Y-96763020D01*
X61288464Y-96770104D01*
X61333527Y-96768007D01*
X61372487Y-96757812D01*
X61382704Y-96752204D01*
X61409659Y-96719538D01*
X61427451Y-96669545D01*
X61435024Y-96608705D01*
X61431325Y-96543497D01*
X61423057Y-96504253D01*
X61399320Y-96458805D01*
X61361849Y-96430396D01*
X61316720Y-96420573D01*
X61270011Y-96430887D01*
X61234132Y-96456112D01*
X61215277Y-96476925D01*
X61204272Y-96497439D01*
X61199026Y-96525203D01*
X61197449Y-96567762D01*
X61197376Y-96588766D01*
X61062590Y-96588766D01*
X61063094Y-96532580D01*
X61080388Y-96445501D01*
X61114029Y-96377530D01*
X61164018Y-96328664D01*
X61230356Y-96298899D01*
X61244601Y-96295448D01*
X61330210Y-96287345D01*
X61405762Y-96301055D01*
X61405762Y-96301055D01*
G37*
X61405762Y-96301055D02*
X61469363Y-96335692D01*
X61519123Y-96390372D01*
X61542568Y-96434842D01*
X61552634Y-96474121D01*
X61559156Y-96530116D01*
X61561951Y-96594621D01*
X61560836Y-96659429D01*
X61555626Y-96716334D01*
X61549541Y-96746727D01*
X61529014Y-96788306D01*
X61493463Y-96832468D01*
X61450619Y-96871087D01*
X61408211Y-96896034D01*
X61407177Y-96896430D01*
X61354553Y-96907331D01*
X61292188Y-96907601D01*
X61232924Y-96897676D01*
X61210040Y-96889722D01*
X61151102Y-96856300D01*
X61108890Y-96812511D01*
X61081156Y-96754538D01*
X61065651Y-96678565D01*
X61062143Y-96638771D01*
X61062590Y-96588766D01*
X61197376Y-96588766D01*
X61201917Y-96661732D01*
X61214986Y-96717334D01*
X61235756Y-96752861D01*
X61250552Y-96763020D01*
X61288464Y-96770104D01*
X61333527Y-96768007D01*
X61372487Y-96757812D01*
X61382704Y-96752204D01*
X61409659Y-96719538D01*
X61427451Y-96669545D01*
X61435024Y-96608705D01*
X61431325Y-96543497D01*
X61423057Y-96504253D01*
X61399320Y-96458805D01*
X61361849Y-96430396D01*
X61316720Y-96420573D01*
X61270011Y-96430887D01*
X61234132Y-96456112D01*
X61215277Y-96476925D01*
X61204272Y-96497439D01*
X61199026Y-96525203D01*
X61197449Y-96567762D01*
X61197376Y-96588766D01*
X61062590Y-96588766D01*
X61063094Y-96532580D01*
X61080388Y-96445501D01*
X61114029Y-96377530D01*
X61164018Y-96328664D01*
X61230356Y-96298899D01*
X61244601Y-96295448D01*
X61330210Y-96287345D01*
X61405762Y-96301055D01*
G36*
X60809017Y-96291452D02*
X60856634Y-96300482D01*
X60906034Y-96319370D01*
X60911312Y-96321777D01*
X60948774Y-96341476D01*
X60974717Y-96359781D01*
X60983103Y-96371508D01*
X60975117Y-96390632D01*
X60955720Y-96418850D01*
X60947110Y-96429384D01*
X60911628Y-96470847D01*
X60865885Y-96443858D01*
X60822350Y-96425878D01*
X60772050Y-96416267D01*
X60723812Y-96415660D01*
X60686467Y-96424691D01*
X60677505Y-96430327D01*
X60660437Y-96456171D01*
X60658363Y-96485941D01*
X60671134Y-96509197D01*
X60678688Y-96513708D01*
X60701325Y-96519309D01*
X60741115Y-96525892D01*
X60790166Y-96532183D01*
X60799215Y-96533170D01*
X60877996Y-96546798D01*
X60935136Y-96569946D01*
X60973030Y-96604752D01*
X60994079Y-96653354D01*
X61000635Y-96712718D01*
X60991577Y-96780198D01*
X60962164Y-96833188D01*
X60912278Y-96871783D01*
X60841800Y-96896081D01*
X60763565Y-96905667D01*
X60699766Y-96905552D01*
X60648016Y-96896845D01*
X60612673Y-96884825D01*
X60568017Y-96863880D01*
X60526747Y-96839574D01*
X60512079Y-96828876D01*
X60474357Y-96798084D01*
X60519852Y-96752049D01*
X60565347Y-96706013D01*
X60617072Y-96740243D01*
X60668952Y-96765952D01*
X60724351Y-96779399D01*
X60777605Y-96780818D01*
X60823049Y-96770443D01*
X60855016Y-96748507D01*
X60865338Y-96729998D01*
X60863789Y-96700314D01*
X60838140Y-96677615D01*
X60788460Y-96661940D01*
X60734031Y-96654695D01*
X60650264Y-96640873D01*
X60588033Y-96614796D01*
X60546507Y-96575699D01*
X60524853Y-96522820D01*
X60521853Y-96460126D01*
X60536671Y-96394642D01*
X60570454Y-96345144D01*
X60623505Y-96311408D01*
X60696126Y-96293207D01*
X60749928Y-96289639D01*
X60809017Y-96291452D01*
X60809017Y-96291452D01*
G37*
X60809017Y-96291452D02*
X60856634Y-96300482D01*
X60906034Y-96319370D01*
X60911312Y-96321777D01*
X60948774Y-96341476D01*
X60974717Y-96359781D01*
X60983103Y-96371508D01*
X60975117Y-96390632D01*
X60955720Y-96418850D01*
X60947110Y-96429384D01*
X60911628Y-96470847D01*
X60865885Y-96443858D01*
X60822350Y-96425878D01*
X60772050Y-96416267D01*
X60723812Y-96415660D01*
X60686467Y-96424691D01*
X60677505Y-96430327D01*
X60660437Y-96456171D01*
X60658363Y-96485941D01*
X60671134Y-96509197D01*
X60678688Y-96513708D01*
X60701325Y-96519309D01*
X60741115Y-96525892D01*
X60790166Y-96532183D01*
X60799215Y-96533170D01*
X60877996Y-96546798D01*
X60935136Y-96569946D01*
X60973030Y-96604752D01*
X60994079Y-96653354D01*
X61000635Y-96712718D01*
X60991577Y-96780198D01*
X60962164Y-96833188D01*
X60912278Y-96871783D01*
X60841800Y-96896081D01*
X60763565Y-96905667D01*
X60699766Y-96905552D01*
X60648016Y-96896845D01*
X60612673Y-96884825D01*
X60568017Y-96863880D01*
X60526747Y-96839574D01*
X60512079Y-96828876D01*
X60474357Y-96798084D01*
X60519852Y-96752049D01*
X60565347Y-96706013D01*
X60617072Y-96740243D01*
X60668952Y-96765952D01*
X60724351Y-96779399D01*
X60777605Y-96780818D01*
X60823049Y-96770443D01*
X60855016Y-96748507D01*
X60865338Y-96729998D01*
X60863789Y-96700314D01*
X60838140Y-96677615D01*
X60788460Y-96661940D01*
X60734031Y-96654695D01*
X60650264Y-96640873D01*
X60588033Y-96614796D01*
X60546507Y-96575699D01*
X60524853Y-96522820D01*
X60521853Y-96460126D01*
X60536671Y-96394642D01*
X60570454Y-96345144D01*
X60623505Y-96311408D01*
X60696126Y-96293207D01*
X60749928Y-96289639D01*
X60809017Y-96291452D01*
G36*
X59438301Y-96307614D02*
X59450832Y-96313514D01*
X59494201Y-96345283D01*
X59535210Y-96391646D01*
X59565832Y-96442696D01*
X59574541Y-96466166D01*
X59582488Y-96508091D01*
X59587226Y-96558757D01*
X59587801Y-96579679D01*
X59587871Y-96645693D01*
X59207917Y-96645693D01*
X59216017Y-96680273D01*
X59235896Y-96721170D01*
X59270653Y-96756514D01*
X59312002Y-96779282D01*
X59338351Y-96784010D01*
X59374084Y-96778273D01*
X59416718Y-96763882D01*
X59431201Y-96757262D01*
X59484760Y-96730513D01*
X59530467Y-96765376D01*
X59556842Y-96788955D01*
X59570876Y-96808417D01*
X59571586Y-96814129D01*
X59559049Y-96827973D01*
X59531572Y-96849012D01*
X59506634Y-96865425D01*
X59439336Y-96894930D01*
X59363890Y-96908284D01*
X59289112Y-96904812D01*
X59229505Y-96886663D01*
X59168059Y-96847784D01*
X59124392Y-96796595D01*
X59097074Y-96730367D01*
X59084678Y-96646371D01*
X59083579Y-96607936D01*
X59087978Y-96519861D01*
X59088518Y-96517299D01*
X59214418Y-96517299D01*
X59217885Y-96525558D01*
X59232137Y-96530113D01*
X59261530Y-96532065D01*
X59310425Y-96532517D01*
X59329252Y-96532525D01*
X59386533Y-96531843D01*
X59422859Y-96529364D01*
X59442396Y-96524443D01*
X59449310Y-96516434D01*
X59449555Y-96513862D01*
X59441664Y-96493423D01*
X59421915Y-96464789D01*
X59413425Y-96454763D01*
X59381906Y-96426408D01*
X59349051Y-96415259D01*
X59331349Y-96414327D01*
X59283461Y-96425981D01*
X59243301Y-96457285D01*
X59217827Y-96502752D01*
X59217375Y-96504233D01*
X59214418Y-96517299D01*
X59088518Y-96517299D01*
X59102608Y-96450510D01*
X59128962Y-96395025D01*
X59161193Y-96355639D01*
X59220783Y-96312931D01*
X59290832Y-96290109D01*
X59365339Y-96288046D01*
X59438301Y-96307614D01*
X59438301Y-96307614D01*
G37*
X59438301Y-96307614D02*
X59450832Y-96313514D01*
X59494201Y-96345283D01*
X59535210Y-96391646D01*
X59565832Y-96442696D01*
X59574541Y-96466166D01*
X59582488Y-96508091D01*
X59587226Y-96558757D01*
X59587801Y-96579679D01*
X59587871Y-96645693D01*
X59207917Y-96645693D01*
X59216017Y-96680273D01*
X59235896Y-96721170D01*
X59270653Y-96756514D01*
X59312002Y-96779282D01*
X59338351Y-96784010D01*
X59374084Y-96778273D01*
X59416718Y-96763882D01*
X59431201Y-96757262D01*
X59484760Y-96730513D01*
X59530467Y-96765376D01*
X59556842Y-96788955D01*
X59570876Y-96808417D01*
X59571586Y-96814129D01*
X59559049Y-96827973D01*
X59531572Y-96849012D01*
X59506634Y-96865425D01*
X59439336Y-96894930D01*
X59363890Y-96908284D01*
X59289112Y-96904812D01*
X59229505Y-96886663D01*
X59168059Y-96847784D01*
X59124392Y-96796595D01*
X59097074Y-96730367D01*
X59084678Y-96646371D01*
X59083579Y-96607936D01*
X59087978Y-96519861D01*
X59088518Y-96517299D01*
X59214418Y-96517299D01*
X59217885Y-96525558D01*
X59232137Y-96530113D01*
X59261530Y-96532065D01*
X59310425Y-96532517D01*
X59329252Y-96532525D01*
X59386533Y-96531843D01*
X59422859Y-96529364D01*
X59442396Y-96524443D01*
X59449310Y-96516434D01*
X59449555Y-96513862D01*
X59441664Y-96493423D01*
X59421915Y-96464789D01*
X59413425Y-96454763D01*
X59381906Y-96426408D01*
X59349051Y-96415259D01*
X59331349Y-96414327D01*
X59283461Y-96425981D01*
X59243301Y-96457285D01*
X59217827Y-96502752D01*
X59217375Y-96504233D01*
X59214418Y-96517299D01*
X59088518Y-96517299D01*
X59102608Y-96450510D01*
X59128962Y-96395025D01*
X59161193Y-96355639D01*
X59220783Y-96312931D01*
X59290832Y-96290109D01*
X59365339Y-96288046D01*
X59438301Y-96307614D01*
G36*
X58256739Y-96300148D02*
X58322521Y-96329231D01*
X58372460Y-96377793D01*
X58406626Y-96445908D01*
X58425093Y-96533651D01*
X58426417Y-96547351D01*
X58427454Y-96643939D01*
X58414007Y-96728602D01*
X58386892Y-96797221D01*
X58372373Y-96819294D01*
X58321799Y-96866011D01*
X58257391Y-96896268D01*
X58185334Y-96908824D01*
X58111815Y-96902439D01*
X58055928Y-96882772D01*
X58007868Y-96849629D01*
X57968588Y-96806175D01*
X57967908Y-96805158D01*
X57951956Y-96778338D01*
X57941590Y-96751368D01*
X57935312Y-96717332D01*
X57931627Y-96669310D01*
X57930003Y-96629931D01*
X57929328Y-96594219D01*
X58055045Y-96594219D01*
X58056274Y-96629770D01*
X58060734Y-96677094D01*
X58068603Y-96707465D01*
X58082793Y-96729072D01*
X58096083Y-96741694D01*
X58143198Y-96768122D01*
X58192495Y-96771653D01*
X58238407Y-96752639D01*
X58261362Y-96731331D01*
X58277904Y-96709859D01*
X58287579Y-96689313D01*
X58291826Y-96662574D01*
X58292080Y-96622523D01*
X58290772Y-96585638D01*
X58287957Y-96532947D01*
X58283495Y-96498772D01*
X58275452Y-96476480D01*
X58261897Y-96459442D01*
X58251155Y-96449703D01*
X58206223Y-96424123D01*
X58157751Y-96422847D01*
X58117106Y-96437999D01*
X58082433Y-96469642D01*
X58061776Y-96521620D01*
X58055045Y-96594219D01*
X57929328Y-96594219D01*
X57928521Y-96551621D01*
X57931052Y-96493056D01*
X57938638Y-96449007D01*
X57952319Y-96414248D01*
X57973135Y-96383551D01*
X57980853Y-96374436D01*
X58029111Y-96329021D01*
X58080872Y-96302493D01*
X58144172Y-96291379D01*
X58175039Y-96290471D01*
X58256739Y-96300148D01*
X58256739Y-96300148D01*
G37*
X58256739Y-96300148D02*
X58322521Y-96329231D01*
X58372460Y-96377793D01*
X58406626Y-96445908D01*
X58425093Y-96533651D01*
X58426417Y-96547351D01*
X58427454Y-96643939D01*
X58414007Y-96728602D01*
X58386892Y-96797221D01*
X58372373Y-96819294D01*
X58321799Y-96866011D01*
X58257391Y-96896268D01*
X58185334Y-96908824D01*
X58111815Y-96902439D01*
X58055928Y-96882772D01*
X58007868Y-96849629D01*
X57968588Y-96806175D01*
X57967908Y-96805158D01*
X57951956Y-96778338D01*
X57941590Y-96751368D01*
X57935312Y-96717332D01*
X57931627Y-96669310D01*
X57930003Y-96629931D01*
X57929328Y-96594219D01*
X58055045Y-96594219D01*
X58056274Y-96629770D01*
X58060734Y-96677094D01*
X58068603Y-96707465D01*
X58082793Y-96729072D01*
X58096083Y-96741694D01*
X58143198Y-96768122D01*
X58192495Y-96771653D01*
X58238407Y-96752639D01*
X58261362Y-96731331D01*
X58277904Y-96709859D01*
X58287579Y-96689313D01*
X58291826Y-96662574D01*
X58292080Y-96622523D01*
X58290772Y-96585638D01*
X58287957Y-96532947D01*
X58283495Y-96498772D01*
X58275452Y-96476480D01*
X58261897Y-96459442D01*
X58251155Y-96449703D01*
X58206223Y-96424123D01*
X58157751Y-96422847D01*
X58117106Y-96437999D01*
X58082433Y-96469642D01*
X58061776Y-96521620D01*
X58055045Y-96594219D01*
X57929328Y-96594219D01*
X57928521Y-96551621D01*
X57931052Y-96493056D01*
X57938638Y-96449007D01*
X57952319Y-96414248D01*
X57973135Y-96383551D01*
X57980853Y-96374436D01*
X58029111Y-96329021D01*
X58080872Y-96302493D01*
X58144172Y-96291379D01*
X58175039Y-96290471D01*
X58256739Y-96300148D01*
G36*
X62827581Y-97239970D02*
X62887685Y-97255597D01*
X62938021Y-97287848D01*
X62962393Y-97311940D01*
X63002345Y-97368895D01*
X63025242Y-97434965D01*
X63033108Y-97516182D01*
X63033148Y-97522748D01*
X63033218Y-97588763D01*
X62653264Y-97588763D01*
X62661363Y-97623342D01*
X62675987Y-97654659D01*
X62701581Y-97687291D01*
X62706935Y-97692500D01*
X62752943Y-97720694D01*
X62805410Y-97725475D01*
X62865803Y-97706926D01*
X62876040Y-97701931D01*
X62907439Y-97686745D01*
X62928470Y-97678094D01*
X62932139Y-97677293D01*
X62944948Y-97685063D01*
X62969378Y-97704072D01*
X62981779Y-97714460D01*
X63007476Y-97738321D01*
X63015915Y-97754077D01*
X63010058Y-97768571D01*
X63006928Y-97772534D01*
X62985725Y-97789879D01*
X62950738Y-97810959D01*
X62926337Y-97823265D01*
X62857072Y-97844946D01*
X62780388Y-97851971D01*
X62707765Y-97843647D01*
X62687426Y-97837686D01*
X62624476Y-97803952D01*
X62577815Y-97752045D01*
X62547173Y-97681459D01*
X62532282Y-97591692D01*
X62530647Y-97544753D01*
X62535421Y-97476413D01*
X62655990Y-97476413D01*
X62667652Y-97481465D01*
X62698998Y-97485429D01*
X62744571Y-97487768D01*
X62775446Y-97488169D01*
X62830981Y-97487783D01*
X62866033Y-97485975D01*
X62885262Y-97481773D01*
X62893330Y-97474203D01*
X62894901Y-97463218D01*
X62884121Y-97429381D01*
X62856980Y-97395940D01*
X62821277Y-97370272D01*
X62785560Y-97359772D01*
X62737048Y-97369086D01*
X62695053Y-97396013D01*
X62665936Y-97434827D01*
X62655990Y-97476413D01*
X62535421Y-97476413D01*
X62537599Y-97445236D01*
X62559055Y-97365949D01*
X62595470Y-97306263D01*
X62647297Y-97265549D01*
X62714990Y-97243179D01*
X62751662Y-97238871D01*
X62827581Y-97239970D01*
X62827581Y-97239970D01*
G37*
X62827581Y-97239970D02*
X62887685Y-97255597D01*
X62938021Y-97287848D01*
X62962393Y-97311940D01*
X63002345Y-97368895D01*
X63025242Y-97434965D01*
X63033108Y-97516182D01*
X63033148Y-97522748D01*
X63033218Y-97588763D01*
X62653264Y-97588763D01*
X62661363Y-97623342D01*
X62675987Y-97654659D01*
X62701581Y-97687291D01*
X62706935Y-97692500D01*
X62752943Y-97720694D01*
X62805410Y-97725475D01*
X62865803Y-97706926D01*
X62876040Y-97701931D01*
X62907439Y-97686745D01*
X62928470Y-97678094D01*
X62932139Y-97677293D01*
X62944948Y-97685063D01*
X62969378Y-97704072D01*
X62981779Y-97714460D01*
X63007476Y-97738321D01*
X63015915Y-97754077D01*
X63010058Y-97768571D01*
X63006928Y-97772534D01*
X62985725Y-97789879D01*
X62950738Y-97810959D01*
X62926337Y-97823265D01*
X62857072Y-97844946D01*
X62780388Y-97851971D01*
X62707765Y-97843647D01*
X62687426Y-97837686D01*
X62624476Y-97803952D01*
X62577815Y-97752045D01*
X62547173Y-97681459D01*
X62532282Y-97591692D01*
X62530647Y-97544753D01*
X62535421Y-97476413D01*
X62655990Y-97476413D01*
X62667652Y-97481465D01*
X62698998Y-97485429D01*
X62744571Y-97487768D01*
X62775446Y-97488169D01*
X62830981Y-97487783D01*
X62866033Y-97485975D01*
X62885262Y-97481773D01*
X62893330Y-97474203D01*
X62894901Y-97463218D01*
X62884121Y-97429381D01*
X62856980Y-97395940D01*
X62821277Y-97370272D01*
X62785560Y-97359772D01*
X62737048Y-97369086D01*
X62695053Y-97396013D01*
X62665936Y-97434827D01*
X62655990Y-97476413D01*
X62535421Y-97476413D01*
X62537599Y-97445236D01*
X62559055Y-97365949D01*
X62595470Y-97306263D01*
X62647297Y-97265549D01*
X62714990Y-97243179D01*
X62751662Y-97238871D01*
X62827581Y-97239970D01*
G36*
X62430255Y-97236486D02*
X62478595Y-97246015D01*
X62506114Y-97260125D01*
X62535064Y-97283568D01*
X62493876Y-97335571D01*
X62468482Y-97367064D01*
X62451238Y-97382428D01*
X62434102Y-97384776D01*
X62409027Y-97377217D01*
X62397257Y-97372941D01*
X62349270Y-97366631D01*
X62305324Y-97380156D01*
X62273060Y-97410710D01*
X62267819Y-97420452D01*
X62262112Y-97446258D01*
X62257706Y-97493817D01*
X62254811Y-97559758D01*
X62253631Y-97640710D01*
X62253614Y-97652226D01*
X62253614Y-97852822D01*
X62115297Y-97852822D01*
X62115297Y-97236683D01*
X62184456Y-97236683D01*
X62224333Y-97237725D01*
X62245107Y-97242358D01*
X62252789Y-97252849D01*
X62253614Y-97262745D01*
X62253614Y-97288806D01*
X62286745Y-97262745D01*
X62324735Y-97244965D01*
X62375770Y-97236174D01*
X62430255Y-97236486D01*
X62430255Y-97236486D01*
G37*
X62430255Y-97236486D02*
X62478595Y-97246015D01*
X62506114Y-97260125D01*
X62535064Y-97283568D01*
X62493876Y-97335571D01*
X62468482Y-97367064D01*
X62451238Y-97382428D01*
X62434102Y-97384776D01*
X62409027Y-97377217D01*
X62397257Y-97372941D01*
X62349270Y-97366631D01*
X62305324Y-97380156D01*
X62273060Y-97410710D01*
X62267819Y-97420452D01*
X62262112Y-97446258D01*
X62257706Y-97493817D01*
X62254811Y-97559758D01*
X62253631Y-97640710D01*
X62253614Y-97652226D01*
X62253614Y-97852822D01*
X62115297Y-97852822D01*
X62115297Y-97236683D01*
X62184456Y-97236683D01*
X62224333Y-97237725D01*
X62245107Y-97242358D01*
X62252789Y-97252849D01*
X62253614Y-97262745D01*
X62253614Y-97288806D01*
X62286745Y-97262745D01*
X62324735Y-97244965D01*
X62375770Y-97236174D01*
X62430255Y-97236486D01*
G36*
X61833411Y-97240417D02*
X61886411Y-97253290D01*
X61901731Y-97260110D01*
X61931428Y-97277974D01*
X61954220Y-97298093D01*
X61971083Y-97323962D01*
X61982998Y-97359073D01*
X61990942Y-97406920D01*
X61995894Y-97470996D01*
X61998831Y-97554794D01*
X61999947Y-97610768D01*
X62004052Y-97852822D01*
X61933932Y-97852822D01*
X61891393Y-97851038D01*
X61869476Y-97844942D01*
X61863812Y-97834706D01*
X61860821Y-97823637D01*
X61847451Y-97825754D01*
X61829233Y-97834629D01*
X61783624Y-97848233D01*
X61725007Y-97851899D01*
X61663354Y-97845903D01*
X61608638Y-97830521D01*
X61603730Y-97828386D01*
X61553723Y-97793255D01*
X61520756Y-97744419D01*
X61505587Y-97687333D01*
X61506746Y-97666824D01*
X61630508Y-97666824D01*
X61641413Y-97694425D01*
X61673745Y-97714204D01*
X61725910Y-97724819D01*
X61753787Y-97726228D01*
X61800247Y-97722620D01*
X61831129Y-97708597D01*
X61838664Y-97701931D01*
X61859076Y-97665666D01*
X61863812Y-97632773D01*
X61863812Y-97588763D01*
X61802513Y-97588763D01*
X61731256Y-97592395D01*
X61681276Y-97603818D01*
X61649696Y-97623824D01*
X61642626Y-97632743D01*
X61630508Y-97666824D01*
X61506746Y-97666824D01*
X61508971Y-97627456D01*
X61531663Y-97570244D01*
X61562624Y-97531580D01*
X61581376Y-97514864D01*
X61599733Y-97503878D01*
X61623619Y-97497180D01*
X61658957Y-97493326D01*
X61711669Y-97490873D01*
X61732577Y-97490168D01*
X61863812Y-97485879D01*
X61863620Y-97446158D01*
X61858537Y-97404405D01*
X61840162Y-97379158D01*
X61803039Y-97363030D01*
X61802043Y-97362742D01*
X61749410Y-97356400D01*
X61697906Y-97364684D01*
X61659630Y-97384827D01*
X61644272Y-97394773D01*
X61627730Y-97393397D01*
X61602275Y-97378987D01*
X61587328Y-97368817D01*
X61558091Y-97347088D01*
X61539980Y-97330800D01*
X61537074Y-97326137D01*
X61549040Y-97302005D01*
X61584396Y-97273185D01*
X61599753Y-97263461D01*
X61643901Y-97246714D01*
X61703398Y-97237227D01*
X61769487Y-97235095D01*
X61833411Y-97240417D01*
X61833411Y-97240417D01*
G37*
X61833411Y-97240417D02*
X61886411Y-97253290D01*
X61901731Y-97260110D01*
X61931428Y-97277974D01*
X61954220Y-97298093D01*
X61971083Y-97323962D01*
X61982998Y-97359073D01*
X61990942Y-97406920D01*
X61995894Y-97470996D01*
X61998831Y-97554794D01*
X61999947Y-97610768D01*
X62004052Y-97852822D01*
X61933932Y-97852822D01*
X61891393Y-97851038D01*
X61869476Y-97844942D01*
X61863812Y-97834706D01*
X61860821Y-97823637D01*
X61847451Y-97825754D01*
X61829233Y-97834629D01*
X61783624Y-97848233D01*
X61725007Y-97851899D01*
X61663354Y-97845903D01*
X61608638Y-97830521D01*
X61603730Y-97828386D01*
X61553723Y-97793255D01*
X61520756Y-97744419D01*
X61505587Y-97687333D01*
X61506746Y-97666824D01*
X61630508Y-97666824D01*
X61641413Y-97694425D01*
X61673745Y-97714204D01*
X61725910Y-97724819D01*
X61753787Y-97726228D01*
X61800247Y-97722620D01*
X61831129Y-97708597D01*
X61838664Y-97701931D01*
X61859076Y-97665666D01*
X61863812Y-97632773D01*
X61863812Y-97588763D01*
X61802513Y-97588763D01*
X61731256Y-97592395D01*
X61681276Y-97603818D01*
X61649696Y-97623824D01*
X61642626Y-97632743D01*
X61630508Y-97666824D01*
X61506746Y-97666824D01*
X61508971Y-97627456D01*
X61531663Y-97570244D01*
X61562624Y-97531580D01*
X61581376Y-97514864D01*
X61599733Y-97503878D01*
X61623619Y-97497180D01*
X61658957Y-97493326D01*
X61711669Y-97490873D01*
X61732577Y-97490168D01*
X61863812Y-97485879D01*
X61863620Y-97446158D01*
X61858537Y-97404405D01*
X61840162Y-97379158D01*
X61803039Y-97363030D01*
X61802043Y-97362742D01*
X61749410Y-97356400D01*
X61697906Y-97364684D01*
X61659630Y-97384827D01*
X61644272Y-97394773D01*
X61627730Y-97393397D01*
X61602275Y-97378987D01*
X61587328Y-97368817D01*
X61558091Y-97347088D01*
X61539980Y-97330800D01*
X61537074Y-97326137D01*
X61549040Y-97302005D01*
X61584396Y-97273185D01*
X61599753Y-97263461D01*
X61643901Y-97246714D01*
X61703398Y-97237227D01*
X61769487Y-97235095D01*
X61833411Y-97240417D01*
G36*
X61076524Y-97239237D02*
X61126255Y-97242971D01*
X61256291Y-97632773D01*
X61276678Y-97563614D01*
X61288946Y-97520874D01*
X61305085Y-97463115D01*
X61322512Y-97399625D01*
X61331726Y-97365570D01*
X61366388Y-97236683D01*
X61509391Y-97236683D01*
X61466646Y-97371857D01*
X61445596Y-97438342D01*
X61420167Y-97518539D01*
X61393610Y-97602193D01*
X61369902Y-97676782D01*
X61315902Y-97846535D01*
X61257598Y-97850328D01*
X61199295Y-97854122D01*
X61167679Y-97749734D01*
X61148182Y-97684889D01*
X61126904Y-97613400D01*
X61108308Y-97550263D01*
X61107574Y-97547750D01*
X61093684Y-97504969D01*
X61081429Y-97475779D01*
X61072846Y-97464741D01*
X61071082Y-97466018D01*
X61064891Y-97483130D01*
X61053128Y-97519787D01*
X61037225Y-97571378D01*
X61018614Y-97633294D01*
X61008543Y-97667352D01*
X60954007Y-97852822D01*
X60838264Y-97852822D01*
X60745737Y-97560471D01*
X60719744Y-97478462D01*
X60696066Y-97403987D01*
X60675820Y-97340544D01*
X60660126Y-97291632D01*
X60650102Y-97260749D01*
X60647055Y-97251726D01*
X60649467Y-97242487D01*
X60668408Y-97238441D01*
X60707823Y-97238846D01*
X60713993Y-97239152D01*
X60787086Y-97242971D01*
X60834957Y-97419010D01*
X60852553Y-97483211D01*
X60868277Y-97539649D01*
X60880746Y-97583422D01*
X60888574Y-97609630D01*
X60890020Y-97613903D01*
X60896014Y-97608990D01*
X60908101Y-97583532D01*
X60924893Y-97540997D01*
X60945003Y-97484850D01*
X60962003Y-97434130D01*
X61026794Y-97235504D01*
X61076524Y-97239237D01*
X61076524Y-97239237D01*
G37*
X61076524Y-97239237D02*
X61126255Y-97242971D01*
X61256291Y-97632773D01*
X61276678Y-97563614D01*
X61288946Y-97520874D01*
X61305085Y-97463115D01*
X61322512Y-97399625D01*
X61331726Y-97365570D01*
X61366388Y-97236683D01*
X61509391Y-97236683D01*
X61466646Y-97371857D01*
X61445596Y-97438342D01*
X61420167Y-97518539D01*
X61393610Y-97602193D01*
X61369902Y-97676782D01*
X61315902Y-97846535D01*
X61257598Y-97850328D01*
X61199295Y-97854122D01*
X61167679Y-97749734D01*
X61148182Y-97684889D01*
X61126904Y-97613400D01*
X61108308Y-97550263D01*
X61107574Y-97547750D01*
X61093684Y-97504969D01*
X61081429Y-97475779D01*
X61072846Y-97464741D01*
X61071082Y-97466018D01*
X61064891Y-97483130D01*
X61053128Y-97519787D01*
X61037225Y-97571378D01*
X61018614Y-97633294D01*
X61008543Y-97667352D01*
X60954007Y-97852822D01*
X60838264Y-97852822D01*
X60745737Y-97560471D01*
X60719744Y-97478462D01*
X60696066Y-97403987D01*
X60675820Y-97340544D01*
X60660126Y-97291632D01*
X60650102Y-97260749D01*
X60647055Y-97251726D01*
X60649467Y-97242487D01*
X60668408Y-97238441D01*
X60707823Y-97238846D01*
X60713993Y-97239152D01*
X60787086Y-97242971D01*
X60834957Y-97419010D01*
X60852553Y-97483211D01*
X60868277Y-97539649D01*
X60880746Y-97583422D01*
X60888574Y-97609630D01*
X60890020Y-97613903D01*
X60896014Y-97608990D01*
X60908101Y-97583532D01*
X60924893Y-97540997D01*
X60945003Y-97484850D01*
X60962003Y-97434130D01*
X61026794Y-97235504D01*
X61076524Y-97239237D01*
G36*
X60593812Y-97852822D02*
X60524654Y-97852822D01*
X60484512Y-97851645D01*
X60463606Y-97846772D01*
X60456078Y-97836186D01*
X60455495Y-97829029D01*
X60454226Y-97814676D01*
X60446221Y-97811923D01*
X60425185Y-97820771D01*
X60408827Y-97829029D01*
X60346023Y-97848597D01*
X60277752Y-97849729D01*
X60222248Y-97835135D01*
X60170562Y-97799877D01*
X60131162Y-97747835D01*
X60109587Y-97686450D01*
X60109038Y-97683018D01*
X60105833Y-97645571D01*
X60104239Y-97591813D01*
X60104367Y-97551155D01*
X60241721Y-97551155D01*
X60244903Y-97605194D01*
X60252141Y-97649735D01*
X60261940Y-97674888D01*
X60299011Y-97709260D01*
X60343026Y-97721582D01*
X60388416Y-97711618D01*
X60427203Y-97681895D01*
X60441892Y-97661905D01*
X60450481Y-97638050D01*
X60454504Y-97603230D01*
X60455495Y-97550930D01*
X60453722Y-97499139D01*
X60449037Y-97453634D01*
X60442397Y-97423181D01*
X60441290Y-97420452D01*
X60414509Y-97388000D01*
X60375421Y-97370183D01*
X60331685Y-97367306D01*
X60290962Y-97379674D01*
X60260913Y-97407593D01*
X60257796Y-97413148D01*
X60248039Y-97447022D01*
X60242723Y-97495728D01*
X60241721Y-97551155D01*
X60104367Y-97551155D01*
X60104432Y-97530540D01*
X60105336Y-97497563D01*
X60111486Y-97415981D01*
X60124267Y-97354730D01*
X60145529Y-97309449D01*
X60177122Y-97275779D01*
X60207793Y-97256014D01*
X60250646Y-97242120D01*
X60303944Y-97237354D01*
X60358520Y-97241236D01*
X60405208Y-97253282D01*
X60429876Y-97267693D01*
X60455495Y-97290878D01*
X60455495Y-96997773D01*
X60593812Y-96997773D01*
X60593812Y-97852822D01*
X60593812Y-97852822D01*
G37*
X60593812Y-97852822D02*
X60524654Y-97852822D01*
X60484512Y-97851645D01*
X60463606Y-97846772D01*
X60456078Y-97836186D01*
X60455495Y-97829029D01*
X60454226Y-97814676D01*
X60446221Y-97811923D01*
X60425185Y-97820771D01*
X60408827Y-97829029D01*
X60346023Y-97848597D01*
X60277752Y-97849729D01*
X60222248Y-97835135D01*
X60170562Y-97799877D01*
X60131162Y-97747835D01*
X60109587Y-97686450D01*
X60109038Y-97683018D01*
X60105833Y-97645571D01*
X60104239Y-97591813D01*
X60104367Y-97551155D01*
X60241721Y-97551155D01*
X60244903Y-97605194D01*
X60252141Y-97649735D01*
X60261940Y-97674888D01*
X60299011Y-97709260D01*
X60343026Y-97721582D01*
X60388416Y-97711618D01*
X60427203Y-97681895D01*
X60441892Y-97661905D01*
X60450481Y-97638050D01*
X60454504Y-97603230D01*
X60455495Y-97550930D01*
X60453722Y-97499139D01*
X60449037Y-97453634D01*
X60442397Y-97423181D01*
X60441290Y-97420452D01*
X60414509Y-97388000D01*
X60375421Y-97370183D01*
X60331685Y-97367306D01*
X60290962Y-97379674D01*
X60260913Y-97407593D01*
X60257796Y-97413148D01*
X60248039Y-97447022D01*
X60242723Y-97495728D01*
X60241721Y-97551155D01*
X60104367Y-97551155D01*
X60104432Y-97530540D01*
X60105336Y-97497563D01*
X60111486Y-97415981D01*
X60124267Y-97354730D01*
X60145529Y-97309449D01*
X60177122Y-97275779D01*
X60207793Y-97256014D01*
X60250646Y-97242120D01*
X60303944Y-97237354D01*
X60358520Y-97241236D01*
X60405208Y-97253282D01*
X60429876Y-97267693D01*
X60455495Y-97290878D01*
X60455495Y-96997773D01*
X60593812Y-96997773D01*
X60593812Y-97852822D01*
G36*
X59801644Y-97238020D02*
X59820461Y-97243660D01*
X59826527Y-97256053D01*
X59826782Y-97261647D01*
X59827871Y-97277230D01*
X59835368Y-97279676D01*
X59855619Y-97268993D01*
X59867649Y-97261694D01*
X59905600Y-97246063D01*
X59950928Y-97238334D01*
X59998456Y-97237740D01*
X60043005Y-97243513D01*
X60079398Y-97254884D01*
X60102457Y-97271088D01*
X60107004Y-97291355D01*
X60104709Y-97296843D01*
X60087980Y-97319626D01*
X60062037Y-97347647D01*
X60057345Y-97352177D01*
X60032617Y-97373005D01*
X60011282Y-97379735D01*
X59981445Y-97375038D01*
X59969492Y-97371917D01*
X59932295Y-97364421D01*
X59906141Y-97367792D01*
X59884054Y-97379681D01*
X59863822Y-97395635D01*
X59848921Y-97415700D01*
X59838566Y-97443702D01*
X59831971Y-97483467D01*
X59828351Y-97538823D01*
X59826922Y-97613594D01*
X59826782Y-97658740D01*
X59826782Y-97852822D01*
X59701040Y-97852822D01*
X59701040Y-97236683D01*
X59763911Y-97236683D01*
X59801644Y-97238020D01*
X59801644Y-97238020D01*
G37*
X59801644Y-97238020D02*
X59820461Y-97243660D01*
X59826527Y-97256053D01*
X59826782Y-97261647D01*
X59827871Y-97277230D01*
X59835368Y-97279676D01*
X59855619Y-97268993D01*
X59867649Y-97261694D01*
X59905600Y-97246063D01*
X59950928Y-97238334D01*
X59998456Y-97237740D01*
X60043005Y-97243513D01*
X60079398Y-97254884D01*
X60102457Y-97271088D01*
X60107004Y-97291355D01*
X60104709Y-97296843D01*
X60087980Y-97319626D01*
X60062037Y-97347647D01*
X60057345Y-97352177D01*
X60032617Y-97373005D01*
X60011282Y-97379735D01*
X59981445Y-97375038D01*
X59969492Y-97371917D01*
X59932295Y-97364421D01*
X59906141Y-97367792D01*
X59884054Y-97379681D01*
X59863822Y-97395635D01*
X59848921Y-97415700D01*
X59838566Y-97443702D01*
X59831971Y-97483467D01*
X59828351Y-97538823D01*
X59826922Y-97613594D01*
X59826782Y-97658740D01*
X59826782Y-97852822D01*
X59701040Y-97852822D01*
X59701040Y-97236683D01*
X59763911Y-97236683D01*
X59801644Y-97238020D01*
G36*
X59410790Y-97241555D02*
X59469945Y-97257339D01*
X59514977Y-97285948D01*
X59546754Y-97323419D01*
X59556634Y-97339411D01*
X59563927Y-97356163D01*
X59569026Y-97377592D01*
X59572321Y-97407616D01*
X59574203Y-97450154D01*
X59575063Y-97509122D01*
X59575293Y-97588440D01*
X59575297Y-97609484D01*
X59575297Y-97852822D01*
X59514941Y-97852822D01*
X59476443Y-97850126D01*
X59447977Y-97843295D01*
X59440845Y-97839083D01*
X59421348Y-97831813D01*
X59401434Y-97839083D01*
X59368647Y-97848160D01*
X59321022Y-97851813D01*
X59268236Y-97850228D01*
X59219964Y-97843589D01*
X59191782Y-97835072D01*
X59137247Y-97800063D01*
X59103165Y-97751479D01*
X59087843Y-97686882D01*
X59087701Y-97685223D01*
X59089045Y-97656566D01*
X59210644Y-97656566D01*
X59221274Y-97689161D01*
X59238590Y-97707505D01*
X59273348Y-97721379D01*
X59319227Y-97726917D01*
X59366012Y-97724191D01*
X59403486Y-97713274D01*
X59413985Y-97706269D01*
X59432332Y-97673904D01*
X59436980Y-97637111D01*
X59436980Y-97588763D01*
X59367418Y-97588763D01*
X59301333Y-97593850D01*
X59251236Y-97608263D01*
X59220071Y-97630729D01*
X59210644Y-97656566D01*
X59089045Y-97656566D01*
X59091013Y-97614647D01*
X59114290Y-97558845D01*
X59158052Y-97516647D01*
X59164101Y-97512808D01*
X59190093Y-97500309D01*
X59222265Y-97492740D01*
X59267240Y-97489061D01*
X59320669Y-97488216D01*
X59436980Y-97488169D01*
X59436980Y-97439411D01*
X59432047Y-97401581D01*
X59419457Y-97376236D01*
X59417983Y-97374887D01*
X59389966Y-97363800D01*
X59347674Y-97359503D01*
X59300936Y-97361615D01*
X59259582Y-97369756D01*
X59235043Y-97381965D01*
X59221747Y-97391746D01*
X59207706Y-97393613D01*
X59188329Y-97385600D01*
X59159024Y-97365739D01*
X59115197Y-97332063D01*
X59111175Y-97328909D01*
X59113236Y-97317236D01*
X59130432Y-97297822D01*
X59156567Y-97276248D01*
X59185448Y-97258096D01*
X59194522Y-97253809D01*
X59227620Y-97245256D01*
X59276120Y-97239155D01*
X59330305Y-97236708D01*
X59332839Y-97236703D01*
X59410790Y-97241555D01*
X59410790Y-97241555D01*
G37*
X59410790Y-97241555D02*
X59469945Y-97257339D01*
X59514977Y-97285948D01*
X59546754Y-97323419D01*
X59556634Y-97339411D01*
X59563927Y-97356163D01*
X59569026Y-97377592D01*
X59572321Y-97407616D01*
X59574203Y-97450154D01*
X59575063Y-97509122D01*
X59575293Y-97588440D01*
X59575297Y-97609484D01*
X59575297Y-97852822D01*
X59514941Y-97852822D01*
X59476443Y-97850126D01*
X59447977Y-97843295D01*
X59440845Y-97839083D01*
X59421348Y-97831813D01*
X59401434Y-97839083D01*
X59368647Y-97848160D01*
X59321022Y-97851813D01*
X59268236Y-97850228D01*
X59219964Y-97843589D01*
X59191782Y-97835072D01*
X59137247Y-97800063D01*
X59103165Y-97751479D01*
X59087843Y-97686882D01*
X59087701Y-97685223D01*
X59089045Y-97656566D01*
X59210644Y-97656566D01*
X59221274Y-97689161D01*
X59238590Y-97707505D01*
X59273348Y-97721379D01*
X59319227Y-97726917D01*
X59366012Y-97724191D01*
X59403486Y-97713274D01*
X59413985Y-97706269D01*
X59432332Y-97673904D01*
X59436980Y-97637111D01*
X59436980Y-97588763D01*
X59367418Y-97588763D01*
X59301333Y-97593850D01*
X59251236Y-97608263D01*
X59220071Y-97630729D01*
X59210644Y-97656566D01*
X59089045Y-97656566D01*
X59091013Y-97614647D01*
X59114290Y-97558845D01*
X59158052Y-97516647D01*
X59164101Y-97512808D01*
X59190093Y-97500309D01*
X59222265Y-97492740D01*
X59267240Y-97489061D01*
X59320669Y-97488216D01*
X59436980Y-97488169D01*
X59436980Y-97439411D01*
X59432047Y-97401581D01*
X59419457Y-97376236D01*
X59417983Y-97374887D01*
X59389966Y-97363800D01*
X59347674Y-97359503D01*
X59300936Y-97361615D01*
X59259582Y-97369756D01*
X59235043Y-97381965D01*
X59221747Y-97391746D01*
X59207706Y-97393613D01*
X59188329Y-97385600D01*
X59159024Y-97365739D01*
X59115197Y-97332063D01*
X59111175Y-97328909D01*
X59113236Y-97317236D01*
X59130432Y-97297822D01*
X59156567Y-97276248D01*
X59185448Y-97258096D01*
X59194522Y-97253809D01*
X59227620Y-97245256D01*
X59276120Y-97239155D01*
X59330305Y-97236708D01*
X59332839Y-97236703D01*
X59410790Y-97241555D01*
G36*
X58886241Y-96304184D02*
X58912753Y-96317282D01*
X58945447Y-96340106D01*
X58969275Y-96364996D01*
X58985594Y-96396249D01*
X58995760Y-96438166D01*
X59001128Y-96495044D01*
X59003056Y-96571184D01*
X59003169Y-96603917D01*
X59002839Y-96675656D01*
X59001473Y-96726927D01*
X58998500Y-96762404D01*
X58993351Y-96786763D01*
X58985457Y-96804680D01*
X58977243Y-96816902D01*
X58924813Y-96868905D01*
X58863070Y-96900184D01*
X58796464Y-96909592D01*
X58729442Y-96895980D01*
X58708208Y-96886354D01*
X58657376Y-96859859D01*
X58657376Y-97275052D01*
X58694475Y-97255868D01*
X58743357Y-97241025D01*
X58803439Y-97237222D01*
X58863436Y-97244243D01*
X58908744Y-97260013D01*
X58946325Y-97290047D01*
X58978436Y-97333024D01*
X58980850Y-97337436D01*
X58991033Y-97358221D01*
X58998470Y-97379170D01*
X59003589Y-97404548D01*
X59006819Y-97438618D01*
X59008587Y-97485641D01*
X59009323Y-97549882D01*
X59009456Y-97622176D01*
X59009456Y-97852822D01*
X58871139Y-97852822D01*
X58871139Y-97427533D01*
X58832451Y-97394979D01*
X58792262Y-97368940D01*
X58754203Y-97364205D01*
X58715934Y-97376389D01*
X58695538Y-97388320D01*
X58680358Y-97405313D01*
X58669562Y-97430995D01*
X58662317Y-97468991D01*
X58657792Y-97522926D01*
X58655156Y-97596425D01*
X58654228Y-97645347D01*
X58651089Y-97846535D01*
X58585074Y-97850336D01*
X58519060Y-97854136D01*
X58519060Y-96605650D01*
X58657376Y-96605650D01*
X58660903Y-96675254D01*
X58672785Y-96723569D01*
X58694980Y-96753631D01*
X58729441Y-96768471D01*
X58764258Y-96771436D01*
X58803671Y-96768028D01*
X58829829Y-96754617D01*
X58846186Y-96736896D01*
X58859063Y-96717835D01*
X58866728Y-96696601D01*
X58870139Y-96666849D01*
X58870251Y-96622236D01*
X58869103Y-96584880D01*
X58866468Y-96528604D01*
X58862544Y-96491658D01*
X58855937Y-96468223D01*
X58845251Y-96452480D01*
X58835167Y-96443380D01*
X58793030Y-96423537D01*
X58743160Y-96420332D01*
X58714524Y-96427168D01*
X58686172Y-96451464D01*
X58667391Y-96498728D01*
X58658288Y-96568624D01*
X58657376Y-96605650D01*
X58519060Y-96605650D01*
X58519060Y-96293614D01*
X58588218Y-96293614D01*
X58629740Y-96295256D01*
X58651162Y-96301087D01*
X58657374Y-96312461D01*
X58657376Y-96312798D01*
X58660258Y-96323938D01*
X58672970Y-96322673D01*
X58698243Y-96310433D01*
X58757131Y-96291707D01*
X58823385Y-96289739D01*
X58886241Y-96304184D01*
X58886241Y-96304184D01*
G37*
X58886241Y-96304184D02*
X58912753Y-96317282D01*
X58945447Y-96340106D01*
X58969275Y-96364996D01*
X58985594Y-96396249D01*
X58995760Y-96438166D01*
X59001128Y-96495044D01*
X59003056Y-96571184D01*
X59003169Y-96603917D01*
X59002839Y-96675656D01*
X59001473Y-96726927D01*
X58998500Y-96762404D01*
X58993351Y-96786763D01*
X58985457Y-96804680D01*
X58977243Y-96816902D01*
X58924813Y-96868905D01*
X58863070Y-96900184D01*
X58796464Y-96909592D01*
X58729442Y-96895980D01*
X58708208Y-96886354D01*
X58657376Y-96859859D01*
X58657376Y-97275052D01*
X58694475Y-97255868D01*
X58743357Y-97241025D01*
X58803439Y-97237222D01*
X58863436Y-97244243D01*
X58908744Y-97260013D01*
X58946325Y-97290047D01*
X58978436Y-97333024D01*
X58980850Y-97337436D01*
X58991033Y-97358221D01*
X58998470Y-97379170D01*
X59003589Y-97404548D01*
X59006819Y-97438618D01*
X59008587Y-97485641D01*
X59009323Y-97549882D01*
X59009456Y-97622176D01*
X59009456Y-97852822D01*
X58871139Y-97852822D01*
X58871139Y-97427533D01*
X58832451Y-97394979D01*
X58792262Y-97368940D01*
X58754203Y-97364205D01*
X58715934Y-97376389D01*
X58695538Y-97388320D01*
X58680358Y-97405313D01*
X58669562Y-97430995D01*
X58662317Y-97468991D01*
X58657792Y-97522926D01*
X58655156Y-97596425D01*
X58654228Y-97645347D01*
X58651089Y-97846535D01*
X58585074Y-97850336D01*
X58519060Y-97854136D01*
X58519060Y-96605650D01*
X58657376Y-96605650D01*
X58660903Y-96675254D01*
X58672785Y-96723569D01*
X58694980Y-96753631D01*
X58729441Y-96768471D01*
X58764258Y-96771436D01*
X58803671Y-96768028D01*
X58829829Y-96754617D01*
X58846186Y-96736896D01*
X58859063Y-96717835D01*
X58866728Y-96696601D01*
X58870139Y-96666849D01*
X58870251Y-96622236D01*
X58869103Y-96584880D01*
X58866468Y-96528604D01*
X58862544Y-96491658D01*
X58855937Y-96468223D01*
X58845251Y-96452480D01*
X58835167Y-96443380D01*
X58793030Y-96423537D01*
X58743160Y-96420332D01*
X58714524Y-96427168D01*
X58686172Y-96451464D01*
X58667391Y-96498728D01*
X58658288Y-96568624D01*
X58657376Y-96605650D01*
X58519060Y-96605650D01*
X58519060Y-96293614D01*
X58588218Y-96293614D01*
X58629740Y-96295256D01*
X58651162Y-96301087D01*
X58657374Y-96312461D01*
X58657376Y-96312798D01*
X58660258Y-96323938D01*
X58672970Y-96322673D01*
X58698243Y-96310433D01*
X58757131Y-96291707D01*
X58823385Y-96289739D01*
X58886241Y-96304184D01*
G04 #@! TO.C,TR1*
D10*
X72868095Y-118417380D02*
X73439523Y-118417380D01*
X73153809Y-119417380D02*
X73153809Y-118417380D01*
X74344285Y-119417380D02*
X74010952Y-118941190D01*
X73772857Y-119417380D02*
X73772857Y-118417380D01*
X74153809Y-118417380D01*
X74249047Y-118465000D01*
X74296666Y-118512619D01*
X74344285Y-118607857D01*
X74344285Y-118750714D01*
X74296666Y-118845952D01*
X74249047Y-118893571D01*
X74153809Y-118941190D01*
X73772857Y-118941190D01*
X75296666Y-119417380D02*
X74725238Y-119417380D01*
X75010952Y-119417380D02*
X75010952Y-118417380D01*
X74915714Y-118560238D01*
X74820476Y-118655476D01*
X74725238Y-118703095D01*
X64462380Y-123124285D02*
X64462380Y-123695714D01*
X64462380Y-123410000D02*
X63462380Y-123410000D01*
X63605238Y-123505238D01*
X63700476Y-123600476D01*
X63748095Y-123695714D01*
X63795714Y-138219523D02*
X64462380Y-138219523D01*
X63414761Y-138457619D02*
X64129047Y-138695714D01*
X64129047Y-138076666D01*
X82962380Y-133219523D02*
X82962380Y-133410000D01*
X83010000Y-133505238D01*
X83057619Y-133552857D01*
X83200476Y-133648095D01*
X83390952Y-133695714D01*
X83771904Y-133695714D01*
X83867142Y-133648095D01*
X83914761Y-133600476D01*
X83962380Y-133505238D01*
X83962380Y-133314761D01*
X83914761Y-133219523D01*
X83867142Y-133171904D01*
X83771904Y-133124285D01*
X83533809Y-133124285D01*
X83438571Y-133171904D01*
X83390952Y-133219523D01*
X83343333Y-133314761D01*
X83343333Y-133505238D01*
X83390952Y-133600476D01*
X83438571Y-133648095D01*
X83533809Y-133695714D01*
X82962380Y-128743333D02*
X82962380Y-128076666D01*
X83962380Y-128505238D01*
G04 #@! TO.C,HS1*
X85591904Y-92747380D02*
X85591904Y-91747380D01*
X85591904Y-92223571D02*
X86163333Y-92223571D01*
X86163333Y-92747380D02*
X86163333Y-91747380D01*
X86591904Y-92699761D02*
X86734761Y-92747380D01*
X86972857Y-92747380D01*
X87068095Y-92699761D01*
X87115714Y-92652142D01*
X87163333Y-92556904D01*
X87163333Y-92461666D01*
X87115714Y-92366428D01*
X87068095Y-92318809D01*
X86972857Y-92271190D01*
X86782380Y-92223571D01*
X86687142Y-92175952D01*
X86639523Y-92128333D01*
X86591904Y-92033095D01*
X86591904Y-91937857D01*
X86639523Y-91842619D01*
X86687142Y-91795000D01*
X86782380Y-91747380D01*
X87020476Y-91747380D01*
X87163333Y-91795000D01*
X88115714Y-92747380D02*
X87544285Y-92747380D01*
X87830000Y-92747380D02*
X87830000Y-91747380D01*
X87734761Y-91890238D01*
X87639523Y-91985476D01*
X87544285Y-92033095D01*
G04 #@! TO.C,D1*
X92451904Y-134022380D02*
X92451904Y-133022380D01*
X92690000Y-133022380D01*
X92832857Y-133070000D01*
X92928095Y-133165238D01*
X92975714Y-133260476D01*
X93023333Y-133450952D01*
X93023333Y-133593809D01*
X92975714Y-133784285D01*
X92928095Y-133879523D01*
X92832857Y-133974761D01*
X92690000Y-134022380D01*
X92451904Y-134022380D01*
X93975714Y-134022380D02*
X93404285Y-134022380D01*
X93690000Y-134022380D02*
X93690000Y-133022380D01*
X93594761Y-133165238D01*
X93499523Y-133260476D01*
X93404285Y-133308095D01*
G04 #@! TO.C,D2*
X74661904Y-92747380D02*
X74661904Y-91747380D01*
X74900000Y-91747380D01*
X75042857Y-91795000D01*
X75138095Y-91890238D01*
X75185714Y-91985476D01*
X75233333Y-92175952D01*
X75233333Y-92318809D01*
X75185714Y-92509285D01*
X75138095Y-92604523D01*
X75042857Y-92699761D01*
X74900000Y-92747380D01*
X74661904Y-92747380D01*
X75614285Y-91842619D02*
X75661904Y-91795000D01*
X75757142Y-91747380D01*
X75995238Y-91747380D01*
X76090476Y-91795000D01*
X76138095Y-91842619D01*
X76185714Y-91937857D01*
X76185714Y-92033095D01*
X76138095Y-92175952D01*
X75566666Y-92747380D01*
X76185714Y-92747380D01*
G04 #@! TO.C,U2*
X106352380Y-122901904D02*
X107161904Y-122901904D01*
X107257142Y-122854285D01*
X107304761Y-122806666D01*
X107352380Y-122711428D01*
X107352380Y-122520952D01*
X107304761Y-122425714D01*
X107257142Y-122378095D01*
X107161904Y-122330476D01*
X106352380Y-122330476D01*
X106447619Y-121901904D02*
X106400000Y-121854285D01*
X106352380Y-121759047D01*
X106352380Y-121520952D01*
X106400000Y-121425714D01*
X106447619Y-121378095D01*
X106542857Y-121330476D01*
X106638095Y-121330476D01*
X106780952Y-121378095D01*
X107352380Y-121949523D01*
X107352380Y-121330476D01*
G04 #@! TO.C,U3*
X70828095Y-106352380D02*
X70828095Y-107161904D01*
X70875714Y-107257142D01*
X70923333Y-107304761D01*
X71018571Y-107352380D01*
X71209047Y-107352380D01*
X71304285Y-107304761D01*
X71351904Y-107257142D01*
X71399523Y-107161904D01*
X71399523Y-106352380D01*
X71780476Y-106352380D02*
X72399523Y-106352380D01*
X72066190Y-106733333D01*
X72209047Y-106733333D01*
X72304285Y-106780952D01*
X72351904Y-106828571D01*
X72399523Y-106923809D01*
X72399523Y-107161904D01*
X72351904Y-107257142D01*
X72304285Y-107304761D01*
X72209047Y-107352380D01*
X71923333Y-107352380D01*
X71828095Y-107304761D01*
X71780476Y-107257142D01*
G04 #@! TO.C,U1*
X92418095Y-115242380D02*
X92418095Y-116051904D01*
X92465714Y-116147142D01*
X92513333Y-116194761D01*
X92608571Y-116242380D01*
X92799047Y-116242380D01*
X92894285Y-116194761D01*
X92941904Y-116147142D01*
X92989523Y-116051904D01*
X92989523Y-115242380D01*
X93989523Y-116242380D02*
X93418095Y-116242380D01*
X93703809Y-116242380D02*
X93703809Y-115242380D01*
X93608571Y-115385238D01*
X93513333Y-115480476D01*
X93418095Y-115528095D01*
G04 #@! TO.C,C3*
X95553333Y-115512142D02*
X95505714Y-115559761D01*
X95362857Y-115607380D01*
X95267619Y-115607380D01*
X95124761Y-115559761D01*
X95029523Y-115464523D01*
X94981904Y-115369285D01*
X94934285Y-115178809D01*
X94934285Y-115035952D01*
X94981904Y-114845476D01*
X95029523Y-114750238D01*
X95124761Y-114655000D01*
X95267619Y-114607380D01*
X95362857Y-114607380D01*
X95505714Y-114655000D01*
X95553333Y-114702619D01*
X95886666Y-114607380D02*
X96505714Y-114607380D01*
X96172380Y-114988333D01*
X96315238Y-114988333D01*
X96410476Y-115035952D01*
X96458095Y-115083571D01*
X96505714Y-115178809D01*
X96505714Y-115416904D01*
X96458095Y-115512142D01*
X96410476Y-115559761D01*
X96315238Y-115607380D01*
X96029523Y-115607380D01*
X95934285Y-115559761D01*
X95886666Y-115512142D01*
G04 #@! TO.C,C2*
X108947142Y-131676666D02*
X108994761Y-131724285D01*
X109042380Y-131867142D01*
X109042380Y-131962380D01*
X108994761Y-132105238D01*
X108899523Y-132200476D01*
X108804285Y-132248095D01*
X108613809Y-132295714D01*
X108470952Y-132295714D01*
X108280476Y-132248095D01*
X108185238Y-132200476D01*
X108090000Y-132105238D01*
X108042380Y-131962380D01*
X108042380Y-131867142D01*
X108090000Y-131724285D01*
X108137619Y-131676666D01*
X108137619Y-131295714D02*
X108090000Y-131248095D01*
X108042380Y-131152857D01*
X108042380Y-130914761D01*
X108090000Y-130819523D01*
X108137619Y-130771904D01*
X108232857Y-130724285D01*
X108328095Y-130724285D01*
X108470952Y-130771904D01*
X109042380Y-131343333D01*
X109042380Y-130724285D01*
G04 #@! TO.C,C1*
X93013333Y-132022142D02*
X92965714Y-132069761D01*
X92822857Y-132117380D01*
X92727619Y-132117380D01*
X92584761Y-132069761D01*
X92489523Y-131974523D01*
X92441904Y-131879285D01*
X92394285Y-131688809D01*
X92394285Y-131545952D01*
X92441904Y-131355476D01*
X92489523Y-131260238D01*
X92584761Y-131165000D01*
X92727619Y-131117380D01*
X92822857Y-131117380D01*
X92965714Y-131165000D01*
X93013333Y-131212619D01*
X93965714Y-132117380D02*
X93394285Y-132117380D01*
X93680000Y-132117380D02*
X93680000Y-131117380D01*
X93584761Y-131260238D01*
X93489523Y-131355476D01*
X93394285Y-131403095D01*
G04 #@! TO.C,R1*
X84123333Y-116242380D02*
X83790000Y-115766190D01*
X83551904Y-116242380D02*
X83551904Y-115242380D01*
X83932857Y-115242380D01*
X84028095Y-115290000D01*
X84075714Y-115337619D01*
X84123333Y-115432857D01*
X84123333Y-115575714D01*
X84075714Y-115670952D01*
X84028095Y-115718571D01*
X83932857Y-115766190D01*
X83551904Y-115766190D01*
X85075714Y-116242380D02*
X84504285Y-116242380D01*
X84790000Y-116242380D02*
X84790000Y-115242380D01*
X84694761Y-115385238D01*
X84599523Y-115480476D01*
X84504285Y-115528095D01*
G04 #@! TO.C,R3*
X84123333Y-107352380D02*
X83790000Y-106876190D01*
X83551904Y-107352380D02*
X83551904Y-106352380D01*
X83932857Y-106352380D01*
X84028095Y-106400000D01*
X84075714Y-106447619D01*
X84123333Y-106542857D01*
X84123333Y-106685714D01*
X84075714Y-106780952D01*
X84028095Y-106828571D01*
X83932857Y-106876190D01*
X83551904Y-106876190D01*
X84456666Y-106352380D02*
X85075714Y-106352380D01*
X84742380Y-106733333D01*
X84885238Y-106733333D01*
X84980476Y-106780952D01*
X85028095Y-106828571D01*
X85075714Y-106923809D01*
X85075714Y-107161904D01*
X85028095Y-107257142D01*
X84980476Y-107304761D01*
X84885238Y-107352380D01*
X84599523Y-107352380D01*
X84504285Y-107304761D01*
X84456666Y-107257142D01*
G04 #@! TO.C,J1*
X52206666Y-123497380D02*
X52206666Y-124211666D01*
X52159047Y-124354523D01*
X52063809Y-124449761D01*
X51920952Y-124497380D01*
X51825714Y-124497380D01*
X53206666Y-124497380D02*
X52635238Y-124497380D01*
X52920952Y-124497380D02*
X52920952Y-123497380D01*
X52825714Y-123640238D01*
X52730476Y-123735476D01*
X52635238Y-123783095D01*
G04 #@! TO.C,J2*
X52206666Y-101272380D02*
X52206666Y-101986666D01*
X52159047Y-102129523D01*
X52063809Y-102224761D01*
X51920952Y-102272380D01*
X51825714Y-102272380D01*
X52635238Y-101367619D02*
X52682857Y-101320000D01*
X52778095Y-101272380D01*
X53016190Y-101272380D01*
X53111428Y-101320000D01*
X53159047Y-101367619D01*
X53206666Y-101462857D01*
X53206666Y-101558095D01*
X53159047Y-101700952D01*
X52587619Y-102272380D01*
X53206666Y-102272380D01*
G04 #@! TO.C,J3*
X99272380Y-111003333D02*
X99986666Y-111003333D01*
X100129523Y-111050952D01*
X100224761Y-111146190D01*
X100272380Y-111289047D01*
X100272380Y-111384285D01*
X99272380Y-110622380D02*
X99272380Y-110003333D01*
X99653333Y-110336666D01*
X99653333Y-110193809D01*
X99700952Y-110098571D01*
X99748571Y-110050952D01*
X99843809Y-110003333D01*
X100081904Y-110003333D01*
X100177142Y-110050952D01*
X100224761Y-110098571D01*
X100272380Y-110193809D01*
X100272380Y-110479523D01*
X100224761Y-110574761D01*
X100177142Y-110622380D01*
G04 #@! TO.C,J4*
X89032380Y-102153333D02*
X89746666Y-102153333D01*
X89889523Y-102200952D01*
X89984761Y-102296190D01*
X90032380Y-102439047D01*
X90032380Y-102534285D01*
X89365714Y-101248571D02*
X90032380Y-101248571D01*
X88984761Y-101486666D02*
X89699047Y-101724761D01*
X89699047Y-101105714D01*
G04 #@! TO.C,J5*
X89032380Y-98343333D02*
X89746666Y-98343333D01*
X89889523Y-98390952D01*
X89984761Y-98486190D01*
X90032380Y-98629047D01*
X90032380Y-98724285D01*
X89032380Y-97390952D02*
X89032380Y-97867142D01*
X89508571Y-97914761D01*
X89460952Y-97867142D01*
X89413333Y-97771904D01*
X89413333Y-97533809D01*
X89460952Y-97438571D01*
X89508571Y-97390952D01*
X89603809Y-97343333D01*
X89841904Y-97343333D01*
X89937142Y-97390952D01*
X89984761Y-97438571D01*
X90032380Y-97533809D01*
X90032380Y-97771904D01*
X89984761Y-97867142D01*
X89937142Y-97914761D01*
G04 #@! TO.C,J6*
X89032380Y-94533333D02*
X89746666Y-94533333D01*
X89889523Y-94580952D01*
X89984761Y-94676190D01*
X90032380Y-94819047D01*
X90032380Y-94914285D01*
X89032380Y-93628571D02*
X89032380Y-93819047D01*
X89080000Y-93914285D01*
X89127619Y-93961904D01*
X89270476Y-94057142D01*
X89460952Y-94104761D01*
X89841904Y-94104761D01*
X89937142Y-94057142D01*
X89984761Y-94009523D01*
X90032380Y-93914285D01*
X90032380Y-93723809D01*
X89984761Y-93628571D01*
X89937142Y-93580952D01*
X89841904Y-93533333D01*
X89603809Y-93533333D01*
X89508571Y-93580952D01*
X89460952Y-93628571D01*
X89413333Y-93723809D01*
X89413333Y-93914285D01*
X89460952Y-94009523D01*
X89508571Y-94057142D01*
X89603809Y-94104761D01*
G04 #@! TO.C,F1*
X56016666Y-135403571D02*
X55683333Y-135403571D01*
X55683333Y-135927380D02*
X55683333Y-134927380D01*
X56159523Y-134927380D01*
X57064285Y-135927380D02*
X56492857Y-135927380D01*
X56778571Y-135927380D02*
X56778571Y-134927380D01*
X56683333Y-135070238D01*
X56588095Y-135165476D01*
X56492857Y-135213095D01*
G04 #@! TO.C,R2*
X65522380Y-110876666D02*
X65046190Y-111210000D01*
X65522380Y-111448095D02*
X64522380Y-111448095D01*
X64522380Y-111067142D01*
X64570000Y-110971904D01*
X64617619Y-110924285D01*
X64712857Y-110876666D01*
X64855714Y-110876666D01*
X64950952Y-110924285D01*
X64998571Y-110971904D01*
X65046190Y-111067142D01*
X65046190Y-111448095D01*
X64617619Y-110495714D02*
X64570000Y-110448095D01*
X64522380Y-110352857D01*
X64522380Y-110114761D01*
X64570000Y-110019523D01*
X64617619Y-109971904D01*
X64712857Y-109924285D01*
X64808095Y-109924285D01*
X64950952Y-109971904D01*
X65522380Y-110543333D01*
X65522380Y-109924285D01*
G04 #@! TD*
M02*
