G04 #@! TF.GenerationSoftware,KiCad,Pcbnew,5.0.0+dfsg1-2~bpo9+1*
G04 #@! TF.CreationDate,2018-10-31T22:12:08+01:00*
G04 #@! TF.ProjectId,minipid,6D696E697069642E6B696361645F7063,rev?*
G04 #@! TF.SameCoordinates,Original*
G04 #@! TF.FileFunction,Copper,L2,Bot,Signal*
G04 #@! TF.FilePolarity,Positive*
%FSLAX46Y46*%
G04 Gerber Fmt 4.6, Leading zero omitted, Abs format (unit mm)*
G04 Created by KiCad (PCBNEW 5.0.0+dfsg1-2~bpo9+1) date Wed Oct 31 22:12:08 2018*
%MOMM*%
%LPD*%
G01*
G04 APERTURE LIST*
G04 #@! TA.AperFunction,ComponentPad*
%ADD10C,2.000000*%
G04 #@! TD*
G04 #@! TA.AperFunction,ComponentPad*
%ADD11R,2.000000X2.000000*%
G04 #@! TD*
G04 #@! TA.AperFunction,ComponentPad*
%ADD12C,3.000000*%
G04 #@! TD*
G04 #@! TA.AperFunction,ComponentPad*
%ADD13O,1.600000X1.600000*%
G04 #@! TD*
G04 #@! TA.AperFunction,ComponentPad*
%ADD14R,1.600000X1.600000*%
G04 #@! TD*
G04 #@! TA.AperFunction,ComponentPad*
%ADD15R,2.000000X1.905000*%
G04 #@! TD*
G04 #@! TA.AperFunction,ComponentPad*
%ADD16O,2.000000X1.905000*%
G04 #@! TD*
G04 #@! TA.AperFunction,ComponentPad*
%ADD17O,1.500000X1.050000*%
G04 #@! TD*
G04 #@! TA.AperFunction,ComponentPad*
%ADD18R,1.500000X1.050000*%
G04 #@! TD*
G04 #@! TA.AperFunction,ComponentPad*
%ADD19C,1.600000*%
G04 #@! TD*
G04 #@! TA.AperFunction,ComponentPad*
%ADD20R,2.500000X2.500000*%
G04 #@! TD*
G04 #@! TA.AperFunction,ComponentPad*
%ADD21C,2.500000*%
G04 #@! TD*
G04 #@! TA.AperFunction,ComponentPad*
%ADD22R,1.700000X1.700000*%
G04 #@! TD*
G04 #@! TA.AperFunction,ComponentPad*
%ADD23O,1.700000X1.700000*%
G04 #@! TD*
G04 #@! TA.AperFunction,ViaPad*
%ADD24C,0.800000*%
G04 #@! TD*
G04 #@! TA.AperFunction,Conductor*
%ADD25C,1.500000*%
G04 #@! TD*
G04 #@! TA.AperFunction,Conductor*
%ADD26C,0.200000*%
G04 #@! TD*
G04 #@! TA.AperFunction,Conductor*
%ADD27C,0.500000*%
G04 #@! TD*
G04 #@! TA.AperFunction,Conductor*
%ADD28C,0.254000*%
G04 #@! TD*
G04 APERTURE END LIST*
D10*
G04 #@! TO.P,TR1,7*
G04 #@! TO.N,Net-(D1-Pad3)*
X81510000Y-128410000D03*
G04 #@! TO.P,TR1,6*
G04 #@! TO.N,Net-(D1-Pad4)*
X81510000Y-133410000D03*
G04 #@! TO.P,TR1,4*
G04 #@! TO.N,Net-(F1-Pad2)*
X66510000Y-138410000D03*
D11*
G04 #@! TO.P,TR1,1*
G04 #@! TO.N,Net-(J1-Pad1)*
X66510000Y-123410000D03*
G04 #@! TD*
D12*
G04 #@! TO.P,HS1,1*
G04 #@! TO.N,Net-(HS1-Pad1)*
X84036000Y-98010000D03*
G04 #@! TD*
D13*
G04 #@! TO.P,D1,4*
G04 #@! TO.N,Net-(D1-Pad4)*
X89370000Y-141190000D03*
G04 #@! TO.P,D1,2*
G04 #@! TO.N,GND*
X96990000Y-136110000D03*
G04 #@! TO.P,D1,3*
G04 #@! TO.N,Net-(D1-Pad3)*
X89370000Y-136110000D03*
D14*
G04 #@! TO.P,D1,1*
G04 #@! TO.N,Net-(C2-Pad1)*
X96990000Y-141190000D03*
G04 #@! TD*
D15*
G04 #@! TO.P,D2,1*
G04 #@! TO.N,Net-(D2-Pad1)*
X65240000Y-95470000D03*
D16*
G04 #@! TO.P,D2,2*
G04 #@! TO.N,Net-(D2-Pad2)*
X65240000Y-98010000D03*
G04 #@! TO.P,D2,3*
G04 #@! TO.N,Net-(D2-Pad3)*
X65240000Y-100550000D03*
G04 #@! TD*
D17*
G04 #@! TO.P,U2,2*
G04 #@! TO.N,GND*
X103340000Y-122140000D03*
G04 #@! TO.P,U2,3*
G04 #@! TO.N,Net-(C2-Pad1)*
X103340000Y-123410000D03*
D18*
G04 #@! TO.P,U2,1*
G04 #@! TO.N,VCC*
X103340000Y-120870000D03*
G04 #@! TD*
D14*
G04 #@! TO.P,U3,1*
G04 #@! TO.N,Net-(R1-Pad1)*
X75400000Y-114520000D03*
D13*
G04 #@! TO.P,U3,4*
G04 #@! TO.N,Net-(D2-Pad3)*
X67780000Y-109440000D03*
G04 #@! TO.P,U3,2*
G04 #@! TO.N,GND*
X75400000Y-111980000D03*
G04 #@! TO.P,U3,5*
G04 #@! TO.N,Net-(U3-Pad5)*
X67780000Y-111980000D03*
G04 #@! TO.P,U3,3*
G04 #@! TO.N,Net-(U3-Pad3)*
X75400000Y-109440000D03*
G04 #@! TO.P,U3,6*
G04 #@! TO.N,Net-(R2-Pad2)*
X67780000Y-114520000D03*
G04 #@! TD*
D14*
G04 #@! TO.P,U1,1*
G04 #@! TO.N,RST#*
X96990000Y-125950000D03*
D13*
G04 #@! TO.P,U1,5*
G04 #@! TO.N,MOSI_SDA_RX*
X89370000Y-118330000D03*
G04 #@! TO.P,U1,2*
G04 #@! TO.N,AIN*
X96990000Y-123410000D03*
G04 #@! TO.P,U1,6*
G04 #@! TO.N,MISO_TX*
X89370000Y-120870000D03*
G04 #@! TO.P,U1,3*
G04 #@! TO.N,OUT*
X96990000Y-120870000D03*
G04 #@! TO.P,U1,7*
G04 #@! TO.N,SCK_SCL*
X89370000Y-123410000D03*
G04 #@! TO.P,U1,4*
G04 #@! TO.N,GND*
X96990000Y-118330000D03*
G04 #@! TO.P,U1,8*
G04 #@! TO.N,VCC*
X89370000Y-125950000D03*
G04 #@! TD*
D14*
G04 #@! TO.P,C3,1*
G04 #@! TO.N,VCC*
X95720000Y-109440000D03*
D19*
G04 #@! TO.P,C3,2*
G04 #@! TO.N,GND*
X95720000Y-111940000D03*
G04 #@! TD*
D14*
G04 #@! TO.P,C2,1*
G04 #@! TO.N,Net-(C2-Pad1)*
X103340000Y-129760000D03*
D19*
G04 #@! TO.P,C2,2*
G04 #@! TO.N,GND*
X103340000Y-133260000D03*
G04 #@! TD*
G04 #@! TO.P,C1,1*
G04 #@! TO.N,VCC*
X90720000Y-129760000D03*
G04 #@! TO.P,C1,2*
G04 #@! TO.N,GND*
X95720000Y-129760000D03*
G04 #@! TD*
D13*
G04 #@! TO.P,R1,2*
G04 #@! TO.N,OUT*
X89370000Y-113250000D03*
D19*
G04 #@! TO.P,R1,1*
G04 #@! TO.N,Net-(R1-Pad1)*
X79210000Y-113250000D03*
G04 #@! TD*
G04 #@! TO.P,R3,1*
G04 #@! TO.N,VCC*
X89370000Y-109440000D03*
D13*
G04 #@! TO.P,R3,2*
G04 #@! TO.N,AIN*
X79210000Y-109440000D03*
G04 #@! TD*
D20*
G04 #@! TO.P,J1,1*
G04 #@! TO.N,Net-(J1-Pad1)*
X54610000Y-115570000D03*
D21*
G04 #@! TO.P,J1,2*
G04 #@! TO.N,Net-(F1-Pad1)*
X54610000Y-120570000D03*
G04 #@! TD*
G04 #@! TO.P,J2,2*
G04 #@! TO.N,Net-(D2-Pad2)*
X54610000Y-110410000D03*
D20*
G04 #@! TO.P,J2,1*
G04 #@! TO.N,Net-(D2-Pad1)*
X54610000Y-105410000D03*
G04 #@! TD*
G04 #@! TO.P,J3,1*
G04 #@! TO.N,AIN*
X105880000Y-113170000D03*
D21*
G04 #@! TO.P,J3,2*
G04 #@! TO.N,GND*
X105880000Y-108170000D03*
G04 #@! TD*
D22*
G04 #@! TO.P,J4,1*
G04 #@! TO.N,RST#*
X91910000Y-101820000D03*
D23*
G04 #@! TO.P,J4,2*
G04 #@! TO.N,SCK_SCL*
X94450000Y-101820000D03*
G04 #@! TO.P,J4,3*
G04 #@! TO.N,MOSI_SDA_RX*
X96990000Y-101820000D03*
G04 #@! TO.P,J4,4*
G04 #@! TO.N,MISO_TX*
X99530000Y-101820000D03*
G04 #@! TO.P,J4,5*
G04 #@! TO.N,GND*
X102070000Y-101820000D03*
G04 #@! TD*
D22*
G04 #@! TO.P,J5,1*
G04 #@! TO.N,SCK_SCL*
X91910000Y-98010000D03*
D23*
G04 #@! TO.P,J5,2*
G04 #@! TO.N,MOSI_SDA_RX*
X94450000Y-98010000D03*
G04 #@! TO.P,J5,3*
G04 #@! TO.N,VCC*
X96990000Y-98010000D03*
G04 #@! TO.P,J5,4*
G04 #@! TO.N,GND*
X99530000Y-98010000D03*
G04 #@! TD*
D22*
G04 #@! TO.P,J6,1*
G04 #@! TO.N,MISO_TX*
X91910000Y-94200000D03*
D23*
G04 #@! TO.P,J6,2*
G04 #@! TO.N,MOSI_SDA_RX*
X94450000Y-94200000D03*
G04 #@! TO.P,J6,3*
G04 #@! TO.N,GND*
X96990000Y-94200000D03*
G04 #@! TD*
D10*
G04 #@! TO.P,F1,1*
G04 #@! TO.N,Net-(F1-Pad1)*
X53810000Y-129760000D03*
G04 #@! TO.P,F1,2*
G04 #@! TO.N,Net-(F1-Pad2)*
X58890000Y-129770000D03*
G04 #@! TD*
D19*
G04 #@! TO.P,R2,1*
G04 #@! TO.N,Net-(D2-Pad2)*
X62700000Y-105630000D03*
D13*
G04 #@! TO.P,R2,2*
G04 #@! TO.N,Net-(R2-Pad2)*
X62700000Y-115790000D03*
G04 #@! TD*
D24*
G04 #@! TO.N,AIN*
X102578000Y-113250000D03*
X100546000Y-115282000D03*
G04 #@! TD*
D25*
G04 #@! TO.N,Net-(F1-Pad2)*
X58890000Y-130790000D02*
X66510000Y-138410000D01*
X58890000Y-129770000D02*
X58890000Y-130790000D01*
D26*
G04 #@! TO.N,AIN*
X102578000Y-113250000D02*
X100546000Y-115282000D01*
D25*
G04 #@! TO.N,Net-(D2-Pad1)*
X65240000Y-95470000D02*
X61430000Y-95470000D01*
X54610000Y-102290000D02*
X54610000Y-105410000D01*
X61430000Y-95470000D02*
X54610000Y-102290000D01*
G04 #@! TO.N,Net-(D2-Pad2)*
X62740000Y-98010000D02*
X61430000Y-99320000D01*
X65240000Y-98010000D02*
X62740000Y-98010000D01*
X61430000Y-104360000D02*
X62700000Y-105630000D01*
X61430000Y-99320000D02*
X61430000Y-104360000D01*
X59390000Y-105630000D02*
X54610000Y-110410000D01*
X62700000Y-105630000D02*
X59390000Y-105630000D01*
D27*
G04 #@! TO.N,Net-(D2-Pad3)*
X67380000Y-109440000D02*
X67780000Y-109440000D01*
X65240000Y-107300000D02*
X67380000Y-109440000D01*
X65240000Y-100550000D02*
X65240000Y-107300000D01*
D25*
G04 #@! TO.N,Net-(F1-Pad1)*
X54610000Y-128960000D02*
X53810000Y-129760000D01*
X54610000Y-120570000D02*
X54610000Y-128960000D01*
D27*
G04 #@! TO.N,Net-(R2-Pad2)*
X66510000Y-115790000D02*
X67780000Y-114520000D01*
X62700000Y-115790000D02*
X66510000Y-115790000D01*
D25*
G04 #@! TO.N,Net-(J1-Pad1)*
X57360000Y-115570000D02*
X58890000Y-117100000D01*
X54610000Y-115570000D02*
X57360000Y-115570000D01*
X58890000Y-117100000D02*
X58890000Y-122140000D01*
X60160000Y-123410000D02*
X66510000Y-123410000D01*
X58890000Y-122140000D02*
X60160000Y-123410000D01*
G04 #@! TD*
D28*
G04 #@! TO.N,GND*
G36*
X108293000Y-143603000D02*
X75527000Y-143603000D01*
X75527000Y-141190000D01*
X87906887Y-141190000D01*
X88018260Y-141749909D01*
X88335423Y-142224577D01*
X88810091Y-142541740D01*
X89228667Y-142625000D01*
X89511333Y-142625000D01*
X89929909Y-142541740D01*
X90404577Y-142224577D01*
X90721740Y-141749909D01*
X90833113Y-141190000D01*
X90721740Y-140630091D01*
X90561317Y-140390000D01*
X95542560Y-140390000D01*
X95542560Y-141990000D01*
X95591843Y-142237765D01*
X95732191Y-142447809D01*
X95942235Y-142588157D01*
X96190000Y-142637440D01*
X97790000Y-142637440D01*
X98037765Y-142588157D01*
X98247809Y-142447809D01*
X98388157Y-142237765D01*
X98437440Y-141990000D01*
X98437440Y-140390000D01*
X98388157Y-140142235D01*
X98247809Y-139932191D01*
X98037765Y-139791843D01*
X97790000Y-139742560D01*
X96190000Y-139742560D01*
X95942235Y-139791843D01*
X95732191Y-139932191D01*
X95591843Y-140142235D01*
X95542560Y-140390000D01*
X90561317Y-140390000D01*
X90404577Y-140155423D01*
X89929909Y-139838260D01*
X89511333Y-139755000D01*
X89228667Y-139755000D01*
X88810091Y-139838260D01*
X88335423Y-140155423D01*
X88018260Y-140630091D01*
X87906887Y-141190000D01*
X75527000Y-141190000D01*
X75527000Y-139555431D01*
X102765000Y-139555431D01*
X102765000Y-140444569D01*
X103105259Y-141266026D01*
X103733974Y-141894741D01*
X104555431Y-142235000D01*
X105444569Y-142235000D01*
X106266026Y-141894741D01*
X106894741Y-141266026D01*
X107235000Y-140444569D01*
X107235000Y-139555431D01*
X106894741Y-138733974D01*
X106266026Y-138105259D01*
X105444569Y-137765000D01*
X104555431Y-137765000D01*
X103733974Y-138105259D01*
X103105259Y-138733974D01*
X102765000Y-139555431D01*
X75527000Y-139555431D01*
X75527000Y-136110000D01*
X87906887Y-136110000D01*
X88018260Y-136669909D01*
X88335423Y-137144577D01*
X88810091Y-137461740D01*
X89228667Y-137545000D01*
X89511333Y-137545000D01*
X89929909Y-137461740D01*
X90404577Y-137144577D01*
X90721740Y-136669909D01*
X90763684Y-136459039D01*
X95598096Y-136459039D01*
X95758959Y-136847423D01*
X96134866Y-137262389D01*
X96640959Y-137501914D01*
X96863000Y-137380629D01*
X96863000Y-136237000D01*
X97117000Y-136237000D01*
X97117000Y-137380629D01*
X97339041Y-137501914D01*
X97845134Y-137262389D01*
X98221041Y-136847423D01*
X98381904Y-136459039D01*
X98259915Y-136237000D01*
X97117000Y-136237000D01*
X96863000Y-136237000D01*
X95720085Y-136237000D01*
X95598096Y-136459039D01*
X90763684Y-136459039D01*
X90833113Y-136110000D01*
X90763685Y-135760961D01*
X95598096Y-135760961D01*
X95720085Y-135983000D01*
X96863000Y-135983000D01*
X96863000Y-134839371D01*
X97117000Y-134839371D01*
X97117000Y-135983000D01*
X98259915Y-135983000D01*
X98381904Y-135760961D01*
X98221041Y-135372577D01*
X97845134Y-134957611D01*
X97339041Y-134718086D01*
X97117000Y-134839371D01*
X96863000Y-134839371D01*
X96640959Y-134718086D01*
X96134866Y-134957611D01*
X95758959Y-135372577D01*
X95598096Y-135760961D01*
X90763685Y-135760961D01*
X90721740Y-135550091D01*
X90404577Y-135075423D01*
X89929909Y-134758260D01*
X89511333Y-134675000D01*
X89228667Y-134675000D01*
X88810091Y-134758260D01*
X88335423Y-135075423D01*
X88018260Y-135550091D01*
X87906887Y-136110000D01*
X75527000Y-136110000D01*
X75527000Y-133084778D01*
X79875000Y-133084778D01*
X79875000Y-133735222D01*
X80123914Y-134336153D01*
X80583847Y-134796086D01*
X81184778Y-135045000D01*
X81835222Y-135045000D01*
X82436153Y-134796086D01*
X82896086Y-134336153D01*
X82924421Y-134267745D01*
X102511861Y-134267745D01*
X102585995Y-134513864D01*
X103123223Y-134706965D01*
X103693454Y-134679778D01*
X104094005Y-134513864D01*
X104168139Y-134267745D01*
X103340000Y-133439605D01*
X102511861Y-134267745D01*
X82924421Y-134267745D01*
X83145000Y-133735222D01*
X83145000Y-133084778D01*
X83127788Y-133043223D01*
X101893035Y-133043223D01*
X101920222Y-133613454D01*
X102086136Y-134014005D01*
X102332255Y-134088139D01*
X103160395Y-133260000D01*
X103519605Y-133260000D01*
X104347745Y-134088139D01*
X104593864Y-134014005D01*
X104786965Y-133476777D01*
X104759778Y-132906546D01*
X104593864Y-132505995D01*
X104347745Y-132431861D01*
X103519605Y-133260000D01*
X103160395Y-133260000D01*
X102332255Y-132431861D01*
X102086136Y-132505995D01*
X101893035Y-133043223D01*
X83127788Y-133043223D01*
X82896086Y-132483847D01*
X82664494Y-132252255D01*
X102511861Y-132252255D01*
X103340000Y-133080395D01*
X104168139Y-132252255D01*
X104094005Y-132006136D01*
X103556777Y-131813035D01*
X102986546Y-131840222D01*
X102585995Y-132006136D01*
X102511861Y-132252255D01*
X82664494Y-132252255D01*
X82436153Y-132023914D01*
X81835222Y-131775000D01*
X81184778Y-131775000D01*
X80583847Y-132023914D01*
X80123914Y-132483847D01*
X79875000Y-133084778D01*
X75527000Y-133084778D01*
X75527000Y-128084778D01*
X79875000Y-128084778D01*
X79875000Y-128735222D01*
X80123914Y-129336153D01*
X80583847Y-129796086D01*
X81184778Y-130045000D01*
X81835222Y-130045000D01*
X82436153Y-129796086D01*
X82757678Y-129474561D01*
X89285000Y-129474561D01*
X89285000Y-130045439D01*
X89503466Y-130572862D01*
X89907138Y-130976534D01*
X90434561Y-131195000D01*
X91005439Y-131195000D01*
X91532862Y-130976534D01*
X91741651Y-130767745D01*
X94891861Y-130767745D01*
X94965995Y-131013864D01*
X95503223Y-131206965D01*
X96073454Y-131179778D01*
X96474005Y-131013864D01*
X96548139Y-130767745D01*
X95720000Y-129939605D01*
X94891861Y-130767745D01*
X91741651Y-130767745D01*
X91936534Y-130572862D01*
X92155000Y-130045439D01*
X92155000Y-129543223D01*
X94273035Y-129543223D01*
X94300222Y-130113454D01*
X94466136Y-130514005D01*
X94712255Y-130588139D01*
X95540395Y-129760000D01*
X95899605Y-129760000D01*
X96727745Y-130588139D01*
X96973864Y-130514005D01*
X97166965Y-129976777D01*
X97139778Y-129406546D01*
X96973864Y-129005995D01*
X96821165Y-128960000D01*
X101892560Y-128960000D01*
X101892560Y-130560000D01*
X101941843Y-130807765D01*
X102082191Y-131017809D01*
X102292235Y-131158157D01*
X102540000Y-131207440D01*
X104140000Y-131207440D01*
X104387765Y-131158157D01*
X104597809Y-131017809D01*
X104738157Y-130807765D01*
X104787440Y-130560000D01*
X104787440Y-128960000D01*
X104738157Y-128712235D01*
X104597809Y-128502191D01*
X104387765Y-128361843D01*
X104140000Y-128312560D01*
X102540000Y-128312560D01*
X102292235Y-128361843D01*
X102082191Y-128502191D01*
X101941843Y-128712235D01*
X101892560Y-128960000D01*
X96821165Y-128960000D01*
X96727745Y-128931861D01*
X95899605Y-129760000D01*
X95540395Y-129760000D01*
X94712255Y-128931861D01*
X94466136Y-129005995D01*
X94273035Y-129543223D01*
X92155000Y-129543223D01*
X92155000Y-129474561D01*
X91936534Y-128947138D01*
X91741651Y-128752255D01*
X94891861Y-128752255D01*
X95720000Y-129580395D01*
X96548139Y-128752255D01*
X96474005Y-128506136D01*
X95936777Y-128313035D01*
X95366546Y-128340222D01*
X94965995Y-128506136D01*
X94891861Y-128752255D01*
X91741651Y-128752255D01*
X91532862Y-128543466D01*
X91005439Y-128325000D01*
X90434561Y-128325000D01*
X89907138Y-128543466D01*
X89503466Y-128947138D01*
X89285000Y-129474561D01*
X82757678Y-129474561D01*
X82896086Y-129336153D01*
X83145000Y-128735222D01*
X83145000Y-128084778D01*
X82896086Y-127483847D01*
X82436153Y-127023914D01*
X81835222Y-126775000D01*
X81184778Y-126775000D01*
X80583847Y-127023914D01*
X80123914Y-127483847D01*
X79875000Y-128084778D01*
X75527000Y-128084778D01*
X75527000Y-118330000D01*
X87906887Y-118330000D01*
X88018260Y-118889909D01*
X88335423Y-119364577D01*
X88687758Y-119600000D01*
X88335423Y-119835423D01*
X88018260Y-120310091D01*
X87906887Y-120870000D01*
X88018260Y-121429909D01*
X88335423Y-121904577D01*
X88687758Y-122140000D01*
X88335423Y-122375423D01*
X88018260Y-122850091D01*
X87906887Y-123410000D01*
X88018260Y-123969909D01*
X88335423Y-124444577D01*
X88687758Y-124680000D01*
X88335423Y-124915423D01*
X88018260Y-125390091D01*
X87906887Y-125950000D01*
X88018260Y-126509909D01*
X88335423Y-126984577D01*
X88810091Y-127301740D01*
X89228667Y-127385000D01*
X89511333Y-127385000D01*
X89929909Y-127301740D01*
X90404577Y-126984577D01*
X90721740Y-126509909D01*
X90833113Y-125950000D01*
X90721740Y-125390091D01*
X90404577Y-124915423D01*
X90052242Y-124680000D01*
X90404577Y-124444577D01*
X90721740Y-123969909D01*
X90833113Y-123410000D01*
X90721740Y-122850091D01*
X90404577Y-122375423D01*
X90052242Y-122140000D01*
X90404577Y-121904577D01*
X90721740Y-121429909D01*
X90833113Y-120870000D01*
X95526887Y-120870000D01*
X95638260Y-121429909D01*
X95955423Y-121904577D01*
X96307758Y-122140000D01*
X95955423Y-122375423D01*
X95638260Y-122850091D01*
X95526887Y-123410000D01*
X95638260Y-123969909D01*
X95955423Y-124444577D01*
X96076106Y-124525215D01*
X95942235Y-124551843D01*
X95732191Y-124692191D01*
X95591843Y-124902235D01*
X95542560Y-125150000D01*
X95542560Y-126750000D01*
X95591843Y-126997765D01*
X95732191Y-127207809D01*
X95942235Y-127348157D01*
X96190000Y-127397440D01*
X97790000Y-127397440D01*
X98037765Y-127348157D01*
X98247809Y-127207809D01*
X98388157Y-126997765D01*
X98437440Y-126750000D01*
X98437440Y-125150000D01*
X98388157Y-124902235D01*
X98247809Y-124692191D01*
X98037765Y-124551843D01*
X97903894Y-124525215D01*
X98024577Y-124444577D01*
X98341740Y-123969909D01*
X98453113Y-123410000D01*
X101932275Y-123410000D01*
X102022305Y-123862609D01*
X102278687Y-124246313D01*
X102662391Y-124502695D01*
X103000754Y-124570000D01*
X103679246Y-124570000D01*
X104017609Y-124502695D01*
X104401313Y-124246313D01*
X104657695Y-123862609D01*
X104747725Y-123410000D01*
X104657695Y-122957391D01*
X104529146Y-122765004D01*
X104675266Y-122507336D01*
X104683964Y-122445810D01*
X104558163Y-122267000D01*
X103764710Y-122267000D01*
X103679246Y-122250000D01*
X103000754Y-122250000D01*
X102915290Y-122267000D01*
X102121837Y-122267000D01*
X101996036Y-122445810D01*
X102004734Y-122507336D01*
X102150854Y-122765004D01*
X102022305Y-122957391D01*
X101932275Y-123410000D01*
X98453113Y-123410000D01*
X98341740Y-122850091D01*
X98024577Y-122375423D01*
X97672242Y-122140000D01*
X98024577Y-121904577D01*
X98341740Y-121429909D01*
X98453113Y-120870000D01*
X98348684Y-120345000D01*
X101942560Y-120345000D01*
X101942560Y-121395000D01*
X101991843Y-121642765D01*
X102038662Y-121712835D01*
X102004734Y-121772664D01*
X101996036Y-121834190D01*
X102121837Y-122013000D01*
X102441994Y-122013000D01*
X102590000Y-122042440D01*
X104090000Y-122042440D01*
X104238006Y-122013000D01*
X104558163Y-122013000D01*
X104683964Y-121834190D01*
X104675266Y-121772664D01*
X104641338Y-121712835D01*
X104688157Y-121642765D01*
X104737440Y-121395000D01*
X104737440Y-120345000D01*
X104688157Y-120097235D01*
X104547809Y-119887191D01*
X104337765Y-119746843D01*
X104090000Y-119697560D01*
X102590000Y-119697560D01*
X102342235Y-119746843D01*
X102132191Y-119887191D01*
X101991843Y-120097235D01*
X101942560Y-120345000D01*
X98348684Y-120345000D01*
X98341740Y-120310091D01*
X98024577Y-119835423D01*
X97640892Y-119579053D01*
X97845134Y-119482389D01*
X98221041Y-119067423D01*
X98381904Y-118679039D01*
X98259915Y-118457000D01*
X97117000Y-118457000D01*
X97117000Y-118477000D01*
X96863000Y-118477000D01*
X96863000Y-118457000D01*
X95720085Y-118457000D01*
X95598096Y-118679039D01*
X95758959Y-119067423D01*
X96134866Y-119482389D01*
X96339108Y-119579053D01*
X95955423Y-119835423D01*
X95638260Y-120310091D01*
X95526887Y-120870000D01*
X90833113Y-120870000D01*
X90721740Y-120310091D01*
X90404577Y-119835423D01*
X90052242Y-119600000D01*
X90404577Y-119364577D01*
X90721740Y-118889909D01*
X90833113Y-118330000D01*
X90763685Y-117980961D01*
X95598096Y-117980961D01*
X95720085Y-118203000D01*
X96863000Y-118203000D01*
X96863000Y-117059371D01*
X97117000Y-117059371D01*
X97117000Y-118203000D01*
X98259915Y-118203000D01*
X98381904Y-117980961D01*
X98221041Y-117592577D01*
X97845134Y-117177611D01*
X97339041Y-116938086D01*
X97117000Y-117059371D01*
X96863000Y-117059371D01*
X96640959Y-116938086D01*
X96134866Y-117177611D01*
X95758959Y-117592577D01*
X95598096Y-117980961D01*
X90763685Y-117980961D01*
X90721740Y-117770091D01*
X90404577Y-117295423D01*
X89929909Y-116978260D01*
X89511333Y-116895000D01*
X89228667Y-116895000D01*
X88810091Y-116978260D01*
X88335423Y-117295423D01*
X88018260Y-117770091D01*
X87906887Y-118330000D01*
X75527000Y-118330000D01*
X75527000Y-115967440D01*
X76200000Y-115967440D01*
X76447765Y-115918157D01*
X76657809Y-115777809D01*
X76798157Y-115567765D01*
X76847440Y-115320000D01*
X76847440Y-115076126D01*
X99511000Y-115076126D01*
X99511000Y-115487874D01*
X99668569Y-115868280D01*
X99959720Y-116159431D01*
X100340126Y-116317000D01*
X100751874Y-116317000D01*
X101132280Y-116159431D01*
X101423431Y-115868280D01*
X101581000Y-115487874D01*
X101581000Y-115286446D01*
X102582447Y-114285000D01*
X102783874Y-114285000D01*
X103164280Y-114127431D01*
X103455431Y-113836280D01*
X103613000Y-113455874D01*
X103613000Y-113044126D01*
X103455431Y-112663720D01*
X103164280Y-112372569D01*
X102783874Y-112215000D01*
X102372126Y-112215000D01*
X101991720Y-112372569D01*
X101700569Y-112663720D01*
X101543000Y-113044126D01*
X101543000Y-113245553D01*
X100541554Y-114247000D01*
X100340126Y-114247000D01*
X99959720Y-114404569D01*
X99668569Y-114695720D01*
X99511000Y-115076126D01*
X76847440Y-115076126D01*
X76847440Y-113720000D01*
X76798157Y-113472235D01*
X76657809Y-113262191D01*
X76447765Y-113121843D01*
X76292639Y-113090987D01*
X76407165Y-112964561D01*
X77775000Y-112964561D01*
X77775000Y-113535439D01*
X77993466Y-114062862D01*
X78397138Y-114466534D01*
X78924561Y-114685000D01*
X79495439Y-114685000D01*
X80022862Y-114466534D01*
X80426534Y-114062862D01*
X80645000Y-113535439D01*
X80645000Y-113250000D01*
X87906887Y-113250000D01*
X88018260Y-113809909D01*
X88335423Y-114284577D01*
X88810091Y-114601740D01*
X89228667Y-114685000D01*
X89511333Y-114685000D01*
X89929909Y-114601740D01*
X90404577Y-114284577D01*
X90721740Y-113809909D01*
X90833113Y-113250000D01*
X90772991Y-112947745D01*
X94891861Y-112947745D01*
X94965995Y-113193864D01*
X95503223Y-113386965D01*
X96073454Y-113359778D01*
X96474005Y-113193864D01*
X96548139Y-112947745D01*
X95720000Y-112119605D01*
X94891861Y-112947745D01*
X90772991Y-112947745D01*
X90721740Y-112690091D01*
X90404577Y-112215423D01*
X89929909Y-111898260D01*
X89511333Y-111815000D01*
X89228667Y-111815000D01*
X88810091Y-111898260D01*
X88335423Y-112215423D01*
X88018260Y-112690091D01*
X87906887Y-113250000D01*
X80645000Y-113250000D01*
X80645000Y-112964561D01*
X80426534Y-112437138D01*
X80022862Y-112033466D01*
X79495439Y-111815000D01*
X78924561Y-111815000D01*
X78397138Y-112033466D01*
X77993466Y-112437138D01*
X77775000Y-112964561D01*
X76407165Y-112964561D01*
X76631041Y-112717423D01*
X76791904Y-112329039D01*
X76669915Y-112107000D01*
X75527000Y-112107000D01*
X75527000Y-111853000D01*
X76669915Y-111853000D01*
X76741214Y-111723223D01*
X94273035Y-111723223D01*
X94300222Y-112293454D01*
X94466136Y-112694005D01*
X94712255Y-112768139D01*
X95540395Y-111940000D01*
X95899605Y-111940000D01*
X96727745Y-112768139D01*
X96973864Y-112694005D01*
X97166965Y-112156777D01*
X97155677Y-111920000D01*
X103982560Y-111920000D01*
X103982560Y-114420000D01*
X104031843Y-114667765D01*
X104172191Y-114877809D01*
X104382235Y-115018157D01*
X104630000Y-115067440D01*
X107130000Y-115067440D01*
X107377765Y-115018157D01*
X107587809Y-114877809D01*
X107728157Y-114667765D01*
X107777440Y-114420000D01*
X107777440Y-111920000D01*
X107728157Y-111672235D01*
X107587809Y-111462191D01*
X107377765Y-111321843D01*
X107130000Y-111272560D01*
X104630000Y-111272560D01*
X104382235Y-111321843D01*
X104172191Y-111462191D01*
X104031843Y-111672235D01*
X103982560Y-111920000D01*
X97155677Y-111920000D01*
X97139778Y-111586546D01*
X96973864Y-111185995D01*
X96727745Y-111111861D01*
X95899605Y-111940000D01*
X95540395Y-111940000D01*
X94712255Y-111111861D01*
X94466136Y-111185995D01*
X94273035Y-111723223D01*
X76741214Y-111723223D01*
X76791904Y-111630961D01*
X76631041Y-111242577D01*
X76255134Y-110827611D01*
X76050892Y-110730947D01*
X76434577Y-110474577D01*
X76751740Y-109999909D01*
X76863113Y-109440000D01*
X77746887Y-109440000D01*
X77858260Y-109999909D01*
X78175423Y-110474577D01*
X78650091Y-110791740D01*
X79068667Y-110875000D01*
X79351333Y-110875000D01*
X79769909Y-110791740D01*
X80244577Y-110474577D01*
X80561740Y-109999909D01*
X80673113Y-109440000D01*
X80616336Y-109154561D01*
X87935000Y-109154561D01*
X87935000Y-109725439D01*
X88153466Y-110252862D01*
X88557138Y-110656534D01*
X89084561Y-110875000D01*
X89655439Y-110875000D01*
X90182862Y-110656534D01*
X90586534Y-110252862D01*
X90805000Y-109725439D01*
X90805000Y-109154561D01*
X90591862Y-108640000D01*
X94272560Y-108640000D01*
X94272560Y-110240000D01*
X94321843Y-110487765D01*
X94462191Y-110697809D01*
X94672235Y-110838157D01*
X94906187Y-110884693D01*
X94891861Y-110932255D01*
X95720000Y-111760395D01*
X96548139Y-110932255D01*
X96533813Y-110884693D01*
X96767765Y-110838157D01*
X96977809Y-110697809D01*
X97118157Y-110487765D01*
X97167440Y-110240000D01*
X97167440Y-109503320D01*
X104726285Y-109503320D01*
X104855533Y-109796123D01*
X105555806Y-110064388D01*
X106305435Y-110044250D01*
X106904467Y-109796123D01*
X107033715Y-109503320D01*
X105880000Y-108349605D01*
X104726285Y-109503320D01*
X97167440Y-109503320D01*
X97167440Y-108640000D01*
X97118157Y-108392235D01*
X96977809Y-108182191D01*
X96767765Y-108041843D01*
X96520000Y-107992560D01*
X94920000Y-107992560D01*
X94672235Y-108041843D01*
X94462191Y-108182191D01*
X94321843Y-108392235D01*
X94272560Y-108640000D01*
X90591862Y-108640000D01*
X90586534Y-108627138D01*
X90182862Y-108223466D01*
X89655439Y-108005000D01*
X89084561Y-108005000D01*
X88557138Y-108223466D01*
X88153466Y-108627138D01*
X87935000Y-109154561D01*
X80616336Y-109154561D01*
X80561740Y-108880091D01*
X80244577Y-108405423D01*
X79769909Y-108088260D01*
X79351333Y-108005000D01*
X79068667Y-108005000D01*
X78650091Y-108088260D01*
X78175423Y-108405423D01*
X77858260Y-108880091D01*
X77746887Y-109440000D01*
X76863113Y-109440000D01*
X76751740Y-108880091D01*
X76434577Y-108405423D01*
X75959909Y-108088260D01*
X75541333Y-108005000D01*
X75527000Y-108005000D01*
X75527000Y-107845806D01*
X103985612Y-107845806D01*
X104005750Y-108595435D01*
X104253877Y-109194467D01*
X104546680Y-109323715D01*
X105700395Y-108170000D01*
X106059605Y-108170000D01*
X107213320Y-109323715D01*
X107506123Y-109194467D01*
X107774388Y-108494194D01*
X107754250Y-107744565D01*
X107506123Y-107145533D01*
X107213320Y-107016285D01*
X106059605Y-108170000D01*
X105700395Y-108170000D01*
X104546680Y-107016285D01*
X104253877Y-107145533D01*
X103985612Y-107845806D01*
X75527000Y-107845806D01*
X75527000Y-107027000D01*
X89370000Y-107027000D01*
X89418601Y-107017333D01*
X89459803Y-106989803D01*
X89487333Y-106948601D01*
X89497000Y-106900000D01*
X89497000Y-106836680D01*
X104726285Y-106836680D01*
X105880000Y-107990395D01*
X107033715Y-106836680D01*
X106904467Y-106543877D01*
X106204194Y-106275612D01*
X105454565Y-106295750D01*
X104855533Y-106543877D01*
X104726285Y-106836680D01*
X89497000Y-106836680D01*
X89497000Y-100970000D01*
X90412560Y-100970000D01*
X90412560Y-102670000D01*
X90461843Y-102917765D01*
X90602191Y-103127809D01*
X90812235Y-103268157D01*
X91060000Y-103317440D01*
X92760000Y-103317440D01*
X93007765Y-103268157D01*
X93217809Y-103127809D01*
X93358157Y-102917765D01*
X93367184Y-102872381D01*
X93379375Y-102890625D01*
X93870582Y-103218839D01*
X94303744Y-103305000D01*
X94596256Y-103305000D01*
X95029418Y-103218839D01*
X95520625Y-102890625D01*
X95720000Y-102592239D01*
X95919375Y-102890625D01*
X96410582Y-103218839D01*
X96843744Y-103305000D01*
X97136256Y-103305000D01*
X97569418Y-103218839D01*
X98060625Y-102890625D01*
X98260000Y-102592239D01*
X98459375Y-102890625D01*
X98950582Y-103218839D01*
X99383744Y-103305000D01*
X99676256Y-103305000D01*
X100109418Y-103218839D01*
X100600625Y-102890625D01*
X100813843Y-102571522D01*
X100874817Y-102701358D01*
X101303076Y-103091645D01*
X101713110Y-103261476D01*
X101943000Y-103140155D01*
X101943000Y-101947000D01*
X102197000Y-101947000D01*
X102197000Y-103140155D01*
X102426890Y-103261476D01*
X102836924Y-103091645D01*
X103265183Y-102701358D01*
X103511486Y-102176892D01*
X103390819Y-101947000D01*
X102197000Y-101947000D01*
X101943000Y-101947000D01*
X101923000Y-101947000D01*
X101923000Y-101693000D01*
X101943000Y-101693000D01*
X101943000Y-100499845D01*
X102197000Y-100499845D01*
X102197000Y-101693000D01*
X103390819Y-101693000D01*
X103511486Y-101463108D01*
X103265183Y-100938642D01*
X102836924Y-100548355D01*
X102426890Y-100378524D01*
X102197000Y-100499845D01*
X101943000Y-100499845D01*
X101713110Y-100378524D01*
X101303076Y-100548355D01*
X100874817Y-100938642D01*
X100813843Y-101068478D01*
X100600625Y-100749375D01*
X100109418Y-100421161D01*
X99676256Y-100335000D01*
X99383744Y-100335000D01*
X98950582Y-100421161D01*
X98459375Y-100749375D01*
X98260000Y-101047761D01*
X98060625Y-100749375D01*
X97569418Y-100421161D01*
X97136256Y-100335000D01*
X96843744Y-100335000D01*
X96410582Y-100421161D01*
X95919375Y-100749375D01*
X95720000Y-101047761D01*
X95520625Y-100749375D01*
X95029418Y-100421161D01*
X94596256Y-100335000D01*
X94303744Y-100335000D01*
X93870582Y-100421161D01*
X93379375Y-100749375D01*
X93367184Y-100767619D01*
X93358157Y-100722235D01*
X93217809Y-100512191D01*
X93007765Y-100371843D01*
X92760000Y-100322560D01*
X91060000Y-100322560D01*
X90812235Y-100371843D01*
X90602191Y-100512191D01*
X90461843Y-100722235D01*
X90412560Y-100970000D01*
X89497000Y-100970000D01*
X89497000Y-97160000D01*
X90412560Y-97160000D01*
X90412560Y-98860000D01*
X90461843Y-99107765D01*
X90602191Y-99317809D01*
X90812235Y-99458157D01*
X91060000Y-99507440D01*
X92760000Y-99507440D01*
X93007765Y-99458157D01*
X93217809Y-99317809D01*
X93358157Y-99107765D01*
X93367184Y-99062381D01*
X93379375Y-99080625D01*
X93870582Y-99408839D01*
X94303744Y-99495000D01*
X94596256Y-99495000D01*
X95029418Y-99408839D01*
X95520625Y-99080625D01*
X95720000Y-98782239D01*
X95919375Y-99080625D01*
X96410582Y-99408839D01*
X96843744Y-99495000D01*
X97136256Y-99495000D01*
X97569418Y-99408839D01*
X98060625Y-99080625D01*
X98273843Y-98761522D01*
X98334817Y-98891358D01*
X98763076Y-99281645D01*
X99173110Y-99451476D01*
X99403000Y-99330155D01*
X99403000Y-98137000D01*
X99657000Y-98137000D01*
X99657000Y-99330155D01*
X99886890Y-99451476D01*
X100296924Y-99281645D01*
X100725183Y-98891358D01*
X100971486Y-98366892D01*
X100850819Y-98137000D01*
X99657000Y-98137000D01*
X99403000Y-98137000D01*
X99383000Y-98137000D01*
X99383000Y-97883000D01*
X99403000Y-97883000D01*
X99403000Y-96689845D01*
X99657000Y-96689845D01*
X99657000Y-97883000D01*
X100850819Y-97883000D01*
X100971486Y-97653108D01*
X100725183Y-97128642D01*
X100296924Y-96738355D01*
X99886890Y-96568524D01*
X99657000Y-96689845D01*
X99403000Y-96689845D01*
X99173110Y-96568524D01*
X98763076Y-96738355D01*
X98334817Y-97128642D01*
X98273843Y-97258478D01*
X98060625Y-96939375D01*
X97569418Y-96611161D01*
X97136256Y-96525000D01*
X96843744Y-96525000D01*
X96410582Y-96611161D01*
X95919375Y-96939375D01*
X95720000Y-97237761D01*
X95520625Y-96939375D01*
X95029418Y-96611161D01*
X94596256Y-96525000D01*
X94303744Y-96525000D01*
X93870582Y-96611161D01*
X93379375Y-96939375D01*
X93367184Y-96957619D01*
X93358157Y-96912235D01*
X93217809Y-96702191D01*
X93007765Y-96561843D01*
X92760000Y-96512560D01*
X91060000Y-96512560D01*
X90812235Y-96561843D01*
X90602191Y-96702191D01*
X90461843Y-96912235D01*
X90412560Y-97160000D01*
X89497000Y-97160000D01*
X89497000Y-93350000D01*
X90412560Y-93350000D01*
X90412560Y-95050000D01*
X90461843Y-95297765D01*
X90602191Y-95507809D01*
X90812235Y-95648157D01*
X91060000Y-95697440D01*
X92760000Y-95697440D01*
X93007765Y-95648157D01*
X93217809Y-95507809D01*
X93358157Y-95297765D01*
X93367184Y-95252381D01*
X93379375Y-95270625D01*
X93870582Y-95598839D01*
X94303744Y-95685000D01*
X94596256Y-95685000D01*
X95029418Y-95598839D01*
X95520625Y-95270625D01*
X95733843Y-94951522D01*
X95794817Y-95081358D01*
X96223076Y-95471645D01*
X96633110Y-95641476D01*
X96863000Y-95520155D01*
X96863000Y-94327000D01*
X97117000Y-94327000D01*
X97117000Y-95520155D01*
X97346890Y-95641476D01*
X97756924Y-95471645D01*
X98185183Y-95081358D01*
X98431486Y-94556892D01*
X98430720Y-94555431D01*
X102765000Y-94555431D01*
X102765000Y-95444569D01*
X103105259Y-96266026D01*
X103733974Y-96894741D01*
X104555431Y-97235000D01*
X105444569Y-97235000D01*
X106266026Y-96894741D01*
X106894741Y-96266026D01*
X107235000Y-95444569D01*
X107235000Y-94555431D01*
X106894741Y-93733974D01*
X106266026Y-93105259D01*
X105444569Y-92765000D01*
X104555431Y-92765000D01*
X103733974Y-93105259D01*
X103105259Y-93733974D01*
X102765000Y-94555431D01*
X98430720Y-94555431D01*
X98310819Y-94327000D01*
X97117000Y-94327000D01*
X96863000Y-94327000D01*
X96843000Y-94327000D01*
X96843000Y-94073000D01*
X96863000Y-94073000D01*
X96863000Y-92879845D01*
X97117000Y-92879845D01*
X97117000Y-94073000D01*
X98310819Y-94073000D01*
X98431486Y-93843108D01*
X98185183Y-93318642D01*
X97756924Y-92928355D01*
X97346890Y-92758524D01*
X97117000Y-92879845D01*
X96863000Y-92879845D01*
X96633110Y-92758524D01*
X96223076Y-92928355D01*
X95794817Y-93318642D01*
X95733843Y-93448478D01*
X95520625Y-93129375D01*
X95029418Y-92801161D01*
X94596256Y-92715000D01*
X94303744Y-92715000D01*
X93870582Y-92801161D01*
X93379375Y-93129375D01*
X93367184Y-93147619D01*
X93358157Y-93102235D01*
X93217809Y-92892191D01*
X93007765Y-92751843D01*
X92760000Y-92702560D01*
X91060000Y-92702560D01*
X90812235Y-92751843D01*
X90602191Y-92892191D01*
X90461843Y-93102235D01*
X90412560Y-93350000D01*
X89497000Y-93350000D01*
X89497000Y-91787000D01*
X108293000Y-91787000D01*
X108293000Y-143603000D01*
X108293000Y-143603000D01*
G37*
X108293000Y-143603000D02*
X75527000Y-143603000D01*
X75527000Y-141190000D01*
X87906887Y-141190000D01*
X88018260Y-141749909D01*
X88335423Y-142224577D01*
X88810091Y-142541740D01*
X89228667Y-142625000D01*
X89511333Y-142625000D01*
X89929909Y-142541740D01*
X90404577Y-142224577D01*
X90721740Y-141749909D01*
X90833113Y-141190000D01*
X90721740Y-140630091D01*
X90561317Y-140390000D01*
X95542560Y-140390000D01*
X95542560Y-141990000D01*
X95591843Y-142237765D01*
X95732191Y-142447809D01*
X95942235Y-142588157D01*
X96190000Y-142637440D01*
X97790000Y-142637440D01*
X98037765Y-142588157D01*
X98247809Y-142447809D01*
X98388157Y-142237765D01*
X98437440Y-141990000D01*
X98437440Y-140390000D01*
X98388157Y-140142235D01*
X98247809Y-139932191D01*
X98037765Y-139791843D01*
X97790000Y-139742560D01*
X96190000Y-139742560D01*
X95942235Y-139791843D01*
X95732191Y-139932191D01*
X95591843Y-140142235D01*
X95542560Y-140390000D01*
X90561317Y-140390000D01*
X90404577Y-140155423D01*
X89929909Y-139838260D01*
X89511333Y-139755000D01*
X89228667Y-139755000D01*
X88810091Y-139838260D01*
X88335423Y-140155423D01*
X88018260Y-140630091D01*
X87906887Y-141190000D01*
X75527000Y-141190000D01*
X75527000Y-139555431D01*
X102765000Y-139555431D01*
X102765000Y-140444569D01*
X103105259Y-141266026D01*
X103733974Y-141894741D01*
X104555431Y-142235000D01*
X105444569Y-142235000D01*
X106266026Y-141894741D01*
X106894741Y-141266026D01*
X107235000Y-140444569D01*
X107235000Y-139555431D01*
X106894741Y-138733974D01*
X106266026Y-138105259D01*
X105444569Y-137765000D01*
X104555431Y-137765000D01*
X103733974Y-138105259D01*
X103105259Y-138733974D01*
X102765000Y-139555431D01*
X75527000Y-139555431D01*
X75527000Y-136110000D01*
X87906887Y-136110000D01*
X88018260Y-136669909D01*
X88335423Y-137144577D01*
X88810091Y-137461740D01*
X89228667Y-137545000D01*
X89511333Y-137545000D01*
X89929909Y-137461740D01*
X90404577Y-137144577D01*
X90721740Y-136669909D01*
X90763684Y-136459039D01*
X95598096Y-136459039D01*
X95758959Y-136847423D01*
X96134866Y-137262389D01*
X96640959Y-137501914D01*
X96863000Y-137380629D01*
X96863000Y-136237000D01*
X97117000Y-136237000D01*
X97117000Y-137380629D01*
X97339041Y-137501914D01*
X97845134Y-137262389D01*
X98221041Y-136847423D01*
X98381904Y-136459039D01*
X98259915Y-136237000D01*
X97117000Y-136237000D01*
X96863000Y-136237000D01*
X95720085Y-136237000D01*
X95598096Y-136459039D01*
X90763684Y-136459039D01*
X90833113Y-136110000D01*
X90763685Y-135760961D01*
X95598096Y-135760961D01*
X95720085Y-135983000D01*
X96863000Y-135983000D01*
X96863000Y-134839371D01*
X97117000Y-134839371D01*
X97117000Y-135983000D01*
X98259915Y-135983000D01*
X98381904Y-135760961D01*
X98221041Y-135372577D01*
X97845134Y-134957611D01*
X97339041Y-134718086D01*
X97117000Y-134839371D01*
X96863000Y-134839371D01*
X96640959Y-134718086D01*
X96134866Y-134957611D01*
X95758959Y-135372577D01*
X95598096Y-135760961D01*
X90763685Y-135760961D01*
X90721740Y-135550091D01*
X90404577Y-135075423D01*
X89929909Y-134758260D01*
X89511333Y-134675000D01*
X89228667Y-134675000D01*
X88810091Y-134758260D01*
X88335423Y-135075423D01*
X88018260Y-135550091D01*
X87906887Y-136110000D01*
X75527000Y-136110000D01*
X75527000Y-133084778D01*
X79875000Y-133084778D01*
X79875000Y-133735222D01*
X80123914Y-134336153D01*
X80583847Y-134796086D01*
X81184778Y-135045000D01*
X81835222Y-135045000D01*
X82436153Y-134796086D01*
X82896086Y-134336153D01*
X82924421Y-134267745D01*
X102511861Y-134267745D01*
X102585995Y-134513864D01*
X103123223Y-134706965D01*
X103693454Y-134679778D01*
X104094005Y-134513864D01*
X104168139Y-134267745D01*
X103340000Y-133439605D01*
X102511861Y-134267745D01*
X82924421Y-134267745D01*
X83145000Y-133735222D01*
X83145000Y-133084778D01*
X83127788Y-133043223D01*
X101893035Y-133043223D01*
X101920222Y-133613454D01*
X102086136Y-134014005D01*
X102332255Y-134088139D01*
X103160395Y-133260000D01*
X103519605Y-133260000D01*
X104347745Y-134088139D01*
X104593864Y-134014005D01*
X104786965Y-133476777D01*
X104759778Y-132906546D01*
X104593864Y-132505995D01*
X104347745Y-132431861D01*
X103519605Y-133260000D01*
X103160395Y-133260000D01*
X102332255Y-132431861D01*
X102086136Y-132505995D01*
X101893035Y-133043223D01*
X83127788Y-133043223D01*
X82896086Y-132483847D01*
X82664494Y-132252255D01*
X102511861Y-132252255D01*
X103340000Y-133080395D01*
X104168139Y-132252255D01*
X104094005Y-132006136D01*
X103556777Y-131813035D01*
X102986546Y-131840222D01*
X102585995Y-132006136D01*
X102511861Y-132252255D01*
X82664494Y-132252255D01*
X82436153Y-132023914D01*
X81835222Y-131775000D01*
X81184778Y-131775000D01*
X80583847Y-132023914D01*
X80123914Y-132483847D01*
X79875000Y-133084778D01*
X75527000Y-133084778D01*
X75527000Y-128084778D01*
X79875000Y-128084778D01*
X79875000Y-128735222D01*
X80123914Y-129336153D01*
X80583847Y-129796086D01*
X81184778Y-130045000D01*
X81835222Y-130045000D01*
X82436153Y-129796086D01*
X82757678Y-129474561D01*
X89285000Y-129474561D01*
X89285000Y-130045439D01*
X89503466Y-130572862D01*
X89907138Y-130976534D01*
X90434561Y-131195000D01*
X91005439Y-131195000D01*
X91532862Y-130976534D01*
X91741651Y-130767745D01*
X94891861Y-130767745D01*
X94965995Y-131013864D01*
X95503223Y-131206965D01*
X96073454Y-131179778D01*
X96474005Y-131013864D01*
X96548139Y-130767745D01*
X95720000Y-129939605D01*
X94891861Y-130767745D01*
X91741651Y-130767745D01*
X91936534Y-130572862D01*
X92155000Y-130045439D01*
X92155000Y-129543223D01*
X94273035Y-129543223D01*
X94300222Y-130113454D01*
X94466136Y-130514005D01*
X94712255Y-130588139D01*
X95540395Y-129760000D01*
X95899605Y-129760000D01*
X96727745Y-130588139D01*
X96973864Y-130514005D01*
X97166965Y-129976777D01*
X97139778Y-129406546D01*
X96973864Y-129005995D01*
X96821165Y-128960000D01*
X101892560Y-128960000D01*
X101892560Y-130560000D01*
X101941843Y-130807765D01*
X102082191Y-131017809D01*
X102292235Y-131158157D01*
X102540000Y-131207440D01*
X104140000Y-131207440D01*
X104387765Y-131158157D01*
X104597809Y-131017809D01*
X104738157Y-130807765D01*
X104787440Y-130560000D01*
X104787440Y-128960000D01*
X104738157Y-128712235D01*
X104597809Y-128502191D01*
X104387765Y-128361843D01*
X104140000Y-128312560D01*
X102540000Y-128312560D01*
X102292235Y-128361843D01*
X102082191Y-128502191D01*
X101941843Y-128712235D01*
X101892560Y-128960000D01*
X96821165Y-128960000D01*
X96727745Y-128931861D01*
X95899605Y-129760000D01*
X95540395Y-129760000D01*
X94712255Y-128931861D01*
X94466136Y-129005995D01*
X94273035Y-129543223D01*
X92155000Y-129543223D01*
X92155000Y-129474561D01*
X91936534Y-128947138D01*
X91741651Y-128752255D01*
X94891861Y-128752255D01*
X95720000Y-129580395D01*
X96548139Y-128752255D01*
X96474005Y-128506136D01*
X95936777Y-128313035D01*
X95366546Y-128340222D01*
X94965995Y-128506136D01*
X94891861Y-128752255D01*
X91741651Y-128752255D01*
X91532862Y-128543466D01*
X91005439Y-128325000D01*
X90434561Y-128325000D01*
X89907138Y-128543466D01*
X89503466Y-128947138D01*
X89285000Y-129474561D01*
X82757678Y-129474561D01*
X82896086Y-129336153D01*
X83145000Y-128735222D01*
X83145000Y-128084778D01*
X82896086Y-127483847D01*
X82436153Y-127023914D01*
X81835222Y-126775000D01*
X81184778Y-126775000D01*
X80583847Y-127023914D01*
X80123914Y-127483847D01*
X79875000Y-128084778D01*
X75527000Y-128084778D01*
X75527000Y-118330000D01*
X87906887Y-118330000D01*
X88018260Y-118889909D01*
X88335423Y-119364577D01*
X88687758Y-119600000D01*
X88335423Y-119835423D01*
X88018260Y-120310091D01*
X87906887Y-120870000D01*
X88018260Y-121429909D01*
X88335423Y-121904577D01*
X88687758Y-122140000D01*
X88335423Y-122375423D01*
X88018260Y-122850091D01*
X87906887Y-123410000D01*
X88018260Y-123969909D01*
X88335423Y-124444577D01*
X88687758Y-124680000D01*
X88335423Y-124915423D01*
X88018260Y-125390091D01*
X87906887Y-125950000D01*
X88018260Y-126509909D01*
X88335423Y-126984577D01*
X88810091Y-127301740D01*
X89228667Y-127385000D01*
X89511333Y-127385000D01*
X89929909Y-127301740D01*
X90404577Y-126984577D01*
X90721740Y-126509909D01*
X90833113Y-125950000D01*
X90721740Y-125390091D01*
X90404577Y-124915423D01*
X90052242Y-124680000D01*
X90404577Y-124444577D01*
X90721740Y-123969909D01*
X90833113Y-123410000D01*
X90721740Y-122850091D01*
X90404577Y-122375423D01*
X90052242Y-122140000D01*
X90404577Y-121904577D01*
X90721740Y-121429909D01*
X90833113Y-120870000D01*
X95526887Y-120870000D01*
X95638260Y-121429909D01*
X95955423Y-121904577D01*
X96307758Y-122140000D01*
X95955423Y-122375423D01*
X95638260Y-122850091D01*
X95526887Y-123410000D01*
X95638260Y-123969909D01*
X95955423Y-124444577D01*
X96076106Y-124525215D01*
X95942235Y-124551843D01*
X95732191Y-124692191D01*
X95591843Y-124902235D01*
X95542560Y-125150000D01*
X95542560Y-126750000D01*
X95591843Y-126997765D01*
X95732191Y-127207809D01*
X95942235Y-127348157D01*
X96190000Y-127397440D01*
X97790000Y-127397440D01*
X98037765Y-127348157D01*
X98247809Y-127207809D01*
X98388157Y-126997765D01*
X98437440Y-126750000D01*
X98437440Y-125150000D01*
X98388157Y-124902235D01*
X98247809Y-124692191D01*
X98037765Y-124551843D01*
X97903894Y-124525215D01*
X98024577Y-124444577D01*
X98341740Y-123969909D01*
X98453113Y-123410000D01*
X101932275Y-123410000D01*
X102022305Y-123862609D01*
X102278687Y-124246313D01*
X102662391Y-124502695D01*
X103000754Y-124570000D01*
X103679246Y-124570000D01*
X104017609Y-124502695D01*
X104401313Y-124246313D01*
X104657695Y-123862609D01*
X104747725Y-123410000D01*
X104657695Y-122957391D01*
X104529146Y-122765004D01*
X104675266Y-122507336D01*
X104683964Y-122445810D01*
X104558163Y-122267000D01*
X103764710Y-122267000D01*
X103679246Y-122250000D01*
X103000754Y-122250000D01*
X102915290Y-122267000D01*
X102121837Y-122267000D01*
X101996036Y-122445810D01*
X102004734Y-122507336D01*
X102150854Y-122765004D01*
X102022305Y-122957391D01*
X101932275Y-123410000D01*
X98453113Y-123410000D01*
X98341740Y-122850091D01*
X98024577Y-122375423D01*
X97672242Y-122140000D01*
X98024577Y-121904577D01*
X98341740Y-121429909D01*
X98453113Y-120870000D01*
X98348684Y-120345000D01*
X101942560Y-120345000D01*
X101942560Y-121395000D01*
X101991843Y-121642765D01*
X102038662Y-121712835D01*
X102004734Y-121772664D01*
X101996036Y-121834190D01*
X102121837Y-122013000D01*
X102441994Y-122013000D01*
X102590000Y-122042440D01*
X104090000Y-122042440D01*
X104238006Y-122013000D01*
X104558163Y-122013000D01*
X104683964Y-121834190D01*
X104675266Y-121772664D01*
X104641338Y-121712835D01*
X104688157Y-121642765D01*
X104737440Y-121395000D01*
X104737440Y-120345000D01*
X104688157Y-120097235D01*
X104547809Y-119887191D01*
X104337765Y-119746843D01*
X104090000Y-119697560D01*
X102590000Y-119697560D01*
X102342235Y-119746843D01*
X102132191Y-119887191D01*
X101991843Y-120097235D01*
X101942560Y-120345000D01*
X98348684Y-120345000D01*
X98341740Y-120310091D01*
X98024577Y-119835423D01*
X97640892Y-119579053D01*
X97845134Y-119482389D01*
X98221041Y-119067423D01*
X98381904Y-118679039D01*
X98259915Y-118457000D01*
X97117000Y-118457000D01*
X97117000Y-118477000D01*
X96863000Y-118477000D01*
X96863000Y-118457000D01*
X95720085Y-118457000D01*
X95598096Y-118679039D01*
X95758959Y-119067423D01*
X96134866Y-119482389D01*
X96339108Y-119579053D01*
X95955423Y-119835423D01*
X95638260Y-120310091D01*
X95526887Y-120870000D01*
X90833113Y-120870000D01*
X90721740Y-120310091D01*
X90404577Y-119835423D01*
X90052242Y-119600000D01*
X90404577Y-119364577D01*
X90721740Y-118889909D01*
X90833113Y-118330000D01*
X90763685Y-117980961D01*
X95598096Y-117980961D01*
X95720085Y-118203000D01*
X96863000Y-118203000D01*
X96863000Y-117059371D01*
X97117000Y-117059371D01*
X97117000Y-118203000D01*
X98259915Y-118203000D01*
X98381904Y-117980961D01*
X98221041Y-117592577D01*
X97845134Y-117177611D01*
X97339041Y-116938086D01*
X97117000Y-117059371D01*
X96863000Y-117059371D01*
X96640959Y-116938086D01*
X96134866Y-117177611D01*
X95758959Y-117592577D01*
X95598096Y-117980961D01*
X90763685Y-117980961D01*
X90721740Y-117770091D01*
X90404577Y-117295423D01*
X89929909Y-116978260D01*
X89511333Y-116895000D01*
X89228667Y-116895000D01*
X88810091Y-116978260D01*
X88335423Y-117295423D01*
X88018260Y-117770091D01*
X87906887Y-118330000D01*
X75527000Y-118330000D01*
X75527000Y-115967440D01*
X76200000Y-115967440D01*
X76447765Y-115918157D01*
X76657809Y-115777809D01*
X76798157Y-115567765D01*
X76847440Y-115320000D01*
X76847440Y-115076126D01*
X99511000Y-115076126D01*
X99511000Y-115487874D01*
X99668569Y-115868280D01*
X99959720Y-116159431D01*
X100340126Y-116317000D01*
X100751874Y-116317000D01*
X101132280Y-116159431D01*
X101423431Y-115868280D01*
X101581000Y-115487874D01*
X101581000Y-115286446D01*
X102582447Y-114285000D01*
X102783874Y-114285000D01*
X103164280Y-114127431D01*
X103455431Y-113836280D01*
X103613000Y-113455874D01*
X103613000Y-113044126D01*
X103455431Y-112663720D01*
X103164280Y-112372569D01*
X102783874Y-112215000D01*
X102372126Y-112215000D01*
X101991720Y-112372569D01*
X101700569Y-112663720D01*
X101543000Y-113044126D01*
X101543000Y-113245553D01*
X100541554Y-114247000D01*
X100340126Y-114247000D01*
X99959720Y-114404569D01*
X99668569Y-114695720D01*
X99511000Y-115076126D01*
X76847440Y-115076126D01*
X76847440Y-113720000D01*
X76798157Y-113472235D01*
X76657809Y-113262191D01*
X76447765Y-113121843D01*
X76292639Y-113090987D01*
X76407165Y-112964561D01*
X77775000Y-112964561D01*
X77775000Y-113535439D01*
X77993466Y-114062862D01*
X78397138Y-114466534D01*
X78924561Y-114685000D01*
X79495439Y-114685000D01*
X80022862Y-114466534D01*
X80426534Y-114062862D01*
X80645000Y-113535439D01*
X80645000Y-113250000D01*
X87906887Y-113250000D01*
X88018260Y-113809909D01*
X88335423Y-114284577D01*
X88810091Y-114601740D01*
X89228667Y-114685000D01*
X89511333Y-114685000D01*
X89929909Y-114601740D01*
X90404577Y-114284577D01*
X90721740Y-113809909D01*
X90833113Y-113250000D01*
X90772991Y-112947745D01*
X94891861Y-112947745D01*
X94965995Y-113193864D01*
X95503223Y-113386965D01*
X96073454Y-113359778D01*
X96474005Y-113193864D01*
X96548139Y-112947745D01*
X95720000Y-112119605D01*
X94891861Y-112947745D01*
X90772991Y-112947745D01*
X90721740Y-112690091D01*
X90404577Y-112215423D01*
X89929909Y-111898260D01*
X89511333Y-111815000D01*
X89228667Y-111815000D01*
X88810091Y-111898260D01*
X88335423Y-112215423D01*
X88018260Y-112690091D01*
X87906887Y-113250000D01*
X80645000Y-113250000D01*
X80645000Y-112964561D01*
X80426534Y-112437138D01*
X80022862Y-112033466D01*
X79495439Y-111815000D01*
X78924561Y-111815000D01*
X78397138Y-112033466D01*
X77993466Y-112437138D01*
X77775000Y-112964561D01*
X76407165Y-112964561D01*
X76631041Y-112717423D01*
X76791904Y-112329039D01*
X76669915Y-112107000D01*
X75527000Y-112107000D01*
X75527000Y-111853000D01*
X76669915Y-111853000D01*
X76741214Y-111723223D01*
X94273035Y-111723223D01*
X94300222Y-112293454D01*
X94466136Y-112694005D01*
X94712255Y-112768139D01*
X95540395Y-111940000D01*
X95899605Y-111940000D01*
X96727745Y-112768139D01*
X96973864Y-112694005D01*
X97166965Y-112156777D01*
X97155677Y-111920000D01*
X103982560Y-111920000D01*
X103982560Y-114420000D01*
X104031843Y-114667765D01*
X104172191Y-114877809D01*
X104382235Y-115018157D01*
X104630000Y-115067440D01*
X107130000Y-115067440D01*
X107377765Y-115018157D01*
X107587809Y-114877809D01*
X107728157Y-114667765D01*
X107777440Y-114420000D01*
X107777440Y-111920000D01*
X107728157Y-111672235D01*
X107587809Y-111462191D01*
X107377765Y-111321843D01*
X107130000Y-111272560D01*
X104630000Y-111272560D01*
X104382235Y-111321843D01*
X104172191Y-111462191D01*
X104031843Y-111672235D01*
X103982560Y-111920000D01*
X97155677Y-111920000D01*
X97139778Y-111586546D01*
X96973864Y-111185995D01*
X96727745Y-111111861D01*
X95899605Y-111940000D01*
X95540395Y-111940000D01*
X94712255Y-111111861D01*
X94466136Y-111185995D01*
X94273035Y-111723223D01*
X76741214Y-111723223D01*
X76791904Y-111630961D01*
X76631041Y-111242577D01*
X76255134Y-110827611D01*
X76050892Y-110730947D01*
X76434577Y-110474577D01*
X76751740Y-109999909D01*
X76863113Y-109440000D01*
X77746887Y-109440000D01*
X77858260Y-109999909D01*
X78175423Y-110474577D01*
X78650091Y-110791740D01*
X79068667Y-110875000D01*
X79351333Y-110875000D01*
X79769909Y-110791740D01*
X80244577Y-110474577D01*
X80561740Y-109999909D01*
X80673113Y-109440000D01*
X80616336Y-109154561D01*
X87935000Y-109154561D01*
X87935000Y-109725439D01*
X88153466Y-110252862D01*
X88557138Y-110656534D01*
X89084561Y-110875000D01*
X89655439Y-110875000D01*
X90182862Y-110656534D01*
X90586534Y-110252862D01*
X90805000Y-109725439D01*
X90805000Y-109154561D01*
X90591862Y-108640000D01*
X94272560Y-108640000D01*
X94272560Y-110240000D01*
X94321843Y-110487765D01*
X94462191Y-110697809D01*
X94672235Y-110838157D01*
X94906187Y-110884693D01*
X94891861Y-110932255D01*
X95720000Y-111760395D01*
X96548139Y-110932255D01*
X96533813Y-110884693D01*
X96767765Y-110838157D01*
X96977809Y-110697809D01*
X97118157Y-110487765D01*
X97167440Y-110240000D01*
X97167440Y-109503320D01*
X104726285Y-109503320D01*
X104855533Y-109796123D01*
X105555806Y-110064388D01*
X106305435Y-110044250D01*
X106904467Y-109796123D01*
X107033715Y-109503320D01*
X105880000Y-108349605D01*
X104726285Y-109503320D01*
X97167440Y-109503320D01*
X97167440Y-108640000D01*
X97118157Y-108392235D01*
X96977809Y-108182191D01*
X96767765Y-108041843D01*
X96520000Y-107992560D01*
X94920000Y-107992560D01*
X94672235Y-108041843D01*
X94462191Y-108182191D01*
X94321843Y-108392235D01*
X94272560Y-108640000D01*
X90591862Y-108640000D01*
X90586534Y-108627138D01*
X90182862Y-108223466D01*
X89655439Y-108005000D01*
X89084561Y-108005000D01*
X88557138Y-108223466D01*
X88153466Y-108627138D01*
X87935000Y-109154561D01*
X80616336Y-109154561D01*
X80561740Y-108880091D01*
X80244577Y-108405423D01*
X79769909Y-108088260D01*
X79351333Y-108005000D01*
X79068667Y-108005000D01*
X78650091Y-108088260D01*
X78175423Y-108405423D01*
X77858260Y-108880091D01*
X77746887Y-109440000D01*
X76863113Y-109440000D01*
X76751740Y-108880091D01*
X76434577Y-108405423D01*
X75959909Y-108088260D01*
X75541333Y-108005000D01*
X75527000Y-108005000D01*
X75527000Y-107845806D01*
X103985612Y-107845806D01*
X104005750Y-108595435D01*
X104253877Y-109194467D01*
X104546680Y-109323715D01*
X105700395Y-108170000D01*
X106059605Y-108170000D01*
X107213320Y-109323715D01*
X107506123Y-109194467D01*
X107774388Y-108494194D01*
X107754250Y-107744565D01*
X107506123Y-107145533D01*
X107213320Y-107016285D01*
X106059605Y-108170000D01*
X105700395Y-108170000D01*
X104546680Y-107016285D01*
X104253877Y-107145533D01*
X103985612Y-107845806D01*
X75527000Y-107845806D01*
X75527000Y-107027000D01*
X89370000Y-107027000D01*
X89418601Y-107017333D01*
X89459803Y-106989803D01*
X89487333Y-106948601D01*
X89497000Y-106900000D01*
X89497000Y-106836680D01*
X104726285Y-106836680D01*
X105880000Y-107990395D01*
X107033715Y-106836680D01*
X106904467Y-106543877D01*
X106204194Y-106275612D01*
X105454565Y-106295750D01*
X104855533Y-106543877D01*
X104726285Y-106836680D01*
X89497000Y-106836680D01*
X89497000Y-100970000D01*
X90412560Y-100970000D01*
X90412560Y-102670000D01*
X90461843Y-102917765D01*
X90602191Y-103127809D01*
X90812235Y-103268157D01*
X91060000Y-103317440D01*
X92760000Y-103317440D01*
X93007765Y-103268157D01*
X93217809Y-103127809D01*
X93358157Y-102917765D01*
X93367184Y-102872381D01*
X93379375Y-102890625D01*
X93870582Y-103218839D01*
X94303744Y-103305000D01*
X94596256Y-103305000D01*
X95029418Y-103218839D01*
X95520625Y-102890625D01*
X95720000Y-102592239D01*
X95919375Y-102890625D01*
X96410582Y-103218839D01*
X96843744Y-103305000D01*
X97136256Y-103305000D01*
X97569418Y-103218839D01*
X98060625Y-102890625D01*
X98260000Y-102592239D01*
X98459375Y-102890625D01*
X98950582Y-103218839D01*
X99383744Y-103305000D01*
X99676256Y-103305000D01*
X100109418Y-103218839D01*
X100600625Y-102890625D01*
X100813843Y-102571522D01*
X100874817Y-102701358D01*
X101303076Y-103091645D01*
X101713110Y-103261476D01*
X101943000Y-103140155D01*
X101943000Y-101947000D01*
X102197000Y-101947000D01*
X102197000Y-103140155D01*
X102426890Y-103261476D01*
X102836924Y-103091645D01*
X103265183Y-102701358D01*
X103511486Y-102176892D01*
X103390819Y-101947000D01*
X102197000Y-101947000D01*
X101943000Y-101947000D01*
X101923000Y-101947000D01*
X101923000Y-101693000D01*
X101943000Y-101693000D01*
X101943000Y-100499845D01*
X102197000Y-100499845D01*
X102197000Y-101693000D01*
X103390819Y-101693000D01*
X103511486Y-101463108D01*
X103265183Y-100938642D01*
X102836924Y-100548355D01*
X102426890Y-100378524D01*
X102197000Y-100499845D01*
X101943000Y-100499845D01*
X101713110Y-100378524D01*
X101303076Y-100548355D01*
X100874817Y-100938642D01*
X100813843Y-101068478D01*
X100600625Y-100749375D01*
X100109418Y-100421161D01*
X99676256Y-100335000D01*
X99383744Y-100335000D01*
X98950582Y-100421161D01*
X98459375Y-100749375D01*
X98260000Y-101047761D01*
X98060625Y-100749375D01*
X97569418Y-100421161D01*
X97136256Y-100335000D01*
X96843744Y-100335000D01*
X96410582Y-100421161D01*
X95919375Y-100749375D01*
X95720000Y-101047761D01*
X95520625Y-100749375D01*
X95029418Y-100421161D01*
X94596256Y-100335000D01*
X94303744Y-100335000D01*
X93870582Y-100421161D01*
X93379375Y-100749375D01*
X93367184Y-100767619D01*
X93358157Y-100722235D01*
X93217809Y-100512191D01*
X93007765Y-100371843D01*
X92760000Y-100322560D01*
X91060000Y-100322560D01*
X90812235Y-100371843D01*
X90602191Y-100512191D01*
X90461843Y-100722235D01*
X90412560Y-100970000D01*
X89497000Y-100970000D01*
X89497000Y-97160000D01*
X90412560Y-97160000D01*
X90412560Y-98860000D01*
X90461843Y-99107765D01*
X90602191Y-99317809D01*
X90812235Y-99458157D01*
X91060000Y-99507440D01*
X92760000Y-99507440D01*
X93007765Y-99458157D01*
X93217809Y-99317809D01*
X93358157Y-99107765D01*
X93367184Y-99062381D01*
X93379375Y-99080625D01*
X93870582Y-99408839D01*
X94303744Y-99495000D01*
X94596256Y-99495000D01*
X95029418Y-99408839D01*
X95520625Y-99080625D01*
X95720000Y-98782239D01*
X95919375Y-99080625D01*
X96410582Y-99408839D01*
X96843744Y-99495000D01*
X97136256Y-99495000D01*
X97569418Y-99408839D01*
X98060625Y-99080625D01*
X98273843Y-98761522D01*
X98334817Y-98891358D01*
X98763076Y-99281645D01*
X99173110Y-99451476D01*
X99403000Y-99330155D01*
X99403000Y-98137000D01*
X99657000Y-98137000D01*
X99657000Y-99330155D01*
X99886890Y-99451476D01*
X100296924Y-99281645D01*
X100725183Y-98891358D01*
X100971486Y-98366892D01*
X100850819Y-98137000D01*
X99657000Y-98137000D01*
X99403000Y-98137000D01*
X99383000Y-98137000D01*
X99383000Y-97883000D01*
X99403000Y-97883000D01*
X99403000Y-96689845D01*
X99657000Y-96689845D01*
X99657000Y-97883000D01*
X100850819Y-97883000D01*
X100971486Y-97653108D01*
X100725183Y-97128642D01*
X100296924Y-96738355D01*
X99886890Y-96568524D01*
X99657000Y-96689845D01*
X99403000Y-96689845D01*
X99173110Y-96568524D01*
X98763076Y-96738355D01*
X98334817Y-97128642D01*
X98273843Y-97258478D01*
X98060625Y-96939375D01*
X97569418Y-96611161D01*
X97136256Y-96525000D01*
X96843744Y-96525000D01*
X96410582Y-96611161D01*
X95919375Y-96939375D01*
X95720000Y-97237761D01*
X95520625Y-96939375D01*
X95029418Y-96611161D01*
X94596256Y-96525000D01*
X94303744Y-96525000D01*
X93870582Y-96611161D01*
X93379375Y-96939375D01*
X93367184Y-96957619D01*
X93358157Y-96912235D01*
X93217809Y-96702191D01*
X93007765Y-96561843D01*
X92760000Y-96512560D01*
X91060000Y-96512560D01*
X90812235Y-96561843D01*
X90602191Y-96702191D01*
X90461843Y-96912235D01*
X90412560Y-97160000D01*
X89497000Y-97160000D01*
X89497000Y-93350000D01*
X90412560Y-93350000D01*
X90412560Y-95050000D01*
X90461843Y-95297765D01*
X90602191Y-95507809D01*
X90812235Y-95648157D01*
X91060000Y-95697440D01*
X92760000Y-95697440D01*
X93007765Y-95648157D01*
X93217809Y-95507809D01*
X93358157Y-95297765D01*
X93367184Y-95252381D01*
X93379375Y-95270625D01*
X93870582Y-95598839D01*
X94303744Y-95685000D01*
X94596256Y-95685000D01*
X95029418Y-95598839D01*
X95520625Y-95270625D01*
X95733843Y-94951522D01*
X95794817Y-95081358D01*
X96223076Y-95471645D01*
X96633110Y-95641476D01*
X96863000Y-95520155D01*
X96863000Y-94327000D01*
X97117000Y-94327000D01*
X97117000Y-95520155D01*
X97346890Y-95641476D01*
X97756924Y-95471645D01*
X98185183Y-95081358D01*
X98431486Y-94556892D01*
X98430720Y-94555431D01*
X102765000Y-94555431D01*
X102765000Y-95444569D01*
X103105259Y-96266026D01*
X103733974Y-96894741D01*
X104555431Y-97235000D01*
X105444569Y-97235000D01*
X106266026Y-96894741D01*
X106894741Y-96266026D01*
X107235000Y-95444569D01*
X107235000Y-94555431D01*
X106894741Y-93733974D01*
X106266026Y-93105259D01*
X105444569Y-92765000D01*
X104555431Y-92765000D01*
X103733974Y-93105259D01*
X103105259Y-93733974D01*
X102765000Y-94555431D01*
X98430720Y-94555431D01*
X98310819Y-94327000D01*
X97117000Y-94327000D01*
X96863000Y-94327000D01*
X96843000Y-94327000D01*
X96843000Y-94073000D01*
X96863000Y-94073000D01*
X96863000Y-92879845D01*
X97117000Y-92879845D01*
X97117000Y-94073000D01*
X98310819Y-94073000D01*
X98431486Y-93843108D01*
X98185183Y-93318642D01*
X97756924Y-92928355D01*
X97346890Y-92758524D01*
X97117000Y-92879845D01*
X96863000Y-92879845D01*
X96633110Y-92758524D01*
X96223076Y-92928355D01*
X95794817Y-93318642D01*
X95733843Y-93448478D01*
X95520625Y-93129375D01*
X95029418Y-92801161D01*
X94596256Y-92715000D01*
X94303744Y-92715000D01*
X93870582Y-92801161D01*
X93379375Y-93129375D01*
X93367184Y-93147619D01*
X93358157Y-93102235D01*
X93217809Y-92892191D01*
X93007765Y-92751843D01*
X92760000Y-92702560D01*
X91060000Y-92702560D01*
X90812235Y-92751843D01*
X90602191Y-92892191D01*
X90461843Y-93102235D01*
X90412560Y-93350000D01*
X89497000Y-93350000D01*
X89497000Y-91787000D01*
X108293000Y-91787000D01*
X108293000Y-143603000D01*
G04 #@! TD*
M02*
