M48
INCH,TZ
T1C0.0157
T2C0.0295
T3C0.0315
T4C0.0354
T5C0.0394
T6C0.0433
T7C0.0512
T8C0.0681
T9C0.1260
%
G90
G05
T1
X39585Y-45387
X40385Y-44587
T2
X40685Y-47587
X40685Y-48087
X40685Y-48587
T3
X37685Y-43087
X37685Y-44071
X31185Y-43087
X35185Y-43087
X26685Y-43087
X26685Y-44087
X26685Y-45087
X29685Y-43087
X29685Y-44087
X29685Y-45087
X40685Y-51087
X40685Y-52465
X35717Y-51087
X37685Y-51087
X31185Y-44587
X35185Y-44587
X24685Y-41587
X24685Y-45587
X35185Y-53587
X35185Y-55587
X38185Y-53587
X38185Y-55587
X35185Y-46587
X35185Y-47587
X35185Y-48587
X35185Y-49587
X38185Y-46587
X38185Y-47587
X38185Y-48587
X38185Y-49587
T4
X26185Y-48587
X26185Y-54492
X32091Y-50555
X32091Y-52524
T5
X36185Y-37087
X37185Y-37087
X38185Y-37087
X21185Y-51087
X23185Y-51091
X36185Y-40087
X37185Y-40087
X38185Y-40087
X39185Y-40087
X40185Y-40087
X36185Y-38587
X37185Y-38587
X38185Y-38587
X39185Y-38587
T6
X25685Y-37587
X25685Y-38587
X25685Y-39587
T7
X21500Y-41500
X21500Y-43469
X41685Y-42587
X41685Y-44555
X21500Y-45500
X21500Y-47469
T8
X33085Y-38587
T9
X21654Y-37402
X21654Y-55118
X41339Y-55118
X41339Y-37402
T0
M30
